<svg width="216" height="389" viewBox="0 0 216 389" fill="none" xmlns="http://www.w3.org/2000/svg">
<g opacity="0.5" clip-path="url(#clip0_15_988)">
<path d="M215.419 176.863H148.766C148.447 176.863 148.185 176.658 148.185 176.396V42.4669C148.185 42.205 148.447 42 148.766 42H215.419C215.738 42 216 42.205 216 42.4669V176.362C216.023 176.624 215.784 176.841 215.465 176.863C215.453 176.863 215.43 176.863 215.419 176.863ZM149.335 175.93H214.838V42.9338H149.335V175.93Z" fill="white"/>
<path d="M141.327 177H74.6733C74.3543 177 74.0923 176.795 74.0923 176.533V42.4669C74.0923 42.205 74.3543 42 74.6733 42H141.327C141.646 42 141.908 42.205 141.908 42.4669V176.499C141.93 176.761 141.691 176.977 141.372 177C141.361 177 141.338 177 141.327 177ZM75.2429 176.066H140.746V42.9338H75.2429V176.066Z" fill="white"/>
<path d="M67.2458 177H0.580982C0.262011 177 0.0113918 176.784 0 176.533V42.4669C0 42.2164 0.262011 42 0.580982 42H67.2458C67.5648 42 67.8154 42.2164 67.8268 42.4669V176.499C67.8496 176.761 67.599 176.989 67.2686 177C67.2686 177 67.2572 177 67.2458 177ZM1.15057 176.066H66.6648V42.9338H1.15057V176.066Z" fill="white"/>
<path d="M104.702 98.0726C104.543 98.0726 104.394 98.0043 104.281 97.9018C104.064 97.674 104.064 97.3096 104.281 97.0819L131.553 70.7082C131.758 70.4805 132.111 70.4691 132.339 70.6854C132.339 70.6854 132.35 70.6968 132.361 70.7082C132.589 70.936 132.589 71.3004 132.361 71.5281L105.101 97.9473C104.987 98.0384 104.839 98.084 104.691 98.0726H104.702Z" fill="white"/>
<path d="M23.3532 95.3168C23.0342 95.3168 22.7722 95.0663 22.7722 94.7474C22.7722 94.588 22.8406 94.44 22.9545 94.3261L50.2151 67.8955C50.4315 67.6563 50.7961 67.6336 51.0353 67.8499C51.2745 68.0663 51.2973 68.4307 51.0809 68.6698C51.0581 68.6926 51.0467 68.7154 51.0239 68.7268L23.7633 95.1574C23.6608 95.2599 23.5127 95.3168 23.3646 95.3168H23.3532Z" fill="white"/>
<path d="M99.5758 124.184C99.2568 124.184 99.0062 123.922 99.0062 123.603C99.0062 123.444 99.0745 123.296 99.1998 123.182L121.38 103.06C121.642 102.878 122.018 102.935 122.2 103.197C122.359 103.413 122.337 103.721 122.166 103.926L99.9745 124.036C99.8719 124.139 99.7238 124.184 99.5758 124.184Z" fill="white"/>
<path d="M163.598 80.6039C163.415 80.6039 163.245 80.5128 163.131 80.3762C162.937 80.1256 162.994 79.7612 163.245 79.5676L191.986 58.0337C192.237 57.8401 192.601 57.897 192.795 58.1476C192.989 58.3981 192.932 58.7625 192.681 58.9561L163.939 80.4559C163.848 80.547 163.723 80.5925 163.598 80.6039Z" fill="white"/>
<path d="M28.1833 144.09C28.0125 144.09 27.853 144.022 27.7391 143.896C27.5112 143.68 27.5112 143.316 27.7391 143.099L50.1467 123.558C50.3974 123.353 50.7619 123.399 50.9555 123.649C51.1492 123.877 51.1264 124.219 50.91 124.423L28.5023 143.965C28.4112 144.044 28.2973 144.09 28.1833 144.101V144.09Z" fill="white"/>
<path d="M177.974 120.54C177.792 120.54 177.621 120.449 177.507 120.301C177.313 120.051 177.37 119.686 177.621 119.493L195.199 106.659C195.461 106.465 195.825 106.522 196.007 106.784C196.201 107.046 196.144 107.41 195.882 107.593L178.305 120.427C178.213 120.506 178.088 120.54 177.974 120.54Z" fill="white"/>
<path d="M89.813 68.9316C89.6535 68.9316 89.494 68.8633 89.3801 68.7494C89.1523 68.5216 89.1523 68.1572 89.3801 67.9295L100.943 57.3732C101.205 57.191 101.581 57.2479 101.763 57.5098C101.922 57.7262 101.9 58.0337 101.729 58.2386L90.1092 68.7836C90.0294 68.8633 89.9269 68.9202 89.813 68.9316Z" fill="white"/>
</g>
<mask id="mask0_15_988" style="mask-type:luminance" maskUnits="userSpaceOnUse" x="12" y="0" width="198" height="177">
<path d="M210 0H12.5948V176.51H210V0Z" fill="white"/>
</mask>
<g mask="url(#mask0_15_988)">
<path d="M171.158 37.6771L171.249 30.296C171.722 19.7736 165.981 10.7221 155.417 10.5496L154.443 10.5859C144.617 10.9944 136.747 18.8567 136.355 28.6618C136 37.786 135.718 47.8726 135.982 52.7479C136.528 62.8435 146.719 63.9966 146.719 63.9966C146.746 63.9966 146.782 70.1429 146.773 73.1117L144.398 80.0388L152.724 78.0142L170.73 72.6214L171.03 47.8453C172.341 48.1449 177.718 48.4718 177.663 42.389C177.609 36.4514 172.659 37.2776 171.158 37.6771Z" fill="#FDE0C5"/>
<path d="M146.71 63.9966C146.71 63.9966 153.106 64.1056 159.73 59.5662C159.73 59.5662 156.873 67.2922 146.737 66.7929L146.71 63.9966Z" fill="#E8BD95"/>
<path d="M171.158 37.6771L171.249 30.296C171.722 19.7736 165.981 10.7221 155.417 10.5496L154.443 10.5859C144.617 10.9944 136.747 18.8567 136.355 28.6618C136 37.786 135.718 47.8726 135.982 52.7479C136.528 62.8435 146.719 63.9966 146.719 63.9966C146.746 63.9966 146.782 70.1429 146.773 73.1117L144.398 80.0388L152.724 78.0142L170.73 72.6214L171.03 47.8453C172.341 48.1449 177.718 48.4718 177.663 42.389C177.609 36.4514 172.659 37.2776 171.158 37.6771Z" stroke="#320F0F" stroke-linecap="round" stroke-linejoin="round"/>
<path d="M141.532 37.7316C141.532 38.4942 142.187 39.1206 142.988 39.1297C143.789 39.1388 144.426 38.5305 144.426 37.7679C144.426 37.0052 143.771 36.3788 142.97 36.3697C142.169 36.3607 141.523 36.9689 141.532 37.7316Z" fill="#320F0F"/>
<path d="M138.694 33.0377C138.885 33.2193 139.94 32.3659 141.496 32.3023C143.052 32.2206 144.226 32.9741 144.38 32.7744C144.462 32.6836 144.262 32.3568 143.752 32.0118C143.252 31.6759 142.397 31.3581 141.432 31.4035C140.468 31.4489 139.667 31.8393 139.212 32.2206C138.748 32.611 138.603 32.956 138.694 33.0377Z" fill="#320F0F"/>
<path d="M156.263 37.3775C156.263 38.1402 156.918 38.7666 157.719 38.7757C158.52 38.7848 159.157 38.1765 159.157 37.4139C159.157 36.6512 158.501 36.0248 157.701 36.0157C156.9 36.0066 156.263 36.6149 156.263 37.3775Z" fill="#320F0F"/>
<path d="M153.952 32.7655C154.143 32.9471 155.199 32.0936 156.754 32.0301C158.31 31.9484 159.484 32.7019 159.639 32.5022C159.721 32.4114 159.52 32.0846 159.011 31.7396C158.511 31.4037 157.655 31.0859 156.691 31.1313C155.726 31.1767 154.926 31.5671 154.471 31.9484C154.007 32.3388 153.861 32.6838 153.952 32.7655Z" fill="#320F0F"/>
<path d="M172.841 45.1035C172.841 45.1035 172.959 45.1852 173.169 45.276C173.369 45.3668 173.714 45.4213 174.069 45.2851C174.797 45.0127 175.407 43.8416 175.425 42.5978C175.434 41.9713 175.298 41.3721 175.07 40.8728C174.852 40.3735 174.524 40.0194 174.151 39.9558C173.787 39.8741 173.523 40.1011 173.442 40.2918C173.351 40.4824 173.396 40.6277 173.36 40.6368C173.341 40.6549 173.214 40.5187 173.26 40.2373C173.287 40.1011 173.369 39.9377 173.532 39.8015C173.696 39.6653 173.942 39.5927 174.197 39.6199C174.734 39.6562 175.216 40.1374 175.471 40.6821C175.753 41.2269 175.916 41.8987 175.907 42.6069C175.88 44.005 175.17 45.3123 174.179 45.6119C173.696 45.739 173.287 45.6029 173.068 45.4394C172.85 45.2669 172.814 45.1126 172.841 45.1035Z" fill="#6F4539"/>
<path d="M122.371 19.5648C122.48 19.1562 122.771 18.8203 123.135 18.6024C123.926 18.1212 124.836 18.1757 125.719 18.1575C127.921 18.094 130.095 17.5129 132.042 16.4961C131.351 16.1602 130.714 15.7426 130.159 15.216C129.031 14.1175 128.367 12.4107 128.858 10.9126C128.949 10.6312 129.113 10.3316 129.395 10.2408C129.841 10.0956 130.241 10.5313 130.559 10.8763C131.606 12.0112 132.561 12.5014 134.099 12.3289C135.054 12.22 135.973 11.993 136.728 11.5209C136.756 11.4937 136.783 11.4574 136.81 11.4211C137.165 11.0488 137.511 10.6857 137.857 10.3407C140.431 7.73506 142.652 5.9193 144.953 4.96602C148.32 3.56789 153.97 2.95053 157.51 3.84025C161.049 4.7209 164.252 7.54441 164.78 11.1396C166.736 9.45096 169.711 9.4328 172.131 10.3679L172.195 10.3407C174.888 11.2667 176.444 14.0721 177.272 16.7957C177.318 16.941 177.354 17.0953 177.399 17.2406C178.318 18.666 179.574 19.8825 181.048 20.7178C181.312 20.863 181.612 21.0446 181.639 21.3442C181.676 21.6347 181.43 21.8889 181.184 22.0614C180.548 22.5245 179.801 22.8422 179.019 22.9875C179.274 23.6321 179.565 24.2585 179.929 24.8577C180.238 25.3661 180.602 25.9744 180.347 26.5101C180.147 26.9277 179.629 27.1002 179.165 27.0366C178.71 26.9731 178.3 26.7279 177.909 26.4828C178.218 27.191 178.528 27.9082 178.828 28.6163C177.863 28.7979 176.853 28.7253 175.907 28.4529C175.37 31.0131 174.988 35.7432 174.351 37.4863C172.513 37.5408 172.068 37.3411 171.14 37.6588C169.948 38.0674 170.43 40.1828 168.856 39.6017C168.055 39.3021 166.799 36.3152 166.526 35.5072C164.698 30.1688 164.052 24.431 164.625 18.8112C163.497 17.6401 162.15 16.6868 160.667 16.024L160.785 16.133C157.937 15.1797 154.725 14.2537 152.05 15.6155C149.976 16.6686 148.775 18.8385 147.237 20.5816C144.317 23.8772 140.996 25.6566 136.592 25.9018C136.228 28.9613 136.173 33.9547 136.055 36.8054L133.553 31.1312V31.1584C133.353 30.8225 133.18 30.4957 133.025 30.1597L132.971 30.0599C132.716 29.5061 132.47 28.9704 132.152 28.4348C132.152 28.4348 132.133 28.4529 132.124 28.462C130.596 29.842 128.294 27.7811 129.495 26.1106C129.731 25.7747 130.023 25.4841 130.35 25.239C129.649 25.9109 128.603 26.2377 127.666 25.9653C126.738 25.693 126.01 24.7669 126.074 23.7955C126.119 23.1327 126.583 22.5426 127.175 22.2793C125.928 22.3883 124.645 22.1341 123.553 21.5258C122.835 21.1263 122.125 20.4636 122.361 19.5648H122.371Z" fill="#2C3B5E"/>
<path d="M122.371 19.5648C122.48 19.1562 122.771 18.8203 123.135 18.6024C123.926 18.1212 124.836 18.1757 125.719 18.1575C127.921 18.094 130.095 17.5129 132.042 16.4961C131.351 16.1602 130.714 15.7426 130.159 15.216C129.031 14.1175 128.367 12.4107 128.858 10.9126C128.949 10.6312 129.113 10.3316 129.395 10.2408C129.841 10.0956 130.241 10.5313 130.559 10.8763C131.606 12.0112 132.561 12.5014 134.099 12.3289C135.054 12.22 135.973 11.993 136.728 11.5209C136.756 11.4937 136.783 11.4574 136.81 11.4211C137.165 11.0488 137.511 10.6857 137.857 10.3407C140.431 7.73506 142.652 5.9193 144.953 4.96602C148.32 3.56789 153.97 2.95053 157.51 3.84025C161.049 4.7209 164.252 7.54441 164.78 11.1396C166.736 9.45096 169.711 9.4328 172.131 10.3679L172.195 10.3407C174.888 11.2667 176.444 14.0721 177.272 16.7957C177.318 16.941 177.354 17.0953 177.399 17.2406C178.318 18.666 179.574 19.8825 181.048 20.7178C181.312 20.863 181.612 21.0446 181.639 21.3442C181.676 21.6347 181.43 21.8889 181.184 22.0614C180.548 22.5245 179.801 22.8422 179.019 22.9875C179.274 23.6321 179.565 24.2585 179.929 24.8577C180.238 25.3661 180.602 25.9744 180.347 26.5101C180.147 26.9277 179.629 27.1002 179.165 27.0366C178.71 26.9731 178.3 26.7279 177.909 26.4828C178.218 27.191 178.528 27.9082 178.828 28.6163C177.863 28.7979 176.853 28.7253 175.907 28.4529C175.37 31.0131 174.988 35.7432 174.351 37.4863C172.513 37.5408 172.068 37.3411 171.14 37.6588C169.948 38.0674 170.43 40.1828 168.856 39.6017C168.055 39.3021 166.799 36.3152 166.526 35.5072C164.698 30.1688 164.052 24.431 164.625 18.8112C163.497 17.6401 162.15 16.6868 160.667 16.024L160.785 16.133C157.937 15.1797 154.725 14.2537 152.05 15.6155C149.976 16.6686 148.775 18.8385 147.237 20.5816C144.317 23.8772 140.996 25.6566 136.592 25.9018C136.228 28.9613 136.173 33.9547 136.055 36.8054L133.553 31.1312V31.1584C133.353 30.8225 133.18 30.4957 133.025 30.1597L132.971 30.0599C132.716 29.5061 132.47 28.9704 132.152 28.4348C132.152 28.4348 132.133 28.4529 132.124 28.462C130.596 29.842 128.294 27.7811 129.495 26.1106C129.731 25.7747 130.023 25.4841 130.35 25.239C129.649 25.9109 128.603 26.2377 127.666 25.9653C126.738 25.693 126.01 24.7669 126.074 23.7955C126.119 23.1327 126.583 22.5426 127.175 22.2793C125.928 22.3883 124.645 22.1341 123.553 21.5258C122.835 21.1263 122.125 20.4636 122.361 19.5648H122.371Z" stroke="#320F0F" stroke-linecap="round" stroke-linejoin="round"/>
<path d="M121.151 175.621C121.151 175.621 117.748 186.787 118.222 200.596C118.403 205.935 130.15 353.992 130.15 353.992L154.462 355.018L153.515 216.294L155.49 216.811C155.49 216.811 166.254 276.414 166.927 286.019C167.536 294.653 176.071 357.551 176.071 357.551L198.208 356.943L194.696 275.878L189.801 196.302L187.672 173.106L121.142 175.621H121.151Z" fill="#263239"/>
<path d="M177.754 172.788C177.754 172.788 177.591 172.879 177.263 173.024C176.89 173.178 176.408 173.369 175.825 173.605C174.579 174.104 172.741 174.767 170.448 175.512C168.155 176.265 165.398 177.064 162.305 177.836C159.202 178.589 155.772 179.307 152.141 179.879C148.502 180.441 145.017 180.805 141.833 181.041C138.648 181.25 135.782 181.34 133.371 181.313C130.96 181.304 129.013 181.231 127.666 181.141C127.038 181.095 126.52 181.059 126.119 181.032C125.764 181.004 125.582 180.977 125.582 180.959C125.582 180.941 125.773 180.932 126.128 180.932C126.529 180.932 127.047 180.95 127.675 180.959C129.022 181.004 130.969 181.013 133.371 180.986C135.773 180.968 138.639 180.841 141.805 180.614C144.972 180.36 148.447 179.978 152.069 179.425C155.69 178.853 159.111 178.145 162.205 177.418C165.289 176.674 168.055 175.911 170.348 175.194C172.641 174.486 174.497 173.878 175.762 173.424C176.362 173.224 176.844 173.06 177.227 172.924C177.563 172.815 177.745 172.77 177.754 172.779V172.788Z" fill="#263239"/>
<path d="M205.196 146.151L187.499 145.515L187.299 152.651L182.549 195.085L182.731 195.149L182.295 198.109C182.295 198.109 176.89 202.176 175.707 203.783C174.524 205.39 171.594 211.119 169.411 212.789C169.411 212.789 169.866 215.023 172.022 213.906C174.178 212.789 176.799 210.365 177.718 208.967C178.637 207.569 179.601 208.386 179.656 209.612C179.71 210.828 178.664 219.09 178.664 219.09C178.664 219.09 176.08 228.269 176.781 229.304C177.481 230.329 178.919 230.093 179.41 229.422C179.765 228.94 182.677 221.269 182.677 221.269L183.423 217.093C183.423 217.093 181.921 230.311 182.759 231.346C183.596 232.381 184.506 231.982 185.088 231.455C185.67 230.929 186.271 225.091 186.271 225.091L187.635 217.292L187.39 232.154C187.39 232.154 187.544 233.561 188.655 233.616C189.765 233.67 190.502 232.036 190.502 232.036L192.103 216.72C192.103 216.72 191.584 225.236 192.157 225.681C192.922 226.28 193.622 226.081 193.877 225.427C194.387 224.101 195.142 216.439 195.142 216.439L195.842 201.858L196.079 199.625C196.079 199.625 205.178 155.956 205.187 151.789L205.205 146.151H205.196Z" fill="#FDE0C5"/>
<path d="M205.196 146.151L187.499 145.515L187.299 152.651L182.549 195.085L182.731 195.149L182.295 198.109C182.295 198.109 176.89 202.176 175.707 203.783C174.524 205.39 171.594 211.119 169.411 212.789C169.411 212.789 169.866 215.023 172.022 213.906C174.178 212.789 176.799 210.365 177.718 208.967C178.637 207.569 179.601 208.386 179.656 209.612C179.71 210.828 178.664 219.09 178.664 219.09C178.664 219.09 176.08 228.269 176.781 229.304C177.481 230.329 178.919 230.093 179.41 229.422C179.765 228.94 182.677 221.269 182.677 221.269L183.423 217.093C183.423 217.093 181.921 230.311 182.759 231.346C183.596 232.381 184.506 231.982 185.088 231.455C185.67 230.929 186.271 225.091 186.271 225.091L187.635 217.292L187.39 232.154C187.39 232.154 187.544 233.561 188.655 233.616C189.765 233.67 190.502 232.036 190.502 232.036L192.103 216.72C192.103 216.72 191.584 225.236 192.157 225.681C192.922 226.28 193.622 226.081 193.877 225.427C194.387 224.101 195.142 216.439 195.142 216.439L195.842 201.858L196.079 199.625C196.079 199.625 205.178 155.956 205.187 151.789L205.205 146.151H205.196Z" stroke="#320F0F" stroke-linecap="round" stroke-linejoin="round"/>
<path d="M184.56 166.896L185.716 147.385C185.716 147.385 185.852 146.677 186.098 145.406L207.434 146.178C207.434 146.178 203.867 98.9954 202.23 90.8517C200.601 82.708 194.732 78.7224 194.732 78.7224C194.732 78.7224 194.678 78.7496 194.596 78.8041C194.578 78.7859 194.569 78.7678 194.55 78.7496C191.675 76.4345 180.811 72.685 175.325 70.8783L170.703 63.1794L151.896 74.4644L146.582 67.619C146.582 67.619 145.154 70.733 144.262 73.1934L128.112 78.4863C119.777 79.1582 113.345 90.9061 113.345 90.9061L109.996 113.903L109.168 121.665L100.661 134.484C100.661 134.484 98.0952 134.92 97.5038 135.583C96.9124 136.246 96.8396 137.78 96.8396 137.78L109.25 154.04C109.25 154.04 110.57 155.502 112.99 154.34C114.91 153.414 119.432 151.662 121.242 150.972L120.296 167.441C120.296 167.441 120.533 167.731 119.277 170.863C118.021 173.995 117.475 185.507 117.475 185.507C139.194 192.435 162.805 186.234 186.589 179.08C186.589 179.08 186.462 176.819 186.462 173.433C186.462 170.046 184.551 166.887 184.551 166.887L184.56 166.896Z" fill="#FFE984"/>
<path d="M184.56 166.896L185.716 147.385C185.716 147.385 185.852 146.677 186.098 145.406L207.434 146.178C207.434 146.178 203.867 98.9954 202.23 90.8517C200.601 82.708 194.732 78.7224 194.732 78.7224C194.732 78.7224 194.678 78.7496 194.596 78.8041C194.578 78.7859 194.569 78.7678 194.55 78.7496C191.675 76.4345 180.811 72.685 175.325 70.8783L170.703 63.1794L151.896 74.4644L146.582 67.619C146.582 67.619 145.154 70.733 144.262 73.1934L128.112 78.4863C119.777 79.1582 113.345 90.9061 113.345 90.9061L109.996 113.903L109.168 121.665L100.661 134.484C100.661 134.484 98.0952 134.92 97.5038 135.583C96.9124 136.246 96.8396 137.78 96.8396 137.78L109.25 154.04C109.25 154.04 110.57 155.502 112.99 154.34C114.91 153.414 119.432 151.662 121.242 150.972L120.296 167.441C120.296 167.441 120.533 167.731 119.277 170.863C118.021 173.995 117.475 185.507 117.475 185.507C139.194 192.435 162.805 186.234 186.589 179.08C186.589 179.08 186.462 176.819 186.462 173.433C186.462 170.046 184.551 166.887 184.551 166.887L184.56 166.896Z" stroke="#320F0F" stroke-linecap="round" stroke-linejoin="round"/>
<path d="M122.307 97.9876C122.307 97.9876 122.325 98.2055 122.325 98.6231C122.316 99.0861 122.298 99.6944 122.28 100.439C122.225 102.073 122.143 104.343 122.043 107.121C121.834 112.768 121.588 120.567 121.415 129.182C121.251 137.798 121.206 145.606 121.197 151.253C121.197 154.031 121.188 156.31 121.179 157.944C121.179 158.698 121.16 159.297 121.16 159.76C121.151 160.177 121.133 160.395 121.124 160.395C121.106 160.395 121.088 160.177 121.069 159.76C121.051 159.297 121.024 158.689 120.997 157.944C120.942 156.364 120.897 154.077 120.86 151.253C120.778 145.606 120.769 137.798 120.933 129.173C121.097 120.548 121.406 112.75 121.697 107.112C121.843 104.288 121.979 102.009 122.088 100.43C122.143 99.6853 122.189 99.077 122.225 98.614C122.261 98.1964 122.289 97.9785 122.307 97.9876Z" fill="#263239"/>
<path d="M116.72 150.472C116.647 150.499 116.165 149.228 115.301 147.231C114.418 145.252 113.117 142.492 110.915 140.032C108.713 137.571 105.956 136.146 103.855 135.683C101.744 135.193 100.37 135.483 100.37 135.374C100.37 135.347 100.697 135.256 101.316 135.202C101.935 135.138 102.836 135.147 103.927 135.356C106.111 135.746 108.995 137.181 111.27 139.714C113.527 142.256 114.8 145.079 115.61 147.104C116.011 148.121 116.302 148.965 116.484 149.546C116.666 150.127 116.757 150.463 116.72 150.472Z" fill="#263239"/>
<path d="M114.691 125.85C114.637 125.968 113.363 125.496 111.925 124.652C110.488 123.808 109.459 122.918 109.532 122.809C109.614 122.7 110.751 123.408 112.162 124.243C113.572 125.079 114.746 125.732 114.691 125.85Z" fill="#263239"/>
<path d="M69.3889 143.2C69.3889 143.2 78.0326 143.59 80.9442 142.964C83.8558 142.329 98.4137 137.244 98.4137 137.244C98.4137 137.244 110.178 143.663 110.906 148.257C111.634 152.86 109.933 154.349 109.933 154.349L71.5908 156.346L66.1862 151.761L69.3707 143.191L69.3889 143.2Z" fill="#FDE0C5"/>
<path d="M69.3889 143.2C69.3889 143.2 78.0326 143.59 80.9442 142.964C83.8558 142.329 98.4137 137.244 98.4137 137.244C98.4137 137.244 110.178 143.663 110.906 148.257C111.634 152.86 109.933 154.349 109.933 154.349L71.5908 156.346L66.1862 151.761L69.3707 143.191L69.3889 143.2Z" stroke="#320F0F" stroke-linecap="round" stroke-linejoin="round"/>
<path d="M55.0766 143.2H61.6641C61.6641 143.2 79.6795 152.76 80.2891 153.922C81.1899 155.629 80.9533 156.709 79.0699 156.428C78.0053 156.265 69.4708 152.143 69.4708 152.143L69.2524 152.86C69.2524 152.86 73.547 156.846 73.547 158.071C73.547 159.297 72.4733 161.439 70.6081 160.722C70.6081 160.722 69.68 163.437 68.6064 163.863C67.5327 164.29 66.3135 163.863 66.3135 163.863C66.3135 163.863 65.5947 165.507 64.239 165.507C62.8833 165.507 61.5185 164.363 61.5185 164.363L54.285 157.281L44.7951 157.136L47.0425 142.537L55.0766 143.191V143.2Z" fill="#F9BE9D"/>
<path d="M64.7122 161.267C64.8213 161.194 65.249 161.666 65.6584 162.32C66.0679 162.974 66.3135 163.555 66.2043 163.627C66.0952 163.7 65.6675 163.228 65.2581 162.574C64.8486 161.921 64.603 161.34 64.7122 161.267Z" fill="#F3986E"/>
<path d="M68.1423 158.108C68.2515 158.026 68.8247 158.607 69.5071 159.333C70.1895 160.059 70.7264 160.668 70.6445 160.768C70.5626 160.868 69.862 160.404 69.1614 159.651C68.4608 158.906 68.0422 158.18 68.1423 158.108Z" fill="#F3986E"/>
<path d="M71.245 144.362C71.245 144.362 65.1579 138.86 64.0843 138.715C63.0107 138.57 57.9882 138.86 56.8508 140.168C55.7135 141.475 56.2776 147.513 56.496 147.585C56.7144 147.658 58.3612 148.084 59.2893 146.795C60.2174 145.506 61.0089 142.792 61.0089 142.792L62.2282 143.191C62.2282 143.191 63.1926 146.069 69.0522 146.895L71.2541 144.362H71.245Z" fill="#AE7361"/>
<path d="M47.5975 157.054C47.5975 157.054 47.3791 158.707 48.5256 159.279C49.672 159.851 51.3189 159.279 51.3189 159.279L51.7465 156.8C51.7465 156.8 48.5983 154.767 47.5884 157.054H47.5975Z" fill="#AE7361"/>
<path d="M53.9393 161.712C53.9393 161.712 49.9996 161.748 50.7184 159.279C51.4281 156.809 53.1568 155.348 53.9393 155.348C54.7218 155.348 57.233 155.357 56.305 157.754C55.3769 160.141 53.9393 161.712 53.9393 161.712Z" fill="#AE7361"/>
<path d="M57.5424 162.928C57.5424 162.928 53.4298 164 53.9393 161.712C54.4397 159.424 56.0684 156.283 57.5424 156.709C59.0255 157.136 60.3084 157.781 59.8079 159.07C59.3075 160.359 57.5424 162.928 57.5424 162.928Z" fill="#AE7361"/>
<path d="M62.8196 163.174C62.8196 163.174 61.5276 164.781 60.5267 164.781C59.5259 164.781 57.5424 162.919 57.5424 162.919L60.181 158.271C60.181 158.271 61.8915 158.271 62.1008 159.914C62.3192 161.558 62.301 162.139 62.301 162.139L62.8196 163.164V163.174Z" fill="#AE7361"/>
<path d="M60.2538 158.389C60.372 158.453 59.8352 159.551 59.0618 160.84C58.2884 162.139 57.5696 163.128 57.4605 163.056C57.3513 162.983 57.8881 161.884 58.6524 160.604C59.4167 159.324 60.1355 158.335 60.2538 158.389Z" fill="#6F4539"/>
<path d="M56.7235 156.809C56.8236 156.909 55.9501 157.908 55.1403 159.306C54.3215 160.695 53.8756 161.948 53.7391 161.912C53.6209 161.884 53.8756 160.523 54.7309 159.07C55.5771 157.608 56.6416 156.728 56.7235 156.818V156.809Z" fill="#6F4539"/>
<path d="M53.175 155.874C53.2568 155.992 52.4289 156.646 51.7465 157.708C51.055 158.761 50.7911 159.787 50.6546 159.76C50.5363 159.76 50.5909 158.607 51.3461 157.454C52.0922 156.292 53.1113 155.765 53.1659 155.874H53.175Z" fill="#6F4539"/>
<path d="M88.5689 28.9612C92.5541 32.0934 94.8288 37.2774 94.4376 42.3252C94.2465 44.7765 93.5732 47.5728 95.1655 49.4521C96.7486 51.3041 99.8604 51.2497 101.371 53.1562C103.154 55.3987 101.662 58.7397 102.299 61.536C102.899 64.1597 105.674 66.0935 108.349 65.7485C105.21 68.3088 101.362 69.9702 97.3492 70.5149C96.321 69.1985 95.2929 67.8821 94.2738 66.5747C95.4384 67.9547 95.1291 70.1608 94.0008 71.5681C92.8726 72.9753 91.1257 73.747 89.3969 74.2917C81.1535 76.8973 71.7 75.3721 64.7122 70.2879" fill="#A2A0D0"/>
<path d="M42.3476 50.6324C42.9663 48.7531 43.9945 47.0099 44.413 45.0761C45.3047 40.918 43.2757 36.2424 45.2956 32.4929C46.7332 29.8328 49.7994 28.5255 52.7019 27.6357C55.6044 26.746 58.7071 25.9925 60.8725 23.868C62.4557 22.3155 63.3565 20.1639 64.9397 18.6023C67.187 16.378 70.5172 15.6245 73.6835 15.4247C76.9317 15.225 80.2891 15.5337 83.2098 16.9681C86.1305 18.4026 88.5599 21.0899 89.0785 24.2947C89.3332 25.8563 89.1422 27.4995 89.6335 28.9976C90.1794 30.6499 91.4805 31.9391 92.2812 33.4825C93.9827 36.7509 93.0546 41.145 90.1976 43.4692L67.8876 72.2218C63.2018 73.9922 51.8466 71.8496 48.2254 68.3996C44.6041 64.9497 40.7917 55.3806 42.3476 50.6324Z" fill="#C5C3E3"/>
<path d="M89.6062 39.8285C88.6872 33.3009 83.7102 25.5839 77.2137 26.7823L57.1602 33.5097C55.1858 33.8728 53.821 35.6795 54.0121 37.6769L59.9262 84.923C59.9262 84.923 58.4522 86.1396 57.4787 85.7673C57.2239 85.6675 57.0056 85.9489 57.1511 86.1759C59.5623 89.6622 70.9266 104.924 82.6457 100.266C85.2661 99.2222 82.3727 90.9967 82.6821 87.9463L82.3363 80.1566C82.0724 76.1801 81.9542 74.555 81.9542 74.5913C81.9542 74.5913 90.2431 72.5577 91.1438 61.4906C91.5897 55.9888 90.6343 47.0916 89.6062 39.8376V39.8285Z" fill="#FDE0C5"/>
<path d="M89.6062 39.8285C88.6872 33.3009 83.7102 25.5839 77.2137 26.7823L57.1602 33.5097C55.1858 33.8728 53.821 35.6795 54.0121 37.6769L59.9262 84.923C59.9262 84.923 58.4522 86.1396 57.4787 85.7673C57.2239 85.6675 57.0056 85.9489 57.1511 86.1759C59.5623 89.6622 70.9266 104.924 82.6457 100.266C85.2661 99.2222 82.3727 90.9967 82.6821 87.9463L82.3363 80.1566C82.0724 76.1801 81.9542 74.555 81.9542 74.5913C81.9542 74.5913 90.2431 72.5577 91.1438 61.4906C91.5897 55.9888 90.6343 47.0916 89.6062 39.8376V39.8285Z" stroke="#320F0F" stroke-linecap="round" stroke-linejoin="round"/>
<path d="M88.205 49.8697C88.2869 50.6051 87.7319 51.286 86.9585 51.3859C86.1851 51.4857 85.4936 50.9682 85.4117 50.2328C85.3298 49.4975 85.8848 48.8165 86.6582 48.7167C87.4316 48.6168 88.1231 49.1343 88.205 49.8697Z" fill="#320F0F"/>
<path d="M74.5478 50.7232C74.6297 51.4586 74.0747 52.1395 73.3013 52.2394C72.5279 52.3392 71.8364 51.8217 71.7545 51.0864C71.6726 50.351 72.2277 49.6701 73.0011 49.5702C73.7744 49.4703 74.4659 49.9878 74.5478 50.7232Z" fill="#320F0F"/>
<path d="M88.7145 45.2487C88.5598 45.5029 87.2587 44.6767 85.6209 44.9219C83.9832 45.1307 82.9368 46.2837 82.7185 46.0749C82.6184 45.9841 82.7458 45.5392 83.1916 45.0217C83.6374 44.5133 84.4472 43.9595 85.4663 43.8142C86.4853 43.6781 87.4134 43.9867 87.9775 44.3681C88.5507 44.7403 88.7873 45.1398 88.7145 45.2487Z" fill="#320F0F"/>
<path d="M74.0111 46.4653C73.82 46.7014 72.528 45.7662 70.7719 45.848C69.0159 45.8933 67.7602 46.9193 67.5601 46.6923C67.46 46.5924 67.6511 46.1748 68.1879 45.7118C68.7247 45.2488 69.6437 44.7948 70.7446 44.7494C71.8456 44.7131 72.7827 45.1035 73.3377 45.5302C73.9019 45.9569 74.102 46.3564 74.0111 46.4653Z" fill="#320F0F"/>
<path d="M81.9542 74.5733C81.9542 74.5733 74.6206 75.6173 66.9777 71.7952C66.9777 71.7952 71.2541 79.1853 82.1452 77.3242L81.9542 74.5824V74.5733Z" fill="#E8BD95"/>
<path d="M76.9954 61.7812C77.2047 61.4271 77.4231 61.0639 77.7688 60.8642C78.1601 60.6372 78.6332 60.6463 79.079 60.7371C79.7159 60.8551 80.3528 61.1275 80.7896 61.6087C81.2263 62.0898 81.4447 62.8071 81.2172 63.4153C81.0443 64.0509 80.1072 64.3959 79.4612 64.5048C78.8152 64.6138 78.151 64.4322 77.5777 64.1053C77.0955 63.833 76.6406 63.4063 76.6133 62.8615C76.5951 62.4802 76.7952 62.1171 76.9863 61.7902L76.9954 61.7812Z" fill="#F3986E"/>
<path d="M52.7201 35.0803C53.73 33.5279 55.5498 32.7289 57.2785 32.0571C64.7485 29.1791 72.6189 25.6021 80.5075 26.1559C81.4992 27.781 80.5803 29.9962 79.0881 31.1765C77.5959 32.3567 75.6761 32.8288 73.8927 33.4915C72.1094 34.1543 70.2806 35.1802 69.5436 36.9415C68.7611 38.8117 69.4253 41.0179 68.7338 42.9244C67.5509 46.2019 62.9743 47.255 61.8097 50.5416C60.9271 53.0201 62.3738 55.662 62.7286 58.2767C63.1381 61.2364 62.0371 64.3595 59.8716 66.4113C58.1611 68.0364 55.8227 68.9443 53.4662 68.9897C52.9203 59.5931 52.3834 50.1966 51.8375 40.8C51.7283 38.839 51.6464 36.7327 52.7201 35.0894V35.0803Z" fill="#C5C3E3"/>
<path d="M33.7493 58.8214C35.2324 57.4869 37.0977 56.3429 37.6982 54.4364C38.5625 51.6673 36.3334 48.408 37.771 45.8841C39.0812 43.5781 42.939 43.6961 44.1582 41.3447C45.1136 39.5108 44.0127 37.8857 44.3766 36.2697C44.7406 34.6536 47.0334 33.2373 48.6803 33.4371L61.5458 52.0396C62.7378 58.2767 63.9388 61.5996 62.6013 65.2492C61.8643 67.2557 60.9089 69.1985 60.6178 71.3139C60.3266 73.4293 60.8725 75.8261 62.6013 77.0699C54.9129 77.6691 47.7067 73.6562 41.0465 69.7705C38.699 68.3996 36.3516 67.0287 33.995 65.6578C33.258 65.2311 32.4937 64.7771 32.057 64.0508C31.0197 62.344 32.2753 60.147 33.7584 58.8214H33.7493Z" fill="#C5C3E3"/>
<path d="M33.9859 65.6577C36.3334 67.0286 38.6808 68.3995 41.0374 69.7705C47.6976 73.6562 54.9038 77.669 62.5922 77.0698C60.8634 75.8169 60.3175 73.4292 60.6087 71.3139C60.8998 69.1985 61.8552 67.2465 62.5922 65.2492C63.9388 61.5995 62.7378 58.2767 61.5367 52.0395C61.5549 51.5402 61.6368 51.0409 61.8097 50.5506C62.9743 47.2731 67.551 46.2109 68.7338 42.9335C69.4253 41.0269 68.7611 38.8208 69.5436 36.9505C70.2806 35.1983 72.1094 34.1724 73.8928 33.5006C75.6761 32.8378 77.5959 32.3657 79.0881 31.1855C80.371 30.1687 81.2263 28.3892 80.8169 26.873" stroke="#320F0F" stroke-linecap="round" stroke-linejoin="round"/>
<path d="M83.6648 75.4356C85.6119 75.2631 87.5317 74.8818 89.3969 74.2917C91.1257 73.747 92.8635 72.9753 94.0009 71.5681C95.1291 70.1609 95.4385 67.9547 94.2738 66.5747C95.302 67.8911 96.3301 69.2076 97.3492 70.5149C101.362 69.9793 105.22 68.3088 108.349 65.7485C105.674 66.0845 102.899 64.1598 102.299 61.536C101.662 58.7397 103.154 55.3987 101.371 53.1562C99.8513 51.2497 96.7487 51.3042 95.1655 49.4521C93.5641 47.5818 94.2465 44.7765 94.4376 42.3252C94.7561 38.2216 93.3094 34.0272 90.6162 30.9222C90.2158 30.3139 89.861 29.6966 89.6335 29.0066C89.1422 27.4995 89.3332 25.8653 89.0785 24.3038C88.5598 21.0989 86.1305 18.4116 83.2098 16.9772C80.2891 15.5427 76.9317 15.234 73.6835 15.4338C70.5171 15.6244 67.1961 16.378 64.9397 18.6113C63.3565 20.1729 62.4557 22.3155 60.8725 23.8771C58.707 26.0015 55.6044 26.755 52.7019 27.6448C49.7994 28.5345 46.7332 29.8418 45.2956 32.5019C44.6587 33.6822 44.4221 34.9532 44.3766 36.2696C44.2401 36.887 44.3129 37.5134 44.4039 38.149C44.4403 38.7754 44.4858 39.4018 44.5313 40.0283C44.4949 40.455 44.3857 40.8908 44.1491 41.3447C42.9299 43.6961 39.0721 43.5781 37.7619 45.8841C36.3243 48.408 38.5535 51.6673 37.6891 54.4363C37.0977 56.3429 35.2324 57.4868 33.7402 58.8214C32.2572 60.156 31.0015 62.344 32.0388 64.0508C32.4755 64.7771 33.2398 65.2311 33.9768 65.6578C36.3243 67.0287 38.6717 68.3996 41.0283 69.7705C47.0243 73.2658 53.4571 76.8701 60.2993 77.1152" stroke="#320F0F" stroke-linecap="round" stroke-linejoin="round"/>
<path d="M30.583 54.6633C30.583 54.6633 30.4283 54.8539 30.3282 55.2897C30.2281 55.7255 30.2372 56.4337 30.6558 57.1963C30.8741 57.5685 31.1835 57.9498 31.6384 58.2313C32.0934 58.5036 32.6666 58.6761 33.2853 58.6671C34.5136 58.6761 35.9512 57.9407 36.6518 56.5335C37.0067 55.8435 37.1977 55.0355 37.1977 54.1912C37.1977 53.3469 36.9794 52.4844 36.6609 51.6582C36.0513 49.9968 34.9413 48.3808 34.9231 46.4379C34.9049 45.4937 35.1232 44.4769 35.8147 43.796C36.4971 43.106 37.5617 42.9335 38.608 42.9244C39.6635 42.8881 40.8099 43.0243 41.9381 42.5794C42.4932 42.3524 42.9936 41.9439 43.3029 41.4264C43.6214 40.9089 43.7943 40.3188 43.8671 39.7377C44.0126 38.5393 43.7306 37.4045 43.585 36.3241C43.4121 35.2437 43.4849 34.1724 43.767 33.1647C44.3311 31.1492 45.6868 29.4514 47.3428 28.48C49.0078 27.4813 50.9367 27.3724 52.6746 27.2634C54.4215 27.1726 56.1139 27.0637 57.5424 26.5008C58.9709 25.9652 60.1173 25.1662 60.9908 24.34C61.8734 23.5139 62.4648 22.6514 62.8742 21.9251C63.6931 20.4362 63.7932 19.492 63.7932 19.492C63.7386 19.4738 63.5748 20.4089 62.7286 21.8434C62.301 22.5515 61.6914 23.3777 60.8179 24.1676C59.9535 24.9574 58.8253 25.72 57.4332 26.2194C56.0502 26.7459 54.4124 26.8367 52.6564 26.9094C50.9185 27.0001 48.9168 27.0818 47.1335 28.135C45.3774 29.1518 43.9399 30.9313 43.3393 33.0557C43.0391 34.1179 42.9663 35.28 43.1392 36.3967C43.2847 37.5043 43.5486 38.6119 43.4121 39.6923C43.3029 40.7727 42.7388 41.8077 41.7562 42.1799C40.7826 42.5703 39.6726 42.4614 38.5898 42.4977C37.5253 42.5068 36.3152 42.6793 35.5054 43.5054C34.6956 44.3134 34.4772 45.4483 34.5045 46.456C34.5227 47.4819 34.8321 48.4534 35.2051 49.3159C35.5782 50.1874 35.9967 50.9955 36.3061 51.8035C36.6245 52.6024 36.8338 53.4195 36.852 54.2094C36.852 54.9992 36.6882 55.7618 36.3697 56.4064C35.7328 57.7229 34.4226 58.4219 33.2762 58.431C32.703 58.4492 32.1662 58.3039 31.7476 58.0588C31.32 57.8136 31.0197 57.4596 30.8013 57.1237C30.3828 56.4155 30.3373 55.7437 30.4101 55.326C30.4738 54.8993 30.6012 54.6905 30.5739 54.6815L30.583 54.6633Z" fill="#A2A0D0"/>
<path d="M111.634 59.2481C111.561 59.2481 112.053 59.9835 111.607 61.2546C111.388 61.8538 110.888 62.5801 110.005 62.8706C109.15 63.1611 107.967 62.9341 107.185 62.0989C106.794 61.6903 106.566 61.1184 106.521 60.4919C106.475 59.8655 106.603 59.2027 106.812 58.5491C107.221 57.2508 108.049 55.8345 107.922 54.1458C107.831 52.5026 106.994 50.823 105.583 49.7063C104.883 49.1434 104.064 48.7167 103.191 48.4443C102.308 48.1629 101.371 48.0993 100.452 48.054C99.5329 48.0086 98.6321 47.9813 97.795 47.7725C96.9579 47.5728 96.2027 47.1461 95.7296 46.4924C95.2474 45.8387 95.0381 45.0216 94.9835 44.2227C94.9289 43.4147 95.0199 42.6248 95.1837 41.8531C95.5021 40.3188 95.9571 38.8299 95.8752 37.3591C95.8024 35.9065 95.2474 34.6082 94.5013 33.6277C93.7552 32.629 92.7907 32.0208 91.9992 31.5124C91.1894 31.0039 90.4979 30.5682 89.9974 30.1324C88.9693 29.2699 88.7964 28.48 88.7327 28.5163C88.7327 28.5163 88.7327 28.5617 88.7691 28.6525C88.8055 28.7342 88.8328 28.8704 88.9238 29.0248C89.0785 29.3516 89.3787 29.7965 89.8792 30.2595C90.3796 30.7316 91.0711 31.1946 91.8627 31.7212C92.6543 32.2477 93.5641 32.856 94.2556 33.8093C94.9471 34.7535 95.4567 35.9882 95.5112 37.3682C95.5749 38.7482 95.12 40.1917 94.7925 41.7623C94.6287 42.5431 94.5104 43.3874 94.5741 44.2408C94.6287 45.0943 94.847 45.9931 95.393 46.7375C95.9389 47.4911 96.8124 47.9813 97.7131 48.1901C98.6139 48.408 99.542 48.4353 100.461 48.4807C101.371 48.5261 102.262 48.5896 103.09 48.8529C103.918 49.1071 104.692 49.5066 105.347 50.0331C106.666 51.0681 107.449 52.6297 107.549 54.1549C107.685 55.7074 106.912 57.0601 106.493 58.422C106.284 59.1119 106.157 59.811 106.211 60.501C106.266 61.1819 106.539 61.8447 106.985 62.2986C107.885 63.2156 109.177 63.4335 110.124 63.0885C111.088 62.7344 111.598 61.9355 111.807 61.2909C112.025 60.6281 111.962 60.0743 111.88 59.7293C111.78 59.3843 111.671 59.23 111.671 59.23L111.634 59.2481Z" fill="#A2A0D0"/>
<path d="M97.5675 161.684C97.5675 161.684 109.769 210.02 117.639 258.02C124.108 297.494 126.974 340.228 126.974 340.228L107.922 341.345C107.922 341.345 96.3119 292.392 87.2769 257.203C78.9425 224.746 72.164 207.723 72.164 207.723L65.7494 160.132L97.5675 161.693V161.684Z" fill="#263239"/>
<path d="M47.9069 160.114C47.9069 160.114 31.2017 182.647 32.6029 206.18C33.44 220.252 60.2902 340.228 60.2902 340.228H80.0252L73.5106 211.89L79.2428 168.403L47.9069 160.123V160.114Z" fill="#263239"/>
<path d="M122.261 72.4941L119.25 83.5793L118.067 85.4858C118.067 85.4858 117.321 91.5868 117.33 92.8851C117.339 94.1833 119.441 100.82 119.441 100.82L116.065 107.057L126.711 110.389C126.711 110.389 129.185 104.733 129.922 104.061C130.669 103.389 131.123 101.583 131.233 100.366C131.342 99.1495 132.452 91.9318 132.452 91.9318C132.452 91.9318 136.564 83.7881 134.617 83.5067C134.172 83.4431 133.171 83.6247 133.171 83.6247C133.171 83.6247 130.723 88.9721 129.986 89.1264L128.894 88.5817C128.894 88.5817 130.559 80.5379 130.578 79.058C130.596 77.5691 130.223 76.5523 129.067 76.4524C129.067 76.4524 128.23 76.8519 128.175 77.2332C128.121 77.6145 126.52 86.5662 126.019 86.4391C125.519 86.3029 125.701 85.4858 125.701 85.4858C125.701 85.4858 127.903 74.6094 127.73 74.0011C127.557 73.3929 126.974 72.4668 125.91 72.6393L124.081 78.6495C124.081 78.6495 124.8 73.638 123.945 72.8118C123.089 71.9766 122.234 72.5031 122.234 72.5031L122.261 72.4941Z" fill="#FDE0C5"/>
<path d="M122.261 72.4941L119.25 83.5793L118.067 85.4858C118.067 85.4858 117.321 91.5868 117.33 92.8851C117.339 94.1833 119.441 100.82 119.441 100.82L116.065 107.057L126.711 110.389C126.711 110.389 129.185 104.733 129.922 104.061C130.669 103.389 131.123 101.583 131.233 100.366C131.342 99.1495 132.452 91.9318 132.452 91.9318C132.452 91.9318 136.564 83.7881 134.617 83.5067C134.172 83.4431 133.171 83.6247 133.171 83.6247C133.171 83.6247 130.723 88.9721 129.986 89.1264L128.894 88.5817C128.894 88.5817 130.559 80.5379 130.578 79.058C130.596 77.5691 130.223 76.5523 129.067 76.4524C129.067 76.4524 128.23 76.8519 128.175 77.2332C128.121 77.6145 126.52 86.5662 126.019 86.4391C125.519 86.3029 125.701 85.4858 125.701 85.4858C125.701 85.4858 127.903 74.6094 127.73 74.0011C127.557 73.3929 126.974 72.4668 125.91 72.6393L124.081 78.6495C124.081 78.6495 124.8 73.638 123.945 72.8118C123.089 71.9766 122.234 72.5031 122.234 72.5031L122.261 72.4941Z" stroke="#320F0F" stroke-linecap="round" stroke-linejoin="round"/>
<path d="M125.983 96.3714C125.892 96.3714 125.901 95.4454 125.455 94.0019C125.009 92.5856 123.926 90.5882 121.916 89.2083L121.77 89.1084L121.797 88.945C121.925 88.146 122.07 87.3108 122.207 86.4483V86.3938L122.243 86.3484C122.407 86.0851 122.58 85.7765 122.734 85.4587C123.253 84.4056 123.626 83.307 123.735 82.2539C123.781 81.7364 123.781 81.2189 123.626 80.7922C123.49 80.3655 123.126 80.0659 122.789 80.0387L122.962 79.966C121.797 81.228 120.815 82.272 120.114 82.9893C119.413 83.7065 119.004 84.0969 118.968 84.0696C118.931 84.0333 119.277 83.5794 119.914 82.8168C120.551 82.0451 121.479 80.9647 122.616 79.6664L122.689 79.5847H122.789C123.408 79.612 123.899 80.084 124.099 80.6288C124.309 81.1735 124.318 81.7455 124.272 82.3174C124.172 83.4614 123.781 84.6144 123.235 85.7129C123.071 86.0398 122.898 86.3575 122.716 86.6571L122.753 86.5572C122.607 87.4197 122.461 88.255 122.325 89.0448L122.207 88.7816C124.381 90.3068 125.409 92.4222 125.792 93.9292C125.983 94.6919 126.046 95.3183 126.046 95.7359C126.046 96.1626 126.037 96.3896 126.001 96.3896L125.983 96.3714Z" fill="#320F0F"/>
<path d="M125.428 87.5922C125.464 87.456 127.075 87.8192 128.821 88.8179C130.578 89.8165 131.697 91.024 131.597 91.1239C131.487 91.2419 130.241 90.2523 128.549 89.29C126.865 88.3185 125.382 87.7375 125.428 87.5831V87.5922Z" fill="#320F0F"/>
<path d="M99.1871 99.4671C99.1871 99.4671 99.2326 99.7032 99.278 100.166C99.3144 100.684 99.369 101.346 99.4236 102.173C99.5601 103.916 99.6511 106.449 99.7148 109.581C99.8331 115.836 99.5419 124.488 98.9141 134.012C98.2863 143.536 97.7495 152.151 97.6312 158.398C97.5584 161.521 97.5402 164.054 97.5584 165.797C97.5584 166.623 97.5584 167.295 97.5584 167.812C97.5584 168.275 97.5402 168.512 97.522 168.512C97.5038 168.512 97.4765 168.275 97.4492 167.812C97.4219 167.295 97.3855 166.632 97.3491 165.797C97.2581 164.045 97.2217 161.512 97.249 158.389C97.2672 152.124 97.7495 143.49 98.3773 133.967C99.0051 124.452 99.3599 115.827 99.3417 109.572C99.3326 106.449 99.2962 103.916 99.2326 102.173C99.2144 101.346 99.1962 100.675 99.1871 100.157C99.1871 99.6941 99.1871 99.4581 99.2053 99.449L99.1871 99.4671Z" fill="#263239"/>
<path d="M114.8 103.716L110.788 118.505L103.045 91.977C102.108 88.981 99.824 86.6568 96.9306 85.758L90.6889 84.3508L97.5948 137.426L99.1416 141.411C100.315 144.026 102.281 145.787 104.555 146.822C111.024 149.746 119.186 146.513 120.887 139.641L129.822 107.856L114.81 103.734L114.8 103.716Z" fill="#B8DBBB"/>
<path d="M49.1443 101.292L53.9757 161.684L93.6096 162.011L97.3401 165.797L96.2846 117.243L82.5456 82.6623C80.9078 85.7582 77.7779 86.8022 74.0019 86.5117C71.427 86.312 66.7503 85.8399 64.6485 84.3328L59.2529 79.2759L49.1352 101.283L49.1443 101.292Z" fill="white"/>
<path d="M49.1443 101.292L53.9757 161.684L93.6096 162.011L97.3401 165.797L96.2846 117.243L82.5456 82.6623C80.9078 85.7582 77.7779 86.8022 74.0019 86.5117C71.427 86.312 66.7503 85.8399 64.6485 84.3328L59.2529 79.2759L49.1352 101.283L49.1443 101.292Z" stroke="#320F0F" stroke-linecap="round" stroke-linejoin="round"/>
<path d="M59.0437 76.416L54.8674 81.3458L34.0132 89.5621L46.8241 151.371L37.0704 175.293C36.0422 177.808 35.1869 180.396 34.5136 183.029L28.5085 206.488C28.5085 206.488 52.7383 216.148 58.061 213.079C63.3838 210.011 69.125 177.481 71.0994 170.4C73.0739 163.318 73.2649 140.903 71.8819 129.691C70.4989 118.469 68.1333 101.946 66.9504 96.2351C65.7676 90.5245 59.0437 76.416 59.0437 76.416Z" fill="#B8DBBB"/>
<path d="M82.5729 78.2136L85.5845 82.8711L98.1498 86.0396C98.1498 86.0396 101.453 102.554 101.453 107.084C101.453 111.615 99.5783 161.784 99.5783 164.145C99.5783 166.505 108.65 198.581 107.858 200.551C107.067 202.521 97.6039 203.892 97.6039 203.892C97.6039 203.892 94.0554 176.147 94.0554 166.696C94.0554 157.245 93.6642 134.03 91.6898 122.618C89.7154 111.206 82.6184 82.8711 82.6184 82.8711L82.5638 78.2136H82.5729Z" fill="#B8DBBB"/>
<path d="M101.143 100.193C101.143 100.193 101.189 100.411 101.225 100.838C101.262 101.31 101.307 101.927 101.362 102.699C101.489 104.315 101.571 106.648 101.626 109.545C101.735 115.328 101.462 123.317 100.879 132.114C100.306 140.912 99.8058 148.874 99.6875 154.648C99.6238 157.535 99.6056 159.868 99.6238 161.484C99.6238 162.247 99.6238 162.864 99.6238 163.346C99.6238 163.772 99.6056 163.999 99.5874 163.999C99.5692 163.999 99.551 163.781 99.5237 163.355C99.4964 162.873 99.4691 162.265 99.4327 161.494C99.3509 159.878 99.3236 157.535 99.3418 154.648C99.36 148.865 99.8058 140.885 100.379 132.087C100.961 123.29 101.28 115.319 101.271 109.554C101.262 106.667 101.234 104.333 101.171 102.717C101.152 101.955 101.134 101.337 101.125 100.856C101.125 100.429 101.125 100.202 101.143 100.202V100.193Z" fill="#263239"/>
<path d="M67.0824 173.212L10.0653 182.64C8.72179 182.863 7.81319 184.129 8.03584 185.47L14.507 224.431C14.7296 225.772 15.9992 226.679 17.3427 226.456L74.3599 217.028C75.7033 216.806 76.6119 215.539 76.3893 214.198L69.9181 175.237C69.6955 173.896 68.4259 172.99 67.0824 173.212Z" fill="#E0E0E0"/>
<path d="M34.0223 89.5623C34.0223 89.5623 28.6449 96.2443 27.1164 102.663C24.5414 113.512 18.7729 148.447 19.3643 155.384C19.9557 162.32 24.8417 202.121 24.8417 202.121L42.6205 198.09L39.4087 152.669L44.4494 123.29" fill="#B8DBBB"/>
<path d="M114.8 103.716L110.788 118.506L103.045 91.9773C102.253 89.4443 100.488 87.3925 98.2044 86.2758C98.1771 86.1305 98.1589 86.0488 98.1589 86.0488L85.5936 82.8803L82.582 78.2229L82.6366 82.8803C82.6366 82.8803 89.7335 111.215 91.708 122.627C93.6824 134.039 94.0736 157.263 94.0736 166.705C94.0736 176.147 97.6221 203.901 97.6221 203.901C97.6221 203.901 107.085 202.521 107.876 200.56C108.668 198.59 99.5965 166.514 99.5965 164.154C99.5965 163.182 99.915 154.058 100.288 143.372C101.425 144.934 102.908 146.069 104.555 146.813C111.024 149.737 119.186 146.505 120.887 139.632L129.822 107.847L114.81 103.725L114.8 103.716Z" stroke="#320F0F" stroke-linecap="round" stroke-linejoin="round"/>
<path d="M66.9595 96.2443C65.7767 90.5338 59.0528 76.4253 59.0528 76.4253L54.8765 81.3551L34.0223 89.5714C34.0223 89.5714 28.6449 96.2534 27.1164 102.672C24.5414 113.521 18.7729 148.457 19.3643 155.393C19.9557 162.329 24.8417 202.131 24.8417 202.131L29.9188 200.978L28.5085 206.488C28.5085 206.488 52.7383 216.148 58.061 213.08C63.3837 210.011 69.125 177.482 71.0994 170.4C73.0738 163.319 73.2649 140.903 71.8819 129.691C70.4989 118.469 68.1333 101.946 66.9504 96.2353L66.9595 96.2443ZM40.4368 167.068L39.4178 152.678L42.9026 132.378L46.8423 151.371L40.4459 167.068H40.4368Z" stroke="#320F0F" stroke-linecap="round" stroke-linejoin="round"/>
<path d="M148.456 45.9023L146.609 45.1125C145.536 44.6494 145.026 43.4238 145.463 42.3434L149.057 33.4189" stroke="#320F0F" stroke-linecap="round" stroke-linejoin="round"/>
<path d="M150.34 49.434C150.34 49.434 154.898 50.0242 155.499 45.8933" stroke="#320F0F" stroke-linecap="round" stroke-linejoin="round"/>
<path opacity="0.5" d="M131.87 22.0342C131.87 22.0342 139.922 25.575 144.426 18.1031C148.93 10.6312 154.898 3.4862 160.53 10.5495" stroke="white" stroke-width="0.75" stroke-linecap="round" stroke-linejoin="round"/>
<path d="M144.089 74.2738L147.856 83.7975L151.213 75.2997L153.224 83.7975L172.832 72.5034" stroke="#320F0F" stroke-linecap="round" stroke-linejoin="round"/>
<path d="M151.177 86.3757L148.038 179.969" stroke="#320F0F" stroke-linecap="round" stroke-linejoin="round"/>
<path d="M187.499 145.515L184.542 144.471L183.477 135.846L202.967 135.274" stroke="#320F0F" stroke-linecap="round" stroke-linejoin="round"/>
<path d="M183.477 135.274L179.037 98.251" stroke="#320F0F" stroke-linecap="round" stroke-linejoin="round"/>
<path d="M80.6258 50.9138L82.2453 53.3288C82.6093 53.8735 82.4091 54.618 81.8177 54.8994L79.8069 55.8618" stroke="#320F0F" stroke-linecap="round" stroke-linejoin="round"/>
<path d="M74.5569 61.0549C74.5569 61.0549 78.7241 63.4245 83.5192 61.9174" stroke="#320F0F" stroke-linecap="round" stroke-linejoin="round"/>
<path d="M74.0383 21.5713C74.0383 21.5713 56.8872 29.0432 57.4605 39.0752C58.3885 55.2719 51.7556 59.0577 45.4593 60.6737" stroke="#A2A0D0" stroke-miterlimit="10"/>
<path d="M54.8037 84.342C54.8037 84.342 54.2942 98.4505 58.8526 104.933C63.4111 111.415 67.2234 121.956 68.1242 124.743C69.0249 127.53 70.0076 155.347 70.0076 155.347" stroke="#320F0F" stroke-linecap="round" stroke-linejoin="round"/>
<path d="M88.0048 83.4795L93.1273 99.4673L95.2473 129.191" stroke="#320F0F" stroke-linecap="round" stroke-linejoin="round"/>
<path d="M35.478 91.1331C35.478 91.1331 41.7925 108.928 43.1209 116.109C44.4493 123.29 43.1209 127.566 43.1209 127.566" stroke="#320F0F" stroke-linecap="round" stroke-linejoin="round"/>
<path d="M40.4277 167.068L42.6205 198.1L29.9279 200.978" stroke="#320F0F" stroke-linecap="round" stroke-linejoin="round"/>
</g>
<defs>
<clipPath id="clip0_15_988">
<rect width="216" height="135" fill="white" transform="translate(0 42)"/>
</clipPath>
</defs>
</svg>
