<svg width="227" height="220" viewBox="0 0 227 220" fill="none" xmlns="http://www.w3.org/2000/svg">
<g opacity="0.5" clip-path="url(#clip0_15_492)">
<mask id="mask0_15_492" style="mask-type:luminance" maskUnits="userSpaceOnUse" x="0" y="15" width="227" height="162">
<path d="M227 15H0V177H227V15Z" fill="white"/>
</mask>
<g mask="url(#mask0_15_492)">
<path d="M216.287 97.701L7.36401 98.4494L7.41288 30.646L217.451 27.7429L216.287 97.701ZM12.7333 94.5744L211.039 93.7255L212.117 31.7605L12.6327 34.4854L12.7304 94.5744H12.7333Z" stroke="white" stroke-miterlimit="10"/>
<path d="M190.944 93.2882V91.3118C190.944 90.1907 191.752 89.2803 192.747 89.2803H200.206C201.2 89.2803 202.008 90.1907 202.008 91.3118V93.4469L190.944 93.2882Z" fill="white"/>
<path d="M47.6563 126.424L43.6265 130.892L41.7985 130.451L45.5351 126.427" stroke="white" stroke-miterlimit="10"/>
<path d="M45.2074 126.783L41.7985 130.451L42.4682 130.577L46.3112 126.492" stroke="white" stroke-miterlimit="10"/>
<path d="M43.135 133.626L43.6265 151.761H44.1209H44.8337L45.5466 133.124L43.135 133.626Z" stroke="white" stroke-miterlimit="10"/>
<path d="M32.4655 136.021L31.4796 135.839L31.9711 152.512H32.4655H33.1783L33.8912 135.765L32.4655 136.021Z" stroke="white" stroke-miterlimit="10"/>
<path d="M21.3706 132.748L20.6578 150.818H19.9449V132.278L21.3706 132.748Z" stroke="white" stroke-miterlimit="10"/>
<path d="M19.9449 150.818V132.149L18.959 131.909L19.4534 150.818H19.9449Z" stroke="white" stroke-miterlimit="10"/>
<path d="M29.6257 124.642V120.067H30.7582L30.9824 124.499" stroke="white" stroke-miterlimit="10"/>
<path d="M31.1893 127.619L31.3215 129.984H29.6257V127.337" stroke="white" stroke-miterlimit="10"/>
<path d="M21.8046 120.805L22.368 130.892H20.6721V120.805H21.8046Z" stroke="white" stroke-miterlimit="10"/>
<path d="M20.6693 120.805H20.1634V130.892H20.6693V120.805Z" stroke="white" stroke-miterlimit="10"/>
<path d="M15.5673 105.843L15.004 106.533L16.4814 121.23L33.6699 119.817L34.2332 119.13V107.275L15.5673 105.843Z" stroke="white" stroke-miterlimit="10"/>
<path d="M29.5366 129.476L22.4083 130.143" stroke="white" stroke-miterlimit="10"/>
<path d="M20.0858 130.396L17.154 130.72V131.413L32.2155 136.072L48.214 132.525V131.786L34.124 128.857L31.2756 129.168" stroke="white" stroke-miterlimit="10"/>
<path d="M45.17 126.66L34.397 128.27L22.9199 125.944V125.296" stroke="white" stroke-miterlimit="10"/>
<path d="M45.2708 126.647L45.17 126.66" stroke="white" stroke-miterlimit="10"/>
<path d="M51.4706 124.914V125.721L45.2706 126.647" stroke="white" stroke-miterlimit="10"/>
<path d="M51.4706 124.914L34.3798 127.383L22.9199 125.296L35.4749 124.055L40.7551 124.901L47.5931 124.389L51.4706 124.914Z" stroke="white" stroke-linecap="round" stroke-linejoin="round"/>
<path d="M173.808 130.516L177.837 134.981L179.666 134.54L175.929 130.516" stroke="white" stroke-miterlimit="10"/>
<path d="M176.259 130.872L179.666 134.54L178.996 134.666L175.153 130.581" stroke="white" stroke-miterlimit="10"/>
<path d="M178.329 137.718L177.838 155.853H177.343H176.63L175.92 137.213L178.329 137.718Z" stroke="white" stroke-miterlimit="10"/>
<path d="M188.999 140.109L189.987 139.928L189.493 156.601H188.999H188.289L187.576 139.854L188.999 140.109Z" stroke="white" stroke-miterlimit="10"/>
<path d="M200.093 136.84L200.806 154.91H201.519V136.367L200.093 136.84Z" stroke="white" stroke-miterlimit="10"/>
<path d="M201.519 154.91V136.238L202.505 135.998L202.013 154.91H201.519Z" stroke="white" stroke-miterlimit="10"/>
<path d="M191.838 128.731V124.156H190.706L190.482 128.588" stroke="white" stroke-miterlimit="10"/>
<path d="M190.278 131.711L190.143 134.073H191.838V131.426" stroke="white" stroke-miterlimit="10"/>
<path d="M199.659 124.894L199.096 134.98H200.795V124.894H199.659Z" stroke="white" stroke-miterlimit="10"/>
<path d="M201.301 124.894H200.795V134.98H201.301V124.894Z" stroke="white" stroke-miterlimit="10"/>
<path d="M205.897 109.935L206.46 110.622L204.983 125.319L187.794 123.906L187.231 123.219V111.364L205.897 109.935Z" stroke="white" stroke-miterlimit="10"/>
<path d="M191.927 133.565L199.056 134.232" stroke="white" stroke-miterlimit="10"/>
<path d="M201.378 134.485L204.31 134.809V135.502L189.251 140.161L173.25 136.617V135.875L187.34 132.946L190.188 133.257" stroke="white" stroke-miterlimit="10"/>
<path d="M176.297 130.752L187.07 132.363L198.544 130.033V129.385" stroke="white" stroke-miterlimit="10"/>
<path d="M176.193 130.736L176.297 130.752" stroke="white" stroke-miterlimit="10"/>
<path d="M169.993 129.003V129.809L176.193 130.736" stroke="white" stroke-miterlimit="10"/>
<path d="M169.993 129.003L187.084 131.472L198.544 129.385L185.989 128.144L180.709 128.99L173.871 128.478L169.993 129.003Z" stroke="white" stroke-linecap="round" stroke-linejoin="round"/>
</g>
</g>
<mask id="mask1_15_492" style="mask-type:luminance" maskUnits="userSpaceOnUse" x="17" y="0" width="168" height="170">
<path d="M184.894 0H17V169.618H184.894V0Z" fill="white"/>
</mask>
<g mask="url(#mask1_15_492)">
<path d="M145.972 16.3302C147.85 15.8013 149.951 15.7271 152.079 16.2374C158.8 17.8519 165.029 20.9508 165.921 28.9488C158.364 26.49 151.382 22.222 145.972 16.3302Z" fill="#CD7659"/>
<path d="M145.972 16.3301C151.382 22.2219 158.364 26.4899 165.921 28.9487C165.949 29.1992 165.986 29.4497 166.005 29.7095C166.563 38.2828 160.204 40.0642 160.204 40.0642C146.818 40.2869 140.013 31.3796 139.233 25.2559C138.693 21.0064 141.742 17.5177 145.972 16.3301Z" fill="#BF674F"/>
<path d="M145.972 16.3302C147.85 15.8013 149.951 15.7271 152.08 16.2374C158.801 17.8519 165.029 20.9508 165.921 28.9488C165.949 29.1993 165.986 29.4498 166.005 29.7096C166.563 38.2829 160.204 40.0643 160.204 40.0643C146.818 40.287 140.013 31.3797 139.233 25.256C138.693 21.0065 141.742 17.5178 145.972 16.3302Z" stroke="#320F0F" stroke-linecap="round" stroke-linejoin="round"/>
<path d="M169.528 56.0418C169.556 64.4759 165.698 65.9604 164.88 68.1687C148.845 61.3305 128.951 54.4367 124.554 37.6428C125.14 36.4366 125.605 35.1654 125.939 33.8479C139.474 43.2655 153.883 50.549 169.519 56.0418H169.528Z" fill="#BF674F"/>
<path d="M124.526 32.8457C125 33.1797 125.474 33.523 125.949 33.8478C125.614 35.1653 125.14 36.4272 124.563 37.6426C124.201 36.2694 123.959 34.822 123.82 33.3096C124.062 33.1519 124.294 33.0034 124.536 32.8457H124.526Z" fill="#BF674F"/>
<path d="M123.718 32.2798C123.987 32.4746 124.257 32.6602 124.517 32.8458C124.285 33.0035 124.043 33.152 123.801 33.3097C123.773 32.9664 123.727 32.6324 123.708 32.2798H123.718Z" fill="#CD7659"/>
<path d="M123.811 33.3096C123.95 34.8219 124.201 36.2694 124.554 37.6426C120.901 45.223 112.739 50.5767 103.908 52.1169C104.187 49.0643 104.8 45.6498 106.037 41.8921C112.432 40.2127 118.289 36.8725 123.801 33.3096H123.811Z" fill="#BF674F"/>
<path d="M124.526 32.8458C124.257 32.6602 123.987 32.4746 123.727 32.2798C123.745 32.6324 123.792 32.9664 123.82 33.3097C118.307 36.8819 112.451 40.2128 106.055 41.8922C106.176 41.5118 106.297 41.1314 106.436 40.7417C110.006 30.721 119.265 22.9272 139.567 26.7127C139.567 26.7127 164.332 27.7148 168.459 47.1994C169.221 50.7994 169.528 53.6943 169.537 56.0417C153.902 50.5489 139.483 43.2654 125.958 33.8478C126.144 33.1148 126.302 32.3726 126.404 31.6117C125.781 32.02 125.158 32.4375 124.526 32.8458Z" fill="#CD7659"/>
<path d="M126.395 31.6118C126.293 32.3726 126.135 33.1149 125.949 33.8479C125.474 33.5139 125 33.1799 124.526 32.8458C125.158 32.4376 125.781 32.0201 126.404 31.6118H126.395Z" fill="#CD7659"/>
<path d="M149.57 61.5623C154.664 63.9561 159.953 66.0623 164.871 68.1685C164.685 68.6788 164.657 69.2262 164.871 69.9128C166.321 74.3664 173.572 80.0448 171.675 88.0614C169.779 96.0779 167.66 99.1954 167.66 99.1954C167.66 99.1954 163.421 101.088 159.739 101.311L157.843 91.2902L156.951 101.311C156.951 101.311 154.227 101.07 150.053 100.652C147.143 87.7181 145.712 74.0881 149.56 61.5623H149.57Z" fill="#CD7659"/>
<path d="M124.554 37.6426C127.594 49.2777 138.089 56.1623 149.57 61.5716C145.721 74.0974 147.153 87.7273 150.062 100.661C138.48 99.5202 115.714 97.0985 108.993 95.113V88.85L106.873 94.5284L103.332 93.5078C111.14 80.2768 114.124 63.6314 114.384 48.2756C118.791 45.6869 122.435 42.0405 124.563 37.6426H124.554Z" fill="#BF674F"/>
<path d="M101.853 80.3789C104.308 71.8056 104.196 68.2427 103.973 63.3437C103.843 60.5046 103.499 56.7375 103.917 52.1169C107.617 51.4674 111.196 50.1406 114.384 48.2664C114.133 63.6221 111.149 80.2583 103.332 93.4985L100.292 92.6264C100.292 92.6264 99.3993 88.9521 101.853 80.3789Z" fill="#CD7659"/>
<path d="M123.476 39.6004C123.569 39.452 123.662 39.3035 123.755 39.1551M109.169 50.7067C109.337 50.6417 109.513 50.5768 109.681 50.5118M107.636 51.217C107.868 51.1427 108.11 51.0685 108.342 50.9943M103.917 52.117C103.499 56.7283 103.852 60.5046 103.973 63.3438C104.196 68.2428 104.308 71.8057 101.853 80.379C99.3993 88.9522 100.292 92.6264 100.292 92.6264L103.332 93.4986L106.873 94.5192L108.993 88.8409V95.1038C115.714 97.0894 138.48 99.511 150.062 100.652C154.236 101.061 156.96 101.311 156.96 101.311L157.852 91.2904L159.749 101.311C163.43 101.088 167.669 99.1956 167.669 99.1956C167.669 99.1956 169.788 96.078 171.685 88.0615C173.581 80.0449 166.33 74.3666 164.88 69.9129C164.657 69.2263 164.685 68.6789 164.88 68.1686C165.698 65.9603 169.556 64.4665 169.528 56.0417C169.528 53.685 169.212 50.7994 168.45 47.1994C164.322 27.7148 139.558 26.7127 139.558 26.7127C119.255 22.9272 109.997 30.721 106.427 40.7417C106.288 41.1314 106.167 41.5118 106.046 41.8922C104.81 45.6592 104.196 49.0737 103.917 52.117ZM149.551 61.5531C149.551 61.5531 149.597 61.5717 149.625 61.5902C149.607 61.5902 149.597 61.5809 149.579 61.5717C149.57 61.5717 149.56 61.5624 149.551 61.5531ZM120.222 43.7386C120.315 43.6365 120.408 43.5345 120.51 43.4417C120.417 43.5437 120.325 43.6458 120.222 43.7386ZM122.472 41.085C122.583 40.9272 122.704 40.7788 122.816 40.621C122.704 40.7788 122.593 40.9365 122.472 41.085ZM121.394 42.4489C121.514 42.3097 121.626 42.1705 121.738 42.0314C121.626 42.1705 121.505 42.3097 121.394 42.4489ZM119.051 44.8613C119.051 44.8613 118.995 44.9077 118.967 44.9355C118.995 44.9077 119.023 44.8891 119.051 44.8613ZM110.638 50.1407C110.638 50.1407 110.703 50.1128 110.74 50.0943C110.703 50.1036 110.675 50.1221 110.638 50.1407Z" stroke="#320F0F" stroke-linecap="round" stroke-linejoin="round"/>
<path d="M102.039 156.647L135.17 159.654C135.17 159.654 138.108 167.661 140.701 175.919C127.362 169.962 112.488 166.761 97.8841 165.072C100.208 160.09 102.039 156.647 102.039 156.647Z" fill="#DC4E27"/>
<path d="M97.8841 165.072C112.488 166.761 127.362 169.952 140.701 175.918C142.133 180.465 143.462 185.095 144.131 188.491C146.028 198.066 142.458 218.887 142.458 218.887H88.4673C88.4673 218.887 86.9056 205.526 88.4673 192.388C89.4155 184.371 94.2587 172.847 97.8841 165.072Z" fill="#E96033"/>
<path d="M89.8989 114.394L96.9917 127.003C96.9917 127.003 95.5137 130.464 93.3105 134.704C90.1685 129.926 88.5138 124.451 87.6865 118.782L89.8989 114.394Z" fill="#F3A381"/>
<path d="M72.7385 116.119C73.2126 107.982 73.4079 107.435 73.4079 107.435C73.4079 107.435 71.8461 101.645 75.6389 99.5295C75.6389 99.5295 73.1848 91.513 75.4158 89.7316C77.6468 87.9501 77.7584 98.7502 77.7584 98.7502C77.7584 98.7502 79.4316 89.2213 80.9934 89.5367C82.5551 89.8429 79.9894 99.9749 79.9894 99.9749C79.9894 99.9749 82.6666 100.086 82.4435 105.097C82.2204 110.107 83.1128 127.81 83.1128 127.81L87.6771 118.773C88.5045 124.442 90.1592 129.916 93.3012 134.695C89.8338 141.366 84.5444 149.985 80.3148 150.19C73.3986 150.524 71.8368 132.486 72.7293 116.119H72.7385Z" fill="#F7B290"/>
<path d="M137.438 102.87C137.438 102.87 150.155 105.542 154.283 113.558C158.41 121.575 160.864 134.379 160.864 134.379C160.864 134.379 155.956 140.614 144.131 142.952C144.131 142.952 140.673 149.967 140.562 153.084C140.45 156.202 139.669 160.21 137.438 161.435C135.207 162.66 132.084 160.433 125.391 160.099C118.698 159.765 106.985 157.427 103.638 157.204C100.292 156.981 97.2799 150.746 96.1643 144.845C95.0488 138.944 96.8336 128.478 97.2799 127.699C97.7261 126.919 92.26 123.579 89.4713 112.89C89.4713 112.89 94.0449 102.313 98.8416 98.8615C103.638 95.41 106.985 94.6306 112.897 96.078C118.809 97.5254 137.438 102.87 137.438 102.87Z" fill="#FFE984"/>
<path d="M137.438 102.87C137.438 102.87 150.155 105.542 154.283 113.558C158.41 121.575 160.864 134.379 160.864 134.379C160.864 134.379 155.956 140.614 144.131 142.952C144.131 142.952 140.673 149.967 140.562 153.084C140.45 156.202 139.669 160.21 137.438 161.435C135.207 162.66 132.084 160.433 125.391 160.099C118.698 159.765 106.985 157.427 103.638 157.204C100.292 156.981 97.2799 150.746 96.1643 144.845C95.0488 138.944 96.8336 128.478 97.2799 127.699C97.7261 126.919 92.26 123.579 89.4713 112.89C89.4713 112.89 94.0449 102.313 98.8416 98.8615C103.638 95.41 106.985 94.6306 112.897 96.078C118.809 97.5254 137.438 102.87 137.438 102.87Z" stroke="#320F0F" stroke-linecap="round" stroke-linejoin="round"/>
<path d="M137.438 102.87C137.438 102.87 134.65 105.319 125.056 102.87C115.463 100.42 112.897 96.078 112.897 96.078C112.897 96.078 116.625 96.1151 118.419 90.4739C122.583 92.5801 127.204 94.0275 131.935 95.0574C132.744 97.9894 134.343 101.051 137.438 102.879V102.87Z" fill="#FAD9B4"/>
<path d="M131.192 87.1893C131.192 87.1893 130.82 91.0027 131.944 95.0481C127.213 94.0182 122.593 92.5801 118.428 90.4646C118.791 89.3141 119.079 87.9223 119.237 86.2522L131.192 87.1893Z" fill="#E8BD95"/>
<path d="M118.419 90.4739C118.781 89.3233 119.07 87.9316 119.228 86.2615L131.182 87.1986C131.182 87.1986 130.81 91.012 131.935 95.0574C132.744 97.9894 134.343 101.051 137.438 102.879C137.438 102.879 134.65 105.329 125.056 102.879C115.463 100.43 112.897 96.0873 112.897 96.0873C112.897 96.0873 116.625 96.1244 118.419 90.4831V90.4739Z" stroke="#320F0F" stroke-linecap="round" stroke-linejoin="round"/>
<path d="M150.936 60.2262C150.936 60.2262 158.856 59.2241 157.741 68.1314C156.625 77.0387 148.928 73.0304 148.928 73.0304C148.928 73.0304 144.568 88.0243 126.506 87.3934C110.666 86.8366 103.081 75.5912 104.754 64.3458C106.427 53.1004 108.323 47.7561 108.323 47.7561C108.323 47.7561 118.14 42.523 123.383 37.4014C123.383 37.4014 140.673 55.9953 150.936 60.2262Z" fill="#FAD9B4"/>
<path d="M150.936 60.2262C150.936 60.2262 158.856 59.2241 157.741 68.1314C156.625 77.0387 148.928 73.0304 148.928 73.0304C148.928 73.0304 144.568 88.0243 126.506 87.3934C110.666 86.8366 103.081 75.5912 104.754 64.3458C106.427 53.1004 108.323 47.7561 108.323 47.7561C108.323 47.7561 118.14 42.523 123.383 37.4014C123.383 37.4014 140.673 55.9953 150.936 60.2262Z" stroke="#320F0F" stroke-linecap="round" stroke-linejoin="round"/>
<path d="M127.957 74.3666C127.957 76.3151 130.606 77.8924 133.869 77.8924C137.132 77.8924 139.781 76.3151 139.781 74.3666C139.781 72.4181 137.132 70.8501 133.869 70.8501C130.606 70.8501 127.957 72.4274 127.957 74.3666Z" fill="#E8BD95"/>
<path d="M106.762 70.0892C106.241 71.7314 108.045 73.7727 110.805 74.6541C113.566 75.5356 116.225 74.9139 116.755 73.2717C117.275 71.6294 115.472 69.5881 112.711 68.7067C109.95 67.8252 107.292 68.4469 106.762 70.0892Z" fill="#E8BD95"/>
<path d="M164.88 159.208C168.227 162.103 189.979 175.13 189.979 175.13C189.979 175.13 200.688 173.014 202.808 175.13C204.927 177.245 197.788 179.249 197.788 179.249C197.788 179.249 207.27 186.041 206.489 187.155C205.708 188.268 197.342 182.256 197.342 182.256C197.342 182.256 203.588 188.602 203.142 190.161C202.696 191.72 194.999 184.037 194.999 184.037C194.999 184.037 199.349 191.831 198.457 192.833C197.592 193.798 192.034 186.542 191.671 186.069L191.652 186.041C191.652 186.041 191.652 186.05 191.671 186.069C191.875 186.338 195.612 191.274 193.772 192.926C191.875 194.614 183.844 184.482 183.844 184.482C183.844 184.482 158.336 171.122 152.07 165.889C147.645 162.186 146.009 157.816 145.08 151.637C150.388 151.238 155.668 149.883 160.66 147.814C161.812 152.797 163.309 157.844 164.871 159.199L164.88 159.208Z" fill="#F7B290"/>
<path d="M158.512 136.625C158.512 136.625 159.368 142.182 160.669 147.833C155.668 149.902 150.388 151.257 145.089 151.656C144.698 149.095 144.438 146.237 144.141 142.971C144.141 142.971 152.591 140.995 158.522 136.634L158.512 136.625Z" fill="#F3A381"/>
<path d="M158.512 136.625C158.512 136.625 159.368 142.182 160.669 147.833C161.822 152.815 163.318 157.863 164.88 159.217C168.227 162.112 189.979 175.139 189.979 175.139C189.979 175.139 200.688 173.024 202.808 175.139C204.927 177.255 197.788 179.259 197.788 179.259C197.788 179.259 207.27 186.051 206.489 187.164C205.708 188.277 197.342 182.265 197.342 182.265C197.342 182.265 203.588 188.611 203.142 190.17C202.696 191.729 194.999 184.046 194.999 184.046C194.999 184.046 199.349 191.84 198.457 192.842C197.593 193.807 192.034 186.552 191.671 186.078C191.875 186.347 195.612 191.284 193.772 192.935C191.875 194.624 183.844 184.492 183.844 184.492C183.844 184.492 158.336 171.131 152.07 165.898C147.645 162.196 146.009 157.826 145.08 151.646C144.689 149.085 144.429 146.228 144.131 142.962C144.131 142.962 152.581 140.985 158.512 136.625Z" stroke="#320F0F" stroke-linecap="round" stroke-linejoin="round"/>
<path d="M82.2762 102.656C82.2762 102.656 80.8818 108.585 79.4316 108.4C77.9815 108.214 80.3705 100.058 80.3705 100.058C80.3705 100.058 81.5511 100.225 82.2762 102.656Z" fill="#F3A381"/>
<path d="M75.6389 99.5295C75.6389 99.5295 78.8739 106.544 77.6468 107.212C76.4198 107.88 74.4118 101.979 74.4118 101.979C74.4118 101.979 77.1449 108.659 76.1688 109.439C75.1927 110.218 72.5712 107.175 73.1011 104.484C73.631 101.793 73.5194 100.309 75.6389 99.5295Z" fill="#F3A381"/>
<path d="M155.026 64.8284C153.902 63.381 150.983 62.9634 149.793 64.5315C148.398 66.3779 149.43 68.9666 150.034 70.8594C150.127 71.147 149.718 71.3975 149.514 71.1655C147.868 69.2171 147.72 65.348 149.653 63.5294C151.159 62.1191 154.441 62.8428 155.352 64.5779C155.454 64.782 155.175 65.0325 155.017 64.8284H155.026Z" fill="#320F0F"/>
<path d="M152.665 66.8973C151.931 66.8973 151.289 66.619 150.546 66.8231C149.979 66.9808 149.718 67.3427 149.439 67.8066C149.346 67.9551 149.133 67.9551 149.04 67.8066C148.677 67.2221 149.486 66.6839 149.923 66.452C150.862 65.9602 151.717 66.3592 152.665 66.4798C152.925 66.5169 152.944 66.9066 152.665 66.9066V66.8973Z" fill="#320F0F"/>
<path d="M139.549 61.052C138.684 59.6881 138.033 58.2036 137.132 56.8489C136.007 55.1695 134.185 53.7778 132.316 53.0355C131.935 52.8871 131.935 52.219 132.419 52.2561C134.268 52.4046 135.988 54.1768 137.169 55.4479C138.6 56.9881 139.307 58.9366 140.041 60.8479C140.153 61.1448 139.707 61.3026 139.549 61.052Z" fill="#320F0F"/>
<path d="M114.226 51.3654C113.111 52.0148 111.93 52.5715 110.778 53.1561C109.495 53.8056 108.891 55.3272 107.738 56.153C107.236 56.5149 106.762 55.6798 107.254 55.3272C108.416 54.4922 109.021 53.054 110.341 52.4045C111.503 51.8386 112.767 51.1983 114.04 50.9014C114.319 50.8365 114.487 51.2169 114.236 51.3561L114.226 51.3654Z" fill="#320F0F"/>
<path d="M123.801 71.1191C123.801 71.1191 123.829 71.1191 123.848 71.1191C123.969 71.1191 124.071 71.2026 124.108 71.314C124.285 71.8614 123.448 72.613 123.132 72.947C122.481 73.6336 121.44 74.1903 120.464 74.1068C119.85 74.0511 119.832 73.1047 120.464 73.1326C121.217 73.1697 121.97 72.8264 122.537 72.3532C122.881 72.0655 123.42 71.6666 123.625 71.2583V71.5274C123.625 71.5274 123.606 71.4996 123.606 71.4903C123.504 71.3325 123.643 71.1191 123.82 71.1284L123.801 71.1191Z" fill="#010101"/>
<path d="M119.702 69.4954C118.066 68.4562 116.773 67.3799 116.318 65.4314C116.076 64.4015 116.699 63.251 117.833 63.251C118.456 63.251 119.032 63.8077 119.46 64.1603C121.868 66.1273 121.849 61.9891 121.951 60.7551C122.24 57.1922 121.886 53.62 122.007 50.0571C122.026 49.5839 122.751 49.5746 122.751 50.0571C122.723 52.887 122.872 55.7169 122.825 58.5561C122.797 60.4304 122.974 63.2139 122.147 64.9953C121.719 65.9046 121.449 66.1922 120.501 66.0252C120.148 65.9603 119.553 65.2922 119.321 65.051C118.586 64.086 118.001 64.6335 117.573 66.6933C118.001 67.5747 119.209 68.4933 119.906 69.2263C120.027 69.3562 119.869 69.5696 119.711 69.4768L119.702 69.4954Z" fill="#320F0F"/>
<path d="M129.509 66.6005C129.723 64.9303 130.067 61.2561 132.428 61.2468C133.841 61.2468 134.901 62.0169 135.523 63.251C136.379 64.9211 136.016 66.8231 135.914 68.6046C135.877 69.217 134.956 69.2262 134.947 68.6046C134.947 67.2407 135.226 65.9139 134.928 64.5592C134.659 63.3345 133.46 61.6922 132 62.3231C130.541 62.954 130.578 65.4963 129.788 66.684C129.713 66.7953 129.49 66.7675 129.509 66.6097V66.6005Z" fill="#320F0F"/>
<path d="M114.301 64.0491C114.022 62.5738 113.529 57.8882 110.964 59.1594C109.365 59.9573 109.485 62.8707 109.448 64.346C109.439 64.8563 108.63 64.9955 108.537 64.4666C108.156 62.4439 108.723 58.9181 110.926 58.1202C112.135 57.6748 113.436 58.5563 114.05 59.5398C114.905 60.913 114.589 62.5089 114.561 64.012C114.561 64.1604 114.329 64.1975 114.301 64.0491Z" fill="#320F0F"/>
<path d="M144.345 143.323C144.252 143.472 144.048 143.555 143.908 143.407C143.695 143.194 143.908 142.887 144.02 142.674C144.857 141.125 145.758 139.454 146.837 138.063C147.032 137.812 147.506 137.942 147.394 138.295C147.023 139.51 146.084 140.577 145.405 141.644C145.191 141.987 144.977 142.321 144.754 142.655C144.652 142.804 144.55 142.962 144.457 143.119C144.299 143.37 144.392 143.407 144.345 143.212C144.262 143.166 144.178 143.119 144.094 143.073C144.113 143.073 144.141 143.064 144.159 143.054C144.308 143.017 144.438 143.184 144.364 143.314L144.345 143.323Z" fill="#010101"/>
<path d="M143.732 143.398C143.732 142.591 143.834 141.783 143.778 140.976C143.713 140.011 143.527 139.018 143.62 138.053C143.639 137.803 144.039 137.71 144.094 137.989C144.457 139.77 144.327 141.607 144.206 143.398C144.187 143.695 143.741 143.704 143.741 143.398H143.732Z" fill="#010101"/>
<path d="M97.5402 127.866C97.5402 127.866 97.5216 127.912 97.5123 127.94C97.3728 128.32 96.8244 128.005 97.094 127.699C97.4007 127.337 97.4565 126.038 97.5959 125.574C97.8376 124.767 98.1351 123.969 98.4233 123.171C98.9438 121.761 99.4644 120.285 100.227 118.996C100.385 118.727 100.775 118.912 100.71 119.2C100.292 121.046 99.3622 122.8 98.6743 124.563C98.3675 125.351 98.1072 126.149 97.8469 126.947C97.7354 127.3 97.7447 127.792 97.4379 128.051C97.1218 128.311 96.8151 127.773 97.1962 127.634C97.2241 127.634 97.2427 127.615 97.2706 127.606C97.4193 127.55 97.5866 127.717 97.5309 127.866H97.5402Z" fill="#010101"/>
<path d="M97.6145 127.532C97.6145 127.532 97.6331 127.597 97.6517 127.634C97.4751 127.652 97.3077 127.68 97.1311 127.708C97.0753 125.11 96.3317 122.364 96.9917 119.793C97.066 119.515 97.4472 119.599 97.4658 119.858C97.5773 121.092 97.4007 122.345 97.4286 123.588C97.4565 124.971 97.7075 126.325 97.6517 127.708C97.6331 128.107 97.0196 127.996 97.1311 127.634C97.1404 127.597 97.1497 127.569 97.1683 127.532C97.2427 127.318 97.5401 127.318 97.6052 127.532H97.6145Z" fill="#010101"/>
<path d="M135.979 168.561C130.429 165.582 123.188 165.211 117.043 164.525C114.505 164.237 111.93 164.117 109.411 163.727C106.79 163.328 103.768 163.458 101.296 162.641C100.84 162.493 100.896 161.751 101.417 161.778C107.459 162.131 113.52 163.068 119.534 163.81C124.935 164.478 131.656 164.887 136.23 168.125C136.49 168.31 136.267 168.709 135.979 168.561Z" fill="#010101"/>
<path d="M115.89 159.654C115.007 169.405 114.728 179.185 113.762 188.936C112.832 198.307 112.73 207.92 111.029 217.18C110.973 217.477 110.489 217.402 110.508 217.106C111.019 207.734 111.828 198.28 112.804 188.936C113.315 184.047 113.706 179.148 114.003 174.239C114.301 169.359 114.254 164.367 115.491 159.598C115.546 159.385 115.909 159.422 115.89 159.654Z" fill="#010101"/>
<path d="M110.778 160.934C110.778 161.639 111.326 162.214 112.005 162.214C112.683 162.214 113.232 161.639 113.232 160.934C113.232 160.229 112.683 159.654 112.005 159.654C111.326 159.654 110.778 160.229 110.778 160.934Z" fill="#010101"/>
<path d="M110.22 169.619C110.22 170.324 110.768 170.899 111.447 170.899C112.126 170.899 112.674 170.324 112.674 169.619C112.674 168.913 112.126 168.338 111.447 168.338C110.768 168.338 110.22 168.913 110.22 169.619Z" fill="#010101"/>
<path d="M124.833 64.3459C124.833 58.6582 129.472 54.0283 135.17 54.0283C140.869 54.0283 145.507 58.6582 145.507 64.3459C145.507 70.0335 140.869 74.6635 135.17 74.6635C129.472 74.6635 124.833 70.0335 124.833 64.3459ZM125.502 64.3459C125.502 69.6624 129.834 73.9954 135.17 73.9954C140.497 73.9954 144.838 69.6717 144.838 64.3459C144.838 59.0294 140.506 54.6964 135.17 54.6964C129.844 54.6964 125.502 59.0201 125.502 64.3459Z" fill="#2D2946"/>
<path d="M97.1497 64.3459C97.1497 58.6582 101.788 54.0283 107.487 54.0283C113.185 54.0283 117.824 58.6582 117.824 64.3459C117.824 70.0335 113.185 74.6635 107.487 74.6635C101.788 74.6635 97.1497 70.0335 97.1497 64.3459ZM97.819 64.3459C97.819 69.6624 102.151 73.9954 107.487 73.9954C112.813 73.9954 117.155 69.6717 117.155 64.3459C117.155 59.0294 112.823 54.6964 107.487 54.6964C102.16 54.6964 97.819 59.0201 97.819 64.3459Z" fill="#2D2946"/>
<path d="M125.01 63.4551L125.456 62.9541C125.363 62.8706 123.113 60.95 117.229 62.0726L117.35 62.7314C122.918 61.6737 124.982 63.4366 125.01 63.4551Z" fill="#2D2946"/>
<path d="M106.12 29.9786C106.037 36.0838 99.232 37.7632 99.232 37.7632C99.232 37.7632 90.2614 44.8055 79.8871 51.5138C70.1543 41.5859 62.5595 29.2549 59.0363 16.061C73.6496 24.226 89.7873 26.7869 106.12 29.9786Z" fill="#C5884B"/>
<path d="M43.8095 29.0879C46.6541 14.5579 56.5543 13.6579 57.0284 13.3332C70.2472 4.25889 95.3463 9.54758 103.378 22.1569C105.404 25.3394 106.148 27.9095 106.111 29.9786C89.778 26.7961 73.6402 24.226 59.027 16.061C62.5502 29.2549 70.1357 41.5766 79.8778 51.5138C69.8475 57.9994 58.5064 64.1695 52.6593 63.3623C40.7697 61.72 40.9557 43.6271 43.8002 29.0972L43.8095 29.0879Z" fill="#DCA261"/>
<path d="M43.8095 29.0879C46.6541 14.5579 56.5543 13.6579 57.0284 13.3332C70.2472 4.25889 95.3463 9.54758 103.378 22.1569C105.404 25.3394 106.148 27.9095 106.111 29.9786C106.027 36.0838 99.2227 37.7632 99.2227 37.7632C99.2227 37.7632 90.2521 44.8055 79.8778 51.5138C69.8475 57.9994 58.5064 64.1695 52.6593 63.3623C40.7697 61.72 40.9557 43.6271 43.8002 29.0972L43.8095 29.0879Z" stroke="#320F0F" stroke-linecap="round" stroke-linejoin="round"/>
<path d="M32.3104 180.14C32.5149 179.63 32.7194 179.157 32.9333 178.721C37.9531 168.533 39.301 169.368 39.301 169.368L87.0078 175.881C87.0078 175.881 87.1101 183.156 87.1751 191.822C69.1224 187.804 50.5212 179.723 32.3104 180.14Z" fill="#2E8699"/>
<path d="M78.8832 83.3015C78.8832 83.3015 85.8644 84.3686 87.0171 88.2098C88.1605 92.0511 96.5362 96.7274 98.0421 101.404C99.5481 106.08 104.038 128.961 105.135 136.476C106.241 143.992 104.568 159.023 101.054 167.039C97.5401 175.056 90.0569 181.402 87.0171 183.239V176.893C87.0171 176.893 65.906 180.567 46.6634 174.555C46.6634 174.555 41.3089 184.241 34.6158 189.586C34.6158 189.586 21.7316 170.379 19.7237 160.192C17.7158 150.004 19.7237 135.047 22.9029 123.82C26.0821 112.593 31.102 99.3996 35.1178 93.0531C39.1337 86.7067 52.3525 84.3686 52.3525 84.3686C52.3525 84.3686 55.3644 79.5345 61.2209 80.1933C67.0773 80.8613 78.8832 83.3015 78.8832 83.3015Z" fill="#BCE3F4"/>
<path d="M78.8832 83.3015C78.8832 83.3015 85.8644 84.3686 87.0171 88.2098C88.1605 92.0511 96.5362 96.7274 98.0421 101.404C99.5481 106.08 104.038 128.961 105.135 136.476C106.241 143.992 104.568 159.023 101.054 167.039C97.5401 175.056 90.0569 181.402 87.0171 183.239V176.893C87.0171 176.893 65.906 180.567 46.6634 174.555C46.6634 174.555 41.3089 184.241 34.6158 189.586C34.6158 189.586 21.7316 170.379 19.7237 160.192C17.7158 150.004 19.7237 135.047 22.9029 123.82C26.0821 112.593 31.102 99.3996 35.1178 93.0531C39.1337 86.7067 52.3525 84.3686 52.3525 84.3686C52.3525 84.3686 55.3644 79.5345 61.2209 80.1933C67.0773 80.8613 78.8832 83.3015 78.8832 83.3015Z" stroke="#320F0F" stroke-linecap="round" stroke-linejoin="round"/>
<path d="M59.0735 79.9521C65.59 80.2676 72.0507 80.6759 78.3626 81.8078C78.7623 83.3852 79.5339 84.8975 80.9655 85.7048C80.9655 85.7048 66.408 89.212 56.5357 83.3666C56.5357 83.3666 57.865 82.0769 59.0828 79.9521H59.0735Z" fill="#FAD9B4"/>
<path d="M60.9884 72.6685L78.0651 76.2778C78.0651 76.2778 77.6933 79.1448 78.3719 81.8077C72.0599 80.6757 65.5992 80.2675 59.0828 79.952C60.1518 78.0778 61.1186 75.554 60.9977 72.6685H60.9884Z" fill="#E8BD95"/>
<path d="M59.0735 79.952C60.1425 78.0778 61.1093 75.554 60.9884 72.6685L78.0651 76.2778C78.0651 76.2778 77.6933 79.1448 78.3719 81.8077C78.7716 83.385 79.5432 84.8974 80.9747 85.7046C80.9747 85.7046 66.4173 89.2118 56.545 83.3664C56.545 83.3664 57.8743 82.0767 59.0921 79.952H59.0735Z" stroke="#320F0F" stroke-linecap="round" stroke-linejoin="round"/>
<path d="M99.232 37.7632C99.232 37.7632 98.4604 46.6983 99.1948 52.9612C99.9292 59.2241 96.1272 75.916 72.9523 76.2778C49.7868 73.2994 51.6646 56.9324 51.7483 56.9324C51.8319 56.9324 43.2053 59.085 42.9822 50.9849C42.7498 42.8849 51.5345 44.9076 51.5345 44.9076C51.5345 44.9076 59.9287 33.5415 61.5369 26.8425C61.5369 26.8425 84.8605 35.889 99.2413 37.7632H99.232Z" fill="#FAD9B4"/>
<path d="M99.232 37.7632C99.232 37.7632 98.4604 46.6983 99.1948 52.9612C99.9292 59.2241 96.1272 75.916 72.9523 76.2778C49.7868 73.2994 51.6646 56.9324 51.7483 56.9324C51.8319 56.9324 43.2053 59.085 42.9822 50.9849C42.7498 42.8849 51.5345 44.9076 51.5345 44.9076C51.5345 44.9076 59.9287 33.5415 61.5369 26.8425C61.5369 26.8425 84.8605 35.889 99.2413 37.7632H99.232Z" stroke="#320F0F" stroke-linecap="round" stroke-linejoin="round"/>
<path d="M87.8352 175.677C87.2867 172.133 90.1034 168.18 91.3676 165.016C93.3198 160.127 94.175 154.856 94.6677 149.642C95.6252 139.501 94.6398 129.489 93.7753 119.394C93.7474 119.07 94.2959 118.995 94.3516 119.32C95.7925 128.571 96.0156 138.044 95.5136 147.387C95.2719 151.952 94.6212 156.48 93.4871 160.906C93.013 162.762 92.4088 164.617 91.6558 166.38C90.4102 169.303 88.3929 172.374 88.2628 175.631C88.2628 175.863 87.8817 175.937 87.8352 175.686V175.677Z" fill="#010101"/>
<path d="M46.2636 174.007C41.9224 168.505 37.7392 161.11 36.5865 154.114C36.5122 153.641 37.1908 153.428 37.3302 153.91C39.2359 160.925 42.5267 167.716 46.6541 173.71C46.8121 173.942 46.4403 174.23 46.2636 174.007Z" fill="#010101"/>
<path d="M37.5347 150.57C37.479 145.643 39.0779 140.54 40.5373 135.882C42.0991 130.89 43.9861 125.88 46.2172 121.148C46.496 120.564 47.3606 121.074 47.091 121.658C42.9171 130.501 38.7804 140.753 37.9252 150.579C37.9066 150.83 37.5347 150.839 37.5347 150.579V150.57Z" fill="#010101"/>
<path d="M50.577 54.5293C50.8652 52.9056 51.3114 51.2447 50.8745 49.6117C50.5863 48.5447 49.3128 47.4128 48.2251 47.2829C47.2769 47.1715 46.6448 48.0715 45.9662 48.5726C45.6316 48.8138 45.2504 48.3591 45.427 48.0344C46.7192 45.7334 49.1082 45.9839 50.7443 47.7189C52.6035 49.686 51.6925 52.386 50.9953 54.6406C50.9117 54.9097 50.5305 54.7984 50.577 54.5293Z" fill="#320F0F"/>
<path d="M51.5345 52.2747C51.5345 52.2747 51.4973 52.2932 51.4787 52.3025C51.395 52.3489 51.2742 52.321 51.2277 52.2375C50.8187 51.4582 50.9395 50.6417 49.9541 50.2705C49.5544 50.1221 49.1268 50.1128 48.7085 50.1963C48.2065 50.2984 48.002 50.7252 47.5744 50.9386C47.3792 51.0406 47.1282 50.92 47.1282 50.6788C47.1282 49.4447 48.9037 49.2406 49.7961 49.4355C50.2516 49.5375 50.8373 49.7973 51.1068 50.2056C51.2091 50.3633 51.7576 52.0334 51.4787 51.9777C51.6181 52.0056 51.6274 52.2004 51.5159 52.2747H51.5345Z" fill="#320F0F"/>
<path d="M79.2364 60.9035C78.595 60.8849 78.0279 61.1911 77.3772 61.0612C76.7451 60.9313 76.1501 60.7086 75.6389 60.3004C74.5234 59.4097 73.8262 58.12 73.6774 56.6911C73.6309 56.2643 74.2631 56.1344 74.4583 56.4777C74.6814 56.8674 74.7836 57.2756 74.9138 57.7117C75.1276 58.4262 75.5459 58.9457 76.0665 59.4653C76.4941 59.8829 77.024 60.1148 77.591 60.254C78.1395 60.3932 78.7344 60.1798 79.3108 60.2911C79.6547 60.3561 79.5711 60.9035 79.2271 60.8942L79.2364 60.9035Z" fill="#320F0F"/>
<path d="M65.1809 49.751C65.1809 50.9479 65.7573 51.9128 66.4637 51.9128C67.1702 51.9128 67.7466 50.9479 67.7466 49.751C67.7466 48.5541 67.1702 47.5891 66.4637 47.5891C65.7573 47.5891 65.1809 48.5541 65.1809 49.751Z" fill="#320F0F"/>
<path d="M89.1087 50.688C89.1087 51.8849 89.6851 52.8499 90.3915 52.8499C91.098 52.8499 91.6744 51.8849 91.6744 50.688C91.6744 49.4911 91.098 48.5261 90.3915 48.5261C89.6851 48.5261 89.1087 49.4911 89.1087 50.688Z" fill="#320F0F"/>
<path d="M59.0084 41.3354C59.0084 41.3354 63.4984 35.7683 65.9525 35.5457C68.4066 35.323 70.7492 36.8817 69.7452 37.8838C68.7413 38.8859 71.5487 39.7488 68.7413 40.222C62.1783 41.3354 56.5636 44.0447 59.0084 41.3354Z" fill="#C5884B"/>
<path d="M97.3356 45.659C97.3356 45.659 94.2587 39.2012 91.9254 38.4218C89.5921 37.6425 86.9521 38.6167 87.6957 39.8229C88.4394 41.0291 85.5112 41.2146 88.1326 42.3281C94.2587 44.926 99.1019 48.86 97.3449 45.659H97.3356Z" fill="#C5884B"/>
<path d="M82.1739 56.0417C82.1739 56.0417 86.7382 52.5716 84.0889 51.0036C81.9787 49.751 79.1806 52.5623 79.1806 52.5623C79.1806 52.5623 76.6057 54.0283 77.6561 50.1036C78.3161 47.6355 78.9575 45.4272 78.9575 45.4272" stroke="#320F0F" stroke-linecap="round" stroke-linejoin="round"/>
</g>
<defs>
<clipPath id="clip0_15_492">
<rect width="227" height="162" fill="white" transform="translate(0 15)"/>
</clipPath>
</defs>
</svg>
