<svg width="693" height="368" viewBox="0 0 693 368" fill="none" xmlns="http://www.w3.org/2000/svg">
<path d="M678.512 367.932C685.997 367.932 692.065 361.822 692.065 354.285C692.065 346.748 685.997 340.638 678.512 340.638C671.027 340.638 664.959 346.748 664.959 354.285C664.959 361.822 671.027 367.932 678.512 367.932Z" fill="#ED4883"/>
<path d="M9.59978 363.951C14.9016 363.951 19.1996 359.623 19.1996 354.285C19.1996 348.946 14.9016 344.618 9.59978 344.618C4.29797 344.618 0 348.946 0 354.285C0 359.623 4.29797 363.951 9.59978 363.951Z" fill="#ED4883"/>
<path d="M142.845 27.3642C141.083 27.3642 139.321 26.6819 138 25.3057L124.978 11.8745C122.358 9.1792 122.414 4.85756 125.091 2.23045C127.768 -0.408026 132.059 -0.351164 134.668 2.34418L147.69 15.7754C150.31 18.4707 150.254 22.7924 147.577 25.4195C146.256 26.716 144.55 27.3642 142.845 27.3642Z" fill="#FFE984"/>
<path d="M61.958 134.973C56.8758 134.973 51.466 133.131 47.3099 128.116C45.5142 125.955 42.318 125.341 37.8343 126.307C33.9493 127.137 30.674 128.889 30.6402 128.9L27.7602 122.804C27.9183 122.725 31.7357 120.678 36.4339 119.643C45.0963 117.732 49.7381 120.735 52.0985 123.589C57.7567 130.401 66.8257 128.263 70.4284 125.602L74.065 131.209C71.1512 133.358 66.7014 134.962 61.958 134.962V134.973Z" fill="#882FB1"/>
</svg>
