<svg width="693" height="369" viewBox="0 0 693 369" fill="none" xmlns="http://www.w3.org/2000/svg">
<path d="M678.512 368.077C685.997 368.077 692.065 361.967 692.065 354.43C692.065 346.893 685.997 340.783 678.512 340.783C671.027 340.783 664.959 346.893 664.959 354.43C664.959 361.967 671.027 368.077 678.512 368.077Z" fill="#ED4883"/>
<path d="M9.59978 364.097C14.9016 364.097 19.1996 359.769 19.1996 354.43C19.1996 349.091 14.9016 344.763 9.59978 344.763C4.29797 344.763 0 349.091 0 354.43C0 359.769 4.29797 364.097 9.59978 364.097Z" fill="#ED4883"/>
<path d="M142.845 27.5095C141.083 27.5095 139.321 26.8271 138 25.451L124.978 12.0198C122.358 9.32446 122.414 5.00282 125.091 2.37572C127.768 -0.262762 132.059 -0.2059 134.668 2.48944L147.69 15.9207C150.31 18.616 150.254 22.9376 147.577 25.5647C146.256 26.8612 144.55 27.5095 142.845 27.5095Z" fill="#FFE984"/>
<path d="M61.958 135.119C56.8758 135.119 51.466 133.276 47.3099 128.261C45.5141 126.1 42.318 125.486 37.8343 126.452C33.9492 127.283 30.674 129.034 30.6401 129.045L27.7602 122.95C27.9183 122.87 31.7356 120.823 36.4339 119.788C45.0963 117.877 49.738 120.88 52.0984 123.734C57.7567 130.547 66.8256 128.409 70.4284 125.747L74.065 131.354C71.1512 133.504 66.7014 135.107 61.958 135.107V135.119Z" fill="#882FB1"/>
</svg>
