<svg width="184" height="196" viewBox="0 0 184 196" fill="none" xmlns="http://www.w3.org/2000/svg">
<ellipse cx="92" cy="187.236" rx="78.1307" ry="7.8593" fill="#D9D9D9"/>
<g clip-path="url(#clip0_668_2911)">
<path fill-rule="evenodd" clip-rule="evenodd" d="M150.912 104.524C149.656 104.355 149.566 103.87 149.735 102.728C150.114 100.17 149.398 98.8632 147.551 98.1043C146.389 97.6271 145.289 97.8423 144.163 98.2999C142.781 98.8593 141.463 99.3014 140.144 97.897C139.346 97.0482 137.816 96.524 136.646 96.3831C134.76 96.1602 133.778 95.3817 130.417 96.9543C131.14 93.4962 129.947 88.7473 129.266 85.4887C128.691 82.7387 128.1 80.8376 127.498 78.2245C125.819 70.9524 122.9 64.0872 120.971 56.909C120.795 56.2557 120.791 55.7355 121.268 55.3325C121.828 54.8592 122.704 54.5384 123.15 55.1487C123.675 55.8645 124.352 55.7433 124.845 55.6768C127.447 55.3247 130.115 55.0978 132.596 54.3194C136.055 53.2319 138.857 51.0256 141.244 48.2326C144.413 44.5242 146.143 40.2525 146.088 35.4527C146.025 30.2148 144.581 25.2311 142.789 20.2788C141.443 16.5625 139.393 13.394 137.26 10.1745C136.693 9.31784 135.703 7.78832 135.21 7.17416C134.263 5.99279 132.154 2.94549 128.581 1.89321C126.245 1.20473 123.479 0.312836 121.123 0.0350971C118.334 -0.293496 116.592 1.40423 115.426 3.99386C114.608 5.80503 113.305 8.19906 112.343 9.90852C110.778 12.6937 109.831 14.8374 108.919 17.5366C107.045 23.0992 105.695 27.1792 105.519 33.1369C105.476 34.5491 105.362 36.2507 104.126 35.6052C101.489 34.2361 99.3404 32.0924 96.6835 30.7624C94.0736 29.4598 91.0176 28.3254 87.6682 27.3709C85.6257 26.788 83.7436 26.2443 81.6697 25.5441C80.5389 25.1646 78.0973 24.3627 76.6651 24.3705C78.1872 26.4516 80.3472 29.2916 81.8341 31.3218C80.7776 31.5878 79.995 31.3883 78.9307 30.825C77.0329 29.8197 76.2582 30.8015 74.3017 29.7806C73.9378 29.5928 72.7248 28.6813 71.954 29.1938C70.9758 29.8471 72.2005 31.0871 72.3766 31.3609C73.0027 32.335 73.9535 34.0679 74.6617 35.0341C72.447 35.5427 70.518 35.3392 68.5498 36.059C66.7225 36.7279 66.3977 36.1412 66.0807 34.1501C65.6034 31.1849 65.1808 27.4608 64.5156 24.5426C63.0913 18.2915 60.8453 13.6991 58.1571 8.82104C57.3824 7.41278 56.5294 6.18447 54.7334 5.32387C52.4443 4.22465 50.3392 4.91313 48.1558 5.32387C46.5711 5.62117 44.4033 7.18981 43.069 8.18341C39.3987 10.9217 37.0627 14.6184 34.8519 19.0622C32.8485 23.0874 31.7647 27.4687 31.0369 31.9242C30.3286 36.2546 31.3029 39.0203 33.1616 43.0064C34.7815 46.4879 38.6631 49.0658 42.2864 50.4584C43.6833 50.9943 45.2681 51.2486 46.6376 51.7806C46.6376 51.7806 47.1384 52.4926 46.9545 53.1263C46.6845 54.0651 46.0506 54.7145 45.4363 55.8645L43.8477 58.5285C41.8443 62.7102 40.3652 65.3781 39.3596 70.5026C38.8705 72.9983 38.6592 75.2828 38.6592 75.2828C38.624 76.5229 38.6514 77.4108 38.5887 79.269C38.4518 83.3372 38.7374 87.3429 39.743 91.3604C40.8347 95.7142 43.2177 99.274 46.0037 102.49C48.2379 105.067 51.2783 106.957 54.3382 108.6C57.6641 110.387 57.7737 110.086 55.289 113.001C54.9564 113.392 53.9899 114.534 53.9038 114.624C50.9926 117.628 49.6857 119.979 47.2049 123.32C46.1719 123.296 44.912 123.641 43.9103 123.688C41.4725 123.801 37.8883 122.827 35.8928 121.399C33.3846 119.608 31.9955 118.074 29.6556 116.013C26.6975 113.407 27.2492 111.498 29.8904 107.544C30.0312 107.336 30.2543 106.143 30.2347 105.764C30.1604 104.14 27.6366 101.195 27.2531 100.655C25.7231 98.519 22.4481 92.487 20.2216 92.4752C17.1304 92.4557 13.331 93.5041 12.7754 94.0713C12.2237 94.6385 11.1867 97.3259 11.218 97.4511C10.3611 97.0443 9.80549 96.5357 7.9273 95.8198C7.30515 95.5812 6.32301 95.4443 5.43478 95.7025C3.00879 96.4027 2.03056 98.3743 3.05183 100.671C3.93223 102.654 3.72094 103.194 2.011 103.526C1.23233 103.679 0.500622 104.183 0.18759 104.774C-0.172396 105.47 0.0389004 106.792 0.199329 107.231C0.907563 108.905 1.00147 109.159 1.99535 110.638C4.04571 113.693 6.60865 116.169 10.0285 117.902C12.028 118.915 13.6636 119.107 15.6161 118.379C16.2383 118.148 16.7744 117.785 17.5569 118.411C21.5363 121.607 25.7466 124.568 29.2056 128.315C32.1755 131.535 35.791 132.614 39.8722 132.603C41.5547 132.599 43.8751 131.304 43.5581 134.089C43.1081 137.692 41.8443 141.913 41.8325 145.625C41.8091 152.232 43.7577 157.834 47.3771 163.275C48.8797 165.532 50.6444 167.449 52.9647 168.81C53.759 169.276 54.1699 169.898 54.1073 170.978C54.076 171.564 53.2425 171.932 52.4952 172.265C50.9848 172.937 49.4862 173.156 46.7863 174.197C42.4743 175.856 38.9253 177.784 35.9515 181.751C34.8598 183.206 34.2885 184.696 35.1689 185.749C35.8302 186.508 36.734 186.484 37.2114 186.007C36.9688 186.789 37.1527 187.642 37.591 188.256C38.667 189.355 39.657 190.149 41.6369 190.408C43.0455 190.591 43.6912 190.142 44.1333 189.602C44.2272 190.615 44.3916 191.202 45.6476 191.972C45.8315 192.082 46.6611 192.383 47.3106 192.438C50.5113 192.708 51.83 192.313 54.076 190.427C58.1532 187.004 60.411 184.376 63.4669 180.91C63.4669 180.91 66.3155 178.011 67.2116 178.304C71.8053 179.814 73.7265 179.717 76.0234 179.834C82.9375 180.194 88.4743 179.724 94.8718 178.426C98.2252 177.745 101.426 177.15 104.588 176.509C106.822 176.051 108.465 176.583 109.999 178.563C111.811 180.632 113.063 181.997 114.73 183.773C115.681 184.786 117.195 186.308 118.611 187.497C119.687 188.401 122.098 191.366 123.729 192.52C126.621 194.566 129.626 194.691 131.148 192.958C131.422 192.563 131.524 191.738 131.524 191.738C131.524 191.738 131.876 192.551 132.596 192.806C133.316 193.064 136.09 194.143 138.794 191.749C139.056 191.405 139.796 190.001 139.444 189.351C139.444 189.351 140.14 189.563 140.88 189.125C142.48 188.178 140.617 184.336 139.185 182.541C137.198 180.057 134.22 178.629 131.36 177.131C128.519 175.64 126.175 175.222 123.006 174.526C122.239 174.357 121.39 174.08 121.253 173.364L121.429 172.042C121.843 170.669 122.72 170.403 123.698 169.522C125.4 167.993 126.515 167.058 129.059 166.651C131.113 164.32 131.097 163.279 131.626 161.726C132.58 159.575 133.128 157.877 133.715 155.894C135.351 150.366 136.986 144.831 137.464 139.053C137.788 135.122 138.074 131.175 137.268 127.255C137.162 126.653 137.28 125.593 137.335 125.256C137.679 123.253 137.812 123.285 140.555 122.937C144.268 122.463 147.105 120.953 149.339 117.824C150.865 116.091 151.891 113.642 152.642 111.444C152.935 110.223 153.143 109.155 153.295 107.806C153.507 105.916 152.744 104.762 150.905 104.516L150.912 104.524Z" fill="#AA580E"/>
<path fill-rule="evenodd" clip-rule="evenodd" d="M111.345 178.574C110.79 178.085 109.87 177.643 109.718 177.393C109.131 176.435 109.53 176.169 110.496 176.063C112.547 175.844 114.593 175.558 116.636 175.257C118.142 175.034 119.457 174.361 120.607 173.368C120.372 174.401 121.042 174.784 121.808 174.952C124.978 175.652 127.639 176.435 130.417 178.031C133.285 179.353 136.224 180.55 138.207 183.034C139.64 184.829 140.426 187.321 139.874 188.577C139.46 189.074 138.732 187.928 138.384 187.439C137.272 185.89 136.157 184.79 134.49 183.718C133.708 183.374 133.543 182.905 131.458 182.87C134.815 184.125 139.73 189.172 138.387 190.349C136.529 192.199 133.739 192.587 132.796 192.031C131.982 191.534 131.728 191.092 131.411 190.337C130.566 188.338 128.926 187.36 126.997 186.68C128.805 188.319 131.426 190.013 130.417 192.164C129.603 192.97 128.711 193.799 125.819 191.753C124.188 190.599 123.045 189.488 121.124 187.826C120.646 187.411 118.33 185.342 116.69 183.914C114.116 181.438 113.333 180.718 111.341 178.567L111.345 178.574Z" fill="#F7851E"/>
<path fill-rule="evenodd" clip-rule="evenodd" d="M4.52328 104.528C6.67929 107.548 8.8353 110.525 13.1669 110.392C14.3447 110.356 14.8494 112.32 13.9651 113.568C13.3664 114.413 12.6582 115.011 11.5548 115.344C11.1009 115.481 9.34006 115.637 8.24053 115.125C6.97667 114.499 5.9554 113.654 5.14543 113.059C3.3142 111.346 2.12859 109.676 1.45166 107.278C0.825597 105.052 2.15207 103.98 4.51937 104.532L4.52328 104.528Z" fill="#F7851E"/>
<path fill-rule="evenodd" clip-rule="evenodd" d="M10.9796 98.3236C10.7996 98.9964 10.7683 99.6497 10.7213 100.233C10.4161 103.976 13.0104 106.319 16.7942 105.564C17.162 105.49 17.5024 105.232 17.9054 105.427C16.9702 108.029 13.386 109.586 10.87 108.44C9.12489 107.645 8.04101 106.652 6.95714 105.208C6.51107 104.614 5.83414 103.691 5.0633 102.654C3.49814 100.561 3.21641 99.0825 4.35507 97.8268C5.5485 96.5124 7.278 96.2855 8.74925 97.2635C9.27749 97.6155 10.2401 98.3236 10.9796 98.3236Z" fill="#F7851E"/>
<path fill-rule="evenodd" clip-rule="evenodd" d="M143.537 119.142C141.13 118.731 139.479 117.433 139.029 115.007C138.845 113.998 138.528 113.181 137.534 112.746C131.857 110.282 135.022 108.083 133.911 105.455C134.964 105.865 134.521 107.047 135.312 107.692C136.47 108.639 137.703 108.748 138.931 107.986C140.168 107.219 141.893 106.632 141.549 104.739C141.154 102.552 140.254 100.506 138.892 98.7225C137.918 97.4473 136.396 97.8228 135.077 97.6311C131.34 97.0835 129.572 98.1044 128.136 101.672C127.357 103.608 126.504 105.506 125.534 107.352C124.168 109.942 123.769 112.523 125.498 115.117C126.16 116.107 125.847 116.799 125.08 117.683C122.693 120.421 120.345 122.898 116.78 125.112C113.881 126.614 106.231 128.405 104.502 126.809C103.23 125.636 108.61 126.516 115.164 124.56C116.514 123.41 119.562 121.415 122.012 118.888C123.045 117.824 124.473 116.474 123.741 115.074C122.611 112.922 122.106 110.415 123.284 108.162C124.348 106.128 126.774 102.361 126.758 99.8804C126.797 97.6507 126.754 97.1539 126.465 94.9633C125.299 86.1226 123.647 77.3718 121.914 68.625C121.128 64.6623 120.098 60.7662 119.183 56.8426C118.639 54.5151 118.94 53.9557 121.237 53.7992C122.564 53.7092 123.804 53.2985 125.025 52.8878C129.654 51.3348 133.813 49.019 137.045 45.2323C142.05 39.3646 142.719 32.4016 141.412 25.3173C140.046 17.9161 137.327 11.5946 132.483 5.67213C131.591 4.51423 130.162 3.4424 128.785 2.8478C126.547 1.88549 124.324 1.35349 121.969 1.07575C119.179 0.747155 117.528 1.72902 116.358 4.31864C115.54 6.12982 114.816 8.03487 113.681 9.6348C111.967 12.0484 110.911 14.7632 110.003 17.4623C108.129 23.025 106.536 28.701 106.36 34.6548C106.317 36.0669 105.613 36.2782 104.376 35.6327C101.739 34.2636 99.0393 33.0196 96.3785 31.6935C93.7686 30.3909 91.5735 29.8706 88.1614 28.8692C85.1485 27.9851 83.642 27.6487 81.5643 26.9485C80.4334 26.5691 79.6078 26.3031 78.1757 26.3109C79.6978 28.392 81.1104 30.3244 82.5973 32.3546C81.5408 32.6206 80.7308 32.8123 79.6665 32.249C77.7688 31.2437 75.4132 31.8109 73.4568 30.7938C73.0929 30.6061 72.6233 30.3909 72.4238 30.6373C72.1185 31.0168 72.5881 31.9204 72.7642 32.1943C73.3902 33.1683 74.1141 34.0837 74.8224 35.0538C72.6077 35.5623 70.4986 35.398 68.5304 36.1178C66.7031 36.7867 65.4392 36.4112 65.1184 34.4201C64.641 31.4549 64.3475 28.1455 63.6823 25.2273C62.3911 19.5513 60.6029 14.4698 57.8052 9.39227C57.0304 7.98402 56.7487 6.18849 54.9527 5.32789C52.6636 4.22867 50.4372 4.90542 48.2538 5.32007C46.6691 5.61737 45.3583 6.76744 43.9692 7.67498C39.5906 10.5384 37.0707 14.7945 34.856 19.2383C32.8526 23.2636 31.8588 27.6526 31.131 32.1043C30.4227 36.4347 31.624 40.3191 33.7996 43.8554C35.8147 47.1257 38.9646 49.1872 42.5918 50.5798C43.9887 51.1157 45.2604 51.1587 46.6299 51.6907L46.8882 51.9841C47.1699 52.5553 47.1504 53.1655 46.853 53.7523C46.5126 54.4212 46.0782 54.8554 45.0804 56.6744L44.4935 57.711C41.6097 62.6634 40.1463 66.5244 39.2894 71.6762C38.5889 75.8814 38.7924 77.4266 38.7298 79.2886C38.5929 83.3569 38.8785 87.3626 39.8841 91.38C40.9758 95.7339 43.3588 99.2936 46.1447 102.509C48.379 105.087 51.4193 106.976 54.4792 108.619C57.8052 110.407 57.8287 110.36 55.2618 113.208C55.1796 113.302 54.5888 114.022 54.5027 114.112C51.2393 117.546 49.7837 120.054 47.346 123.34C43.4253 124.149 39.2698 123.688 35.9047 121.419C33.8191 120.015 32.3596 118.364 30.4501 116.725C27.0263 113.787 25.7899 111.854 28.1415 108.166C29.5228 105.995 29.511 105.22 27.4881 102.744C26.7485 101.703 25.8603 100.518 25.2694 99.5596C24.1308 97.7015 23.0782 96.3324 22.1391 94.9946C21.2665 94.0675 19.2397 93.4768 17.9132 93.5589C15.8824 93.688 16.1993 93.8953 14.419 94.6034C13.9925 94.7716 13.4408 96.219 13.2686 96.661C12.5251 98.6169 11.5234 99.0707 11.5978 101.203C11.6447 102.568 12.0556 103.792 13.4016 104.387C14.8377 105.021 16.8645 105.396 18.2419 103.741C18.9188 102.932 19.537 101.469 20.0966 100.71C19.7601 103.988 19.494 106.965 16.6924 108.917C16.0115 109.39 15.9411 110.251 15.8237 111.033C15.5224 113.016 15.0177 114.87 13.0221 115.891C12.623 116.095 12.3099 116.478 12.443 117.018C12.7443 118.289 14.192 117.855 15.182 117.413C16.9937 116.603 17.5571 116.955 18.7466 117.984C19.0205 118.223 19.8423 118.888 20.5896 119.467C23.9977 122.1 26.6116 124.748 29.5932 127.674C32.8761 130.897 36.8281 132.188 41.3319 131.942C43.6601 131.813 43.8518 132.47 43.4488 135.036C43.0027 138.639 41.9892 141.745 41.9775 145.457C41.954 152.064 43.9027 157.857 47.5221 163.295C49.0246 165.552 50.715 167.422 53.0354 168.783C53.8297 169.249 54.4518 169.906 54.401 170.986C54.3501 172.093 53.4814 172.382 52.5775 172.722C51.0554 173.297 49.1968 173.794 47.8077 174.361C43.8792 175.969 40.0093 177.655 37.0394 181.622C35.9477 183.077 35.6425 184.595 36.3273 185.432C37.0003 186.113 37.869 184.677 38.3894 184.024C39.7002 182.377 41.418 181.5 43.484 181.152C40.7997 182.365 38.4168 184.258 38.0255 186.199C37.6107 188.256 39.8176 189.117 40.6784 189.488C41.461 189.821 43.394 190.443 44.427 188.491C45.5187 186.425 46.9117 185.052 49.0716 184.387C48.246 185.217 47.1308 185.933 46.3404 186.762C45.7339 187.396 44.3252 189.465 45.3269 190.869C45.8161 191.507 46.7317 191.691 47.3851 191.753C49.639 191.965 51.9358 189.942 54.0918 188.166C58.0478 184.919 60.0355 182.768 63.0915 179.298C63.8936 178.434 63.698 177.424 63.158 177.147C60.8768 175.942 58.9517 175.026 57.2143 173.329C59.0495 174.15 60.7438 175.429 63.2245 176.399C63.4397 176.482 64.461 176.865 64.6919 176.986C67.6578 178.109 70.2482 178.645 73.6602 179.009C76.904 179.357 80.5547 179.49 83.3133 178.942C85.3911 178.614 87.0071 178.316 88.7914 177.866C95.7094 176.126 98.6049 175.093 103.527 172.128C108.465 169.155 112.985 166.018 116.765 161.695C118.858 159.305 120.963 156.074 122.384 153.202C126.003 145.872 127.482 137.993 128.351 129.958C128.456 128.988 128.711 128.104 127.627 127.541C126.84 127.369 126.34 128.241 125.827 128.707C124.653 129.778 124.156 130.471 122.763 131.836C118.068 136.268 107.609 135.564 107.503 135.161C107.112 133.663 117.023 135.552 121.789 131.132C124.692 128.124 127.823 125.382 131.375 123.148C133.492 121.814 135.664 121.067 138.223 121.943C140.101 122.585 141.96 122.045 143.725 121.274C144.308 121.02 145.133 120.777 145.094 120.046C145.051 119.236 144.143 119.256 143.545 119.154L143.537 119.142ZM115.262 24.8831C115.83 20.2515 116.628 15.7842 119.12 11.8019C120.76 9.17712 122.83 7.20948 126.359 7.44419C128.543 7.58892 129.752 8.9385 130.937 10.3585C134.334 14.4346 136.376 21.0417 136.102 26.1309C136.407 31.2006 134.846 35.887 131.258 39.8223C128.55 42.7914 124.931 44.0001 121.096 44.5517C120.079 44.6964 119.425 43.5894 118.956 42.764C115.786 37.2131 114.472 31.3454 115.262 24.8831Z" fill="#F7851E"/>
<path fill-rule="evenodd" clip-rule="evenodd" d="M152.302 108.78C152.071 112.355 150.494 115.129 147.724 117.558C146.057 119.021 141.909 118.285 140.755 116.373C139.757 114.714 139.843 113.564 141.768 113.31C144.421 112.958 145.231 111.804 146.659 110.008C147.058 109.507 148.134 107.481 148.354 106.886C148.874 105.466 150.075 105.592 151.257 105.834C152.548 106.1 152.302 107.759 152.302 108.78Z" fill="#F7851E"/>
<path fill-rule="evenodd" clip-rule="evenodd" d="M135.879 109.656C137.675 109.64 139.213 109.871 140.496 108.784C141.702 107.735 143.721 106.319 142.304 102.728C141.749 101.32 142.543 100.937 143.204 100.244C144.163 99.2349 145.556 98.6599 146.968 99.3327C147.931 99.7943 148.745 100.87 148.686 102.071C147.841 107.458 146.503 109.683 143.012 112.015C140.927 113.407 137.613 112.015 135.883 109.66L135.879 109.656Z" fill="#F7851E"/>
<path fill-rule="evenodd" clip-rule="evenodd" d="M154.062 110.701C154.876 111.444 154.242 113.521 155.107 114.221C156.492 115.348 158.022 114.432 159.098 113.724C159.564 113.415 159.415 113.063 159.122 112.582C157.819 110.458 156.555 108.31 155.24 106.194C153.632 103.604 153.511 100.686 154.426 97.6859C155.123 98.1749 155.342 98.8438 155.569 99.5088C156.246 101.488 157.396 103.069 159.083 104.367C160.362 105.353 161.121 104.406 162.017 103.937C162.906 103.471 163.434 102.861 163.007 101.645C162.307 99.6535 160.859 98.171 159.756 96.4654C158.997 95.2919 158.433 94.044 157.788 92.8274C157.369 92.0411 157.134 91.0749 157.999 90.5742C158.961 90.0148 159.024 91.2509 159.447 91.693C160.413 92.714 163.633 95.7182 164.302 95.3936C164.858 95.1236 164.616 94.3374 164.635 93.6958C164.799 87.9572 163.704 82.1442 165.676 76.4878C166.181 75.0443 167.128 74.2385 168.321 73.6478C169.424 73.1001 171.142 74.481 171.17 75.9909C171.228 79.5077 170.825 92.8626 170.305 95.9882C170.176 96.7666 170.285 97.4747 170.841 97.9597C173.04 96.5202 174.605 94.6973 175.403 92.1428C175.662 91.3175 176.832 90.7463 177.638 90.1322C177.943 89.8975 178.401 89.9483 178.721 90.2456C179.23 90.7189 179.195 91.4739 178.976 91.8886C178.009 93.6958 178.514 95.816 177.254 97.7133C176.335 99.102 175.462 100.675 174.476 102.067C172.645 104.653 171.682 107.446 171.584 110.587C171.553 111.655 171.764 112.664 172.84 112.958C173.803 113.22 174.687 112.711 175.403 111.941C176.472 110.787 180.044 106.48 180.529 105.212C180.721 104.715 181.179 104.782 181.445 105.443C181.672 106.006 181.762 106.542 181.766 107.129C181.781 110.384 180.936 113.478 180.107 116.588C179.555 118.653 178.334 120.457 177.692 122.381C176.636 125.546 169.104 133.862 167.617 136.605C173.627 133.514 178.534 129.536 183.977 125.988C184.313 128.3 182.063 134.121 181.504 135.306C179.555 139.441 176.8 142.836 173.611 146.04C172.124 147.53 170.727 149.146 169.209 150.613C167.628 152.142 165.875 153.519 164.232 154.951C162.287 156.649 160.041 157.756 158.026 159.266C157.024 160.017 151.852 162.184 150.173 162.606C144.233 164.109 138.243 165.2 132.166 165.928C131.039 166.064 129.939 166.452 128.828 166.726C128.327 166.874 127.756 166.956 126.762 167.32C128.523 166.01 130.886 163.534 132.013 160.873C138.536 157.333 138.247 157.744 138.556 150.237C138.665 147.581 138.751 144.913 138.759 142.249C138.759 141.58 138.716 140.868 139.424 140.555C140.203 140.215 140.618 140.9 141.005 141.385C142.077 142.734 143.251 143.916 145.012 144.323C145.924 144.534 146.448 144.381 146.143 143.282C145.951 142.594 145.826 141.866 145.442 141.26C143.376 137.958 143.576 134.304 143.772 130.651C143.815 129.872 144.014 129.102 144.37 128.401C145.204 126.774 146.542 126.414 148.064 127.431C148.768 127.901 149.453 128.401 150.165 128.855C150.603 129.137 151.147 129.45 151.593 129.016C151.969 128.648 151.715 128.057 151.429 127.768C148.608 124.916 148.702 122.698 150.294 117.613C152.337 114.679 152.763 112.817 154.078 110.701H154.062Z" fill="#8B4201"/>
<path fill-rule="evenodd" clip-rule="evenodd" d="M41.2732 67.7449C41.4532 64.1421 43.2414 61.3139 45.6048 58.7594C53.994 51.3974 66.4292 55.806 68.5148 66.6457C69.8139 73.4092 64.2889 80.959 57.5274 82.2734C48.8955 83.9515 40.5532 76.4878 41.2732 67.7449Z" fill="#8C4207"/>
<path fill-rule="evenodd" clip-rule="evenodd" d="M118.776 67.1894C118.76 74.3676 112.472 80.6148 105.269 80.6108C97.5837 80.6069 91.3426 74.348 91.4092 66.7122C91.4757 59.3618 97.6893 53.2438 105.081 53.2516C112.867 53.2594 118.792 59.2875 118.776 67.1855V67.1894Z" fill="#8C4207"/>
<path fill-rule="evenodd" clip-rule="evenodd" d="M67.0748 68.6681C67.2274 75.5098 61.9333 81.178 55.254 81.3267C48.5708 81.4753 43.0301 76.0497 42.8775 69.2079C42.7249 62.3661 48.019 56.6979 54.6983 56.5492C61.3816 56.4006 66.9222 61.8263 67.0748 68.6681Z" fill="#FCFDFB"/>
<path fill-rule="evenodd" clip-rule="evenodd" d="M117.289 66.9351C117.289 73.7769 111.87 79.3278 105.186 79.3278C98.5032 79.3278 93.0839 73.7808 93.0839 66.9351C93.0839 60.0894 98.5032 54.5425 105.186 54.5425C111.87 54.5425 117.289 60.0894 117.289 66.9351Z" fill="#FCFDFB"/>
<path fill-rule="evenodd" clip-rule="evenodd" d="M92.8256 94.1692C92.6026 95.0259 92.4304 96.2033 91.9961 97.2751C90.2431 101.566 87.4923 105.154 84.1116 108.303C82.3195 109.973 80.3278 110.325 78.1757 109.37C73.3511 107.235 69.6221 103.741 66.484 99.5714C66.0575 99.0042 65.9871 98.3783 66.3666 97.7446C66.8127 96.9974 67.5209 96.9779 68.2565 97.103C73.3433 97.9715 78.3792 97.2439 83.3877 96.4811C85.9037 96.0977 87.8797 94.5095 89.6836 92.757C90.2666 92.1898 90.9826 91.783 91.8043 92.1194C92.5361 92.4167 92.7982 93.1052 92.8256 94.1692Z" fill="#45190E"/>
<path fill-rule="evenodd" clip-rule="evenodd" d="M109.89 48.9016C106.736 48.5769 103.703 48.3031 100.679 47.9393C99.6223 47.8102 98.5345 47.376 98.3193 46.2142C98.0806 44.935 99.2271 44.4343 100.139 44.0001C101.187 43.4994 102.295 43.0652 103.422 42.7992C106.932 41.9698 110.187 44.3717 110.739 48.0019C110.895 49.0229 110.344 48.882 109.89 48.9016Z" fill="#56281B"/>
<path fill-rule="evenodd" clip-rule="evenodd" d="M50.402 43.0339C52.1237 43.1043 53.7123 43.6637 55.2266 44.4265C56.0835 44.8568 57.1674 45.291 56.9326 46.5037C56.7096 47.642 55.7196 48.174 54.6397 48.3266C52.781 48.5848 50.9107 48.7608 49.0403 48.9407C48.2656 49.0151 47.4791 49.0033 46.7004 49.0464C46.0156 49.0855 45.1352 49.5706 44.7518 48.7765C44.4622 48.174 44.8887 47.4151 45.2213 46.7697C46.313 44.6377 47.6943 42.9244 50.402 43.0339Z" fill="#55281C"/>
<path fill-rule="evenodd" clip-rule="evenodd" d="M57.7074 64.7132C52.8202 63.0898 47.8234 65.8867 46.5635 70.9369C45.8474 73.8042 46.3326 75.854 48.3086 78.6549C50.2416 80.5795 52.198 81.354 54.7453 81.4401C57.9539 81.5496 59.3038 80.6773 61.4559 78.5923C62.1094 77.8412 62.4576 77.0197 62.6533 76.5777C64.8054 71.727 62.5359 66.3131 57.7074 64.7092V64.7132ZM55.5592 79.0108C54.131 78.8896 53.141 78.1268 53.0315 76.5699C52.9297 75.0951 53.998 73.9411 55.4692 73.8942C56.9326 73.8472 58.0987 74.9465 58.1143 76.3821C58.13 77.7904 56.9209 79.1243 55.5592 79.0108Z" fill="#54281D"/>
<path fill-rule="evenodd" clip-rule="evenodd" d="M111.455 65.0457C108.602 62.151 104.118 61.6307 100.722 63.8018C97.212 66.0432 95.7837 70.4088 97.2707 74.3324C97.9319 76.0458 98.6402 76.7225 99.5793 77.5088C100.331 77.9782 100.835 78.5298 101.688 78.8153C105.742 80.1766 109.275 79.6603 112.151 76.2844C114.683 72.3765 114.413 68.0539 111.455 65.0496V65.0457ZM105.985 77.5205C104.482 77.4853 103.57 76.6951 103.437 75.1695C103.312 73.7182 104.42 72.5016 105.84 72.4508C107.217 72.3999 108.501 73.5813 108.544 74.9387C108.587 76.3352 107.421 77.5557 105.981 77.5205H105.985Z" fill="#54281D"/>
<path fill-rule="evenodd" clip-rule="evenodd" d="M60.9472 84.1392C62.6611 84.0962 64.3319 84.327 65.8892 85.0781C66.4683 85.3558 67.1022 85.6844 67.0827 86.4746C67.067 87.1474 66.5544 87.5347 66.0223 87.7616C62.618 89.205 59.1747 89.2793 55.8096 87.7107C54.354 87.034 54.3892 85.8917 55.8292 85.1367C57.4139 84.3035 59.163 84.0727 60.9511 84.1431L60.9472 84.1392Z" fill="#070203"/>
</g>
<defs>
<clipPath id="clip0_668_2911">
<rect width="184" height="194.171" fill="white"/>
</clipPath>
</defs>
</svg>
