<svg width="693" height="369" viewBox="0 0 693 369" fill="none" xmlns="http://www.w3.org/2000/svg">
<path d="M678.512 368.28C685.997 368.28 692.065 362.169 692.065 354.632C692.065 347.095 685.997 340.985 678.512 340.985C671.027 340.985 664.959 347.095 664.959 354.632C664.959 362.169 671.027 368.28 678.512 368.28Z" fill="#ED4883"/>
<path d="M9.59978 364.299C14.9016 364.299 19.1996 359.971 19.1996 354.632C19.1996 349.293 14.9016 344.965 9.59978 344.965C4.29797 344.965 0 349.293 0 354.632C0 359.971 4.29797 364.299 9.59978 364.299Z" fill="#ED4883"/>
<path d="M142.845 27.7116C141.083 27.7116 139.321 27.0293 138 25.6532L124.978 12.222C122.358 9.52661 122.414 5.20497 125.091 2.57786C127.768 -0.0606136 132.059 -0.00375158 134.668 2.69159L147.69 16.1228C150.31 18.8181 150.254 23.1398 147.577 25.7669C146.256 27.0634 144.55 27.7116 142.845 27.7116Z" fill="#FFE984"/>
<path d="M61.958 135.321C56.8758 135.321 51.466 133.478 47.3099 128.463C45.5142 126.302 42.318 125.688 37.8343 126.655C33.9493 127.485 30.674 129.236 30.6402 129.248L27.7602 123.152C27.9183 123.072 31.7357 121.025 36.4339 119.99C45.0963 118.08 49.7381 121.082 52.0985 123.937C57.7567 130.749 66.8257 128.611 70.4284 125.95L74.065 131.556C71.1512 133.706 66.7014 135.309 61.958 135.309V135.321Z" fill="#882FB1"/>
</svg>
