<svg width="18" height="22" viewBox="0 0 18 22" fill="none" xmlns="http://www.w3.org/2000/svg">
<path d="M17 7.01255L11 1.75255C9.86 0.732549 8.14 0.732549 7 1.75255L1 7.01255C0.36 7.59255 0 8.41255 0 9.27255V18.0125C0 19.6725 1.34 21.0125 3 21.0125H15C16.66 21.0125 18 19.6725 18 18.0125V9.26255C18 8.40255 17.64 7.58255 17 7.01255ZM11 19.0125H7V14.0125C7 13.4625 7.45 13.0125 8 13.0125H10C10.55 13.0125 11 13.4625 11 14.0125V19.0125ZM16 18.0125C16 18.5625 15.55 19.0125 15 19.0125H13V14.0125C13 12.3525 11.66 11.0125 10 11.0125H8C6.34 11.0125 5 12.3525 5 14.0125V19.0125H3C2.45 19.0125 2 18.5625 2 18.0125V9.26255C2 8.97255 2.12 8.70255 2.34 8.51255L8.34 3.26255C8.72 2.93255 9.28 2.93255 9.66 3.26255L15.66 8.51255C15.88 8.70255 16 8.97255 16 9.26255V18.0125Z" fill="#0061A1"/>
</svg>
