<svg width="120" height="120" viewBox="0 0 120 120" fill="none" xmlns="http://www.w3.org/2000/svg">
<g clip-path="url(#clip0_636_2044)">
<path d="M62.1558 110.572C89.9961 110.572 112.565 88.0032 112.565 60.1629C112.565 32.3226 89.9961 9.75354 62.1558 9.75354C34.3155 9.75354 11.7464 32.3226 11.7464 60.1629C11.7464 88.0032 34.3155 110.572 62.1558 110.572Z" fill="#AEE4FB"/>
<path d="M24.7192 59.0834H3.2959V94.4568H24.7192V59.0834Z" fill="#F6AE42"/>
<path d="M26.7887 42.1632H13.19V59.0898H26.7887V42.1632Z" fill="#E8605D"/>
<path d="M47.3114 42.1632H26.7887V59.0898H47.3114V42.1632Z" fill="#FF8500"/>
<path d="M43.5556 45.7784H32.4735V57.1416H43.5556V45.7784Z" fill="#E8605D"/>
<path d="M43.5493 45.7784H39.3655V57.1416H43.5493V45.7784Z" fill="#F25115"/>
<path d="M43.5556 45.7784H32.4735V57.1416H43.5556V45.7784Z" stroke="#350605" stroke-linecap="round" stroke-linejoin="round"/>
<path d="M16.2623 42.1632H11.1141V59.0898H16.2623V42.1632Z" fill="#F6AE42"/>
<path d="M48.7039 38.1455H8.7124V42.1632H48.7039V38.1455Z" fill="#F07B74"/>
<path d="M48.7039 38.1455H24.7512V42.1632H48.7039V38.1455Z" fill="#FEE882"/>
<path d="M48.7039 38.1455V42.1632H8.7124V38.1455" stroke="#350605" stroke-linecap="round" stroke-linejoin="round"/>
<path d="M8.7124 38.1455H48.7039" stroke="#350605" stroke-linecap="round" stroke-linejoin="round"/>
<path d="M27.2719 42.1489L22.1238 42.1768L22.2154 59.1031L27.3635 59.0753L27.2719 42.1489Z" fill="#F6AE42"/>
<path d="M24.7192 59.0834H3.2959V94.4568H24.7192V59.0834Z" stroke="#350605" stroke-linecap="round" stroke-linejoin="round"/>
<path d="M55.7364 59.0834H24.7128V94.4568H55.7364V59.0834Z" fill="#FEE882"/>
<path d="M55.7364 59.0834H24.7128V94.4568H55.7364V59.0834Z" stroke="#350605" stroke-linecap="round" stroke-linejoin="round"/>
<path d="M38.0114 75.0966H26.9293V94.4631H38.0114V75.0966Z" fill="#E8605D"/>
<path d="M38.0114 75.0966H33.8276V94.4631H38.0114V75.0966Z" fill="#FF8500"/>
<path d="M51.3099 65.3813H40.2278V76.7445H51.3099V65.3813Z" fill="#E8605D"/>
<path d="M51.31 65.3813H47.1262V76.7445H51.31V65.3813Z" fill="#FF8500"/>
<path d="M51.3099 65.3813H40.2278V76.7445H51.3099V65.3813Z" stroke="#350605" stroke-linecap="round" stroke-linejoin="round"/>
<path d="M17.3801 55.73V60.5397H9.9899V55.73H8.02258V94.4568H9.9899V91.2439H17.3801V94.4568H19.3474V55.73H17.3801ZM19.3474 94.4568V55.73V94.4568ZM17.3801 62.5134V65.3302H9.9899V62.5134H17.3801ZM9.9899 79.7019V76.885H17.3801V79.7019H9.9899ZM17.3801 81.6692V84.486H9.9899V81.6692H17.3801ZM9.9899 74.9113V72.0945H17.3801V74.9113H9.9899ZM9.9899 70.1208V67.3039H17.3801V70.1208H9.9899ZM9.9899 89.2766V86.4597H17.3801V89.2766H9.9899Z" fill="#F07B74"/>
<path d="M17.3801 55.73V60.5397H9.9899V55.73H8.02258V94.4568H9.9899V91.2439H17.3801V94.4568H19.3474V55.73H17.3801ZM19.3474 94.4568V55.73ZM17.3801 62.5134V65.3302H9.9899V62.5134H17.3801ZM9.9899 79.7019V76.885H17.3801V79.7019H9.9899ZM17.3801 81.6692V84.486H9.9899V81.6692H17.3801ZM9.9899 74.9113V72.0945H17.3801V74.9113H9.9899ZM9.9899 70.1208V67.3039H17.3801V70.1208H9.9899ZM9.9899 89.2766V86.4597H17.3801V89.2766H9.9899Z" stroke="#350605" stroke-linecap="round" stroke-linejoin="round"/>
<path d="M108.139 36.932H47.3561V52.8238H108.139V36.932Z" fill="#8FB8EA"/>
<path d="M108.139 36.932H47.3561V52.8238H108.139V36.932Z" stroke="#350605" stroke-linecap="round" stroke-linejoin="round"/>
<path d="M103.284 59.3708H48.0204V89.2255H103.284V59.3708Z" fill="#8FB8EA"/>
<path d="M51.7379 63.957V89.2256H47.618L48.0651 63.957H51.7379Z" fill="#B9EDFC"/>
<path d="M55.8514 89.2256H51.7379V63.957H55.4106L55.8514 89.2256Z" fill="#ADCCFA"/>
<path d="M55.449 66.3012H48.0204L48.0651 63.957H55.4106L55.449 66.3012Z" fill="#A3A3F5"/>
<path d="M55.4106 63.957H51.7379H48.0651L47.618 89.2256H51.7379H55.8514L55.4106 63.957Z" stroke="#350605" stroke-linecap="round" stroke-linejoin="round"/>
<path d="M56.7839 61.5681H46.6918V63.957H56.7839V61.5681Z" stroke="#350605" stroke-linecap="round" stroke-linejoin="round"/>
<path d="M64.7426 63.957V89.2256H60.6228L61.0699 63.957H64.7426Z" fill="#B9EDFC"/>
<path d="M68.8625 89.2256H64.7426V63.957H68.4154L68.8625 89.2256Z" fill="#ADCCFA"/>
<path d="M68.4537 66.3012H61.0316L61.0699 63.957H68.4154L68.4537 66.3012Z" fill="#A3A3F5"/>
<path d="M68.4154 63.957H64.7426H61.0699L60.6228 89.2256H64.7426H68.8625L68.4154 63.957Z" stroke="#350605" stroke-linecap="round" stroke-linejoin="round"/>
<path d="M69.7887 61.5681H59.6966V63.957H69.7887V61.5681Z" stroke="#350605" stroke-linecap="round" stroke-linejoin="round"/>
<path d="M90.7585 63.957V89.2256H86.6386L87.0858 63.957H90.7585Z" fill="#B9EDFC"/>
<path d="M94.872 89.2256H90.7585V63.957H94.4249L94.872 89.2256Z" fill="#ADCCFA"/>
<path d="M94.4696 66.3012H87.041L87.0858 63.957H94.4249L94.4696 66.3012Z" fill="#A3A3F5"/>
<path d="M94.4249 63.957H90.7585H87.0858L86.6386 89.2256H90.7585H94.872L94.4249 63.957Z" stroke="#350605" stroke-linecap="round" stroke-linejoin="round"/>
<path d="M95.8046 61.5681H85.7125V63.957H95.8046V61.5681Z" stroke="#350605" stroke-linecap="round" stroke-linejoin="round"/>
<path d="M103.763 63.957V89.2256H99.6433L100.09 63.957H103.763Z" fill="#B9EDFC"/>
<path d="M107.877 89.2256H103.763V63.957H107.436L107.877 89.2256Z" fill="#ADCCFA"/>
<path d="M107.474 66.3012H100.046L100.09 63.957H107.436L107.474 66.3012Z" fill="#A3A3F5"/>
<path d="M107.436 63.957H103.763H100.09L99.6433 89.2256H103.763H107.877L107.436 63.957Z" stroke="#350605" stroke-linecap="round" stroke-linejoin="round"/>
<path d="M108.809 61.5681H98.7172V63.957H108.809V61.5681Z" fill="#ADCCFA"/>
<path d="M56.7839 61.5681H46.6918V63.957H56.7839V61.5681Z" stroke="#350605" stroke-linecap="round" stroke-linejoin="round"/>
<path d="M69.7887 61.5681H59.6966V63.957H69.7887V61.5681Z" stroke="#350605" stroke-linecap="round" stroke-linejoin="round"/>
<path d="M95.8045 61.5681H85.7124V63.957H95.8045V61.5681Z" stroke="#350605" stroke-linecap="round" stroke-linejoin="round"/>
<path d="M108.809 61.5681H98.7172V63.957H108.809V61.5681Z" stroke="#350605" stroke-linecap="round" stroke-linejoin="round"/>
<path d="M81.0497 33.387L59.5305 52.8238H52.9387L77.7474 30.4041L81.0497 33.387Z" fill="#A3A3F5"/>
<path d="M102.562 52.8238H59.5305L81.0497 33.387L102.562 52.8238Z" fill="#ADCCFA"/>
<path d="M77.7474 22.4006L37.5068 58.7641H117.982L77.741 22.4006H77.7474ZM77.7474 30.404L102.562 52.8238H52.9387L77.7538 30.404H77.7474Z" fill="#B9EDFC"/>
<path d="M77.7474 22.4006L37.5068 58.7641H117.982L77.741 22.4006H77.7474ZM77.7474 30.404L102.562 52.8238H52.9387L77.7538 30.404H77.7474Z" stroke="#350605" stroke-linecap="round" stroke-linejoin="round"/>
<path d="M114.392 58.764H41.1029V61.5681H114.392V58.764Z" fill="#8FB8EA"/>
<path d="M114.392 58.764H41.1029V61.5681H114.392V58.764Z" stroke="#350605" stroke-linecap="round" stroke-linejoin="round"/>
<path d="M111.792 89.2256H43.7089V92.5662H111.792V89.2256Z" fill="#ADCCFA"/>
<path d="M111.792 89.2256H43.7089V92.5662H111.792V89.2256Z" stroke="#350605" stroke-linecap="round" stroke-linejoin="round"/>
<path d="M114.647 92.5598H40.8538V95.9004H114.647V92.5598Z" fill="#B9EDFC"/>
<path d="M114.647 92.5598H40.8538V95.9004H114.647V92.5598Z" stroke="#350605" stroke-linecap="round" stroke-linejoin="round"/>
<path d="M117.055 95.9004H38.4393V97.0118H117.055V95.9004Z" fill="#350605"/>
<path d="M82.7934 89.2256V78.2648C82.7934 75.5374 80.5834 73.3274 77.8559 73.3274C75.1285 73.3274 72.9185 75.5374 72.9185 78.2648V89.2256H82.787H82.7934Z" fill="#A3A3F5"/>
<path d="M82.7934 89.2256V78.2648C82.7934 75.5374 80.5834 73.3274 77.8559 73.3274C75.1285 73.3274 72.9185 75.5374 72.9185 78.2648V89.2256H82.787H82.7934Z" stroke="#350605" stroke-linecap="round" stroke-linejoin="round"/>
<path d="M19.5391 59.0834H26.7887V42.1632H16.2623H13.19H11.1141V59.0834H13.19H16.2623H17.1118" stroke="#350605" stroke-linecap="round" stroke-linejoin="round"/>
<path d="M38.0114 75.0966H26.9293V94.4631H38.0114V75.0966Z" stroke="#350605" stroke-linecap="round" stroke-linejoin="round"/>
</g>
<defs>
<clipPath id="clip0_636_2044">
<rect width="120" height="120" fill="white"/>
</clipPath>
</defs>
</svg>
