<svg width="120" height="120" viewBox="0 0 120 120" fill="none" xmlns="http://www.w3.org/2000/svg">
<g clip-path="url(#clip0_636_2130)">
<path d="M57.5185 110.572C85.3588 110.572 107.928 88.0032 107.928 60.1629C107.928 32.3226 85.3588 9.75354 57.5185 9.75354C29.6782 9.75354 7.10919 32.3226 7.10919 60.1629C7.10919 88.0032 29.6782 110.572 57.5185 110.572Z" fill="#AEE4FB"/>
<path d="M21.9344 70.6446C21.9344 70.6446 24.4191 37.1938 45.638 30.883C45.638 30.883 64.7171 26.035 75.3585 34.5175C87.1114 43.8814 92.2724 53.4433 93.3263 61.4723C94.3802 69.5012 90.9949 102.384 73.7361 103.527C54.3376 104.811 42.1952 104.006 42.1952 104.006C42.1952 104.006 20.2161 101.138 21.9344 70.6509V70.6446Z" fill="#F8C895"/>
<path d="M65.2665 98.449C82.5316 97.3056 85.9105 64.4233 84.8566 56.3943C83.8666 48.8444 79.2421 39.9404 68.9137 31.113C58.4319 27.6319 45.638 30.8831 45.638 30.8831C24.4191 37.1938 21.9344 70.6446 21.9344 70.6446C21.1104 85.2462 25.7221 93.5051 30.7554 98.1615C32.5502 98.7747 33.7319 98.9344 33.7319 98.9344C33.7319 98.9344 45.8679 99.7392 65.2728 98.4553L65.2665 98.449Z" fill="#FEE882"/>
<path d="M52.6577 104.568C46.0276 104.568 42.2399 104.325 42.1696 104.319C41.9269 104.287 19.8904 101.061 21.6086 70.6254C21.6342 70.2805 24.3552 36.8744 45.5358 30.5765C45.7402 30.5254 64.9024 25.7795 75.5502 34.262C88.9573 44.9417 92.7833 54.9252 93.6329 61.4212C94.4185 67.4062 92.7578 87.6862 84.3712 97.906C81.3627 101.572 77.7857 103.565 73.7425 103.833C65.177 104.402 57.9912 104.562 52.6513 104.562L52.6577 104.568ZM22.2473 70.6701C21.7619 79.2803 22.9883 91.097 31.5985 98.4936C36.7467 102.92 42.1824 103.68 42.2335 103.687C42.3357 103.687 54.5548 104.472 73.7106 103.208C77.5686 102.952 80.9922 101.036 83.8857 97.51C92.151 87.4371 93.7798 67.4253 93.0069 61.5106C92.1702 55.136 88.3952 45.3186 75.1541 34.7666C69.7312 30.4487 62.028 29.7078 56.5221 29.8419C50.5243 29.9888 45.7593 31.1833 45.7082 31.196C25.0067 37.3535 22.2857 70.1911 22.2473 70.6637V70.6701Z" fill="#350605"/>
<path d="M68.952 22.4133L74.4323 13.4901C74.4323 13.4901 75.7098 11.7081 73.3465 10.5583C70.9895 9.4086 67.2912 12.0849 67.2912 12.0849C67.2912 12.0849 65.5092 13.4838 64.1039 12.4043C62.6987 11.3248 61.3637 9.08923 59.1345 9.08923H56.9053C54.6761 9.08923 53.3348 11.3184 51.9359 12.4043C50.5371 13.4901 48.7486 12.0849 48.7486 12.0849C48.7486 12.0849 45.0503 9.4086 42.6934 10.5583C40.3364 11.7081 41.6075 13.4901 41.6075 13.4901L47.0879 22.4133" fill="#FEE882"/>
<path d="M68.952 22.7327C68.8945 22.7327 68.837 22.72 68.7859 22.688C68.6326 22.5986 68.5879 22.4006 68.6837 22.2473L74.1641 13.3305C74.1641 13.3305 74.5856 12.7173 74.4196 12.0658C74.2982 11.5867 73.8894 11.1843 73.2123 10.8522C71.0534 9.79827 67.5212 12.3277 67.4892 12.3532C67.419 12.4107 65.5028 13.8862 63.9187 12.6662C63.5099 12.3532 63.1203 11.9572 62.7115 11.5356C61.6831 10.4945 60.6228 9.41503 59.1473 9.41503H56.9181C55.4426 9.41503 54.3823 10.4945 53.3539 11.5356C52.9387 11.9572 52.5491 12.3468 52.1467 12.6662C50.569 13.8862 48.6464 12.4107 48.5698 12.3468C48.5442 12.3277 45.012 9.80466 42.853 10.8522C42.176 11.1843 41.7672 11.5931 41.6458 12.0658C41.4798 12.7109 41.8886 13.305 41.8886 13.3113L47.3817 22.2473C47.4711 22.4006 47.4264 22.5922 47.2795 22.688C47.1262 22.7838 46.9346 22.7327 46.8388 22.5858L41.3584 13.669C41.3584 13.669 40.7899 12.8578 41.0263 11.9189C41.1987 11.2482 41.7161 10.6989 42.572 10.2837C45.0759 9.06372 48.7933 11.7273 48.953 11.8422C48.9786 11.8614 50.569 13.0814 51.7571 12.168C52.1275 11.8806 52.5044 11.4973 52.9004 11.0949C53.9671 10.0154 55.1807 8.78906 56.9181 8.78906H59.1473C60.8911 8.78906 62.0983 10.0154 63.165 11.0949C63.561 11.4973 63.9378 11.8806 64.3083 12.168C65.49 13.0814 67.0868 11.8614 67.0996 11.8486C67.2657 11.7273 70.9895 9.06372 73.487 10.2837C74.3429 10.6989 74.8667 11.2482 75.0328 11.9189C75.2691 12.8578 74.7134 13.6499 74.6878 13.6882L69.2202 22.5922C69.1627 22.688 69.0542 22.7455 68.9456 22.7455L68.952 22.7327Z" fill="#350605"/>
<path d="M46.941 73.7744H24.9747C23.2991 73.7744 21.9407 75.1328 21.9407 76.8084V78.3861C21.9407 80.0618 23.2991 81.4201 24.9747 81.4201H46.941C48.6166 81.4201 49.975 80.0618 49.975 78.3861V76.8084C49.975 75.1328 48.6166 73.7744 46.941 73.7744Z" fill="#F6AE42"/>
<path d="M49.0489 73.7744H42.7956V81.4201H49.0489V73.7744Z" fill="#D38F35"/>
<g opacity="0.3">
<path d="M30.8 73.7744H26.974V81.4201H30.8V73.7744Z" fill="white"/>
</g>
<path d="M46.941 81.7395H24.9747C23.1224 81.7395 21.6213 80.2321 21.6213 78.3861V76.8085C21.6213 74.9561 23.1288 73.4551 24.9747 73.4551H46.941C48.7933 73.4551 50.2944 74.9625 50.2944 76.8085V78.3861C50.2944 80.2385 48.7869 81.7395 46.941 81.7395ZM24.9747 74.0938C23.4801 74.0938 22.2601 75.3138 22.2601 76.8085V78.3861C22.2601 79.8808 23.4801 81.1008 24.9747 81.1008H46.941C48.4356 81.1008 49.6556 79.8808 49.6556 78.3861V76.8085C49.6556 75.3138 48.4356 74.0938 46.941 74.0938H24.9747Z" fill="#350605"/>
<path d="M112.335 55.8386H76.2527C74.2878 55.8386 72.6949 57.4315 72.6949 59.3964V64.2189C72.6949 66.1838 74.2878 67.7767 76.2527 67.7767H112.335C114.3 67.7767 115.893 66.1838 115.893 64.2189V59.3964C115.893 57.4315 114.3 55.8386 112.335 55.8386Z" fill="#57BD63"/>
<path d="M113.996 55.8387H113.165C113.185 55.9409 113.191 56.0431 113.191 56.1516V64.302C113.191 65.3431 112.342 66.199 111.294 66.199H72.7141C72.8674 67.0933 73.6467 67.7767 74.5792 67.7767H113.989C115.031 67.7767 115.887 66.9272 115.887 65.8796V57.7293C115.887 56.6882 115.037 55.8323 113.989 55.8323L113.996 55.8387Z" fill="#438559"/>
<path d="M101.809 55.8386H86.9006V67.7767H101.809V55.8386Z" fill="#CCAF9F"/>
<path d="M101.809 55.8386H86.9006V66.199H101.809V55.8386Z" fill="#F5F2C6"/>
<path d="M112.335 68.0961H76.2528C74.113 68.0961 72.3756 66.3587 72.3756 64.2189V59.3964C72.3756 57.2567 74.113 55.5193 76.2528 55.5193H112.335C114.475 55.5193 116.212 57.2567 116.212 59.3964V64.2189C116.212 66.3587 114.475 68.0961 112.335 68.0961ZM76.2528 56.158C74.4643 56.158 73.0143 57.6144 73.0143 59.3964V64.2189C73.0143 66.0074 74.4707 67.4573 76.2528 67.4573H112.335C114.124 67.4573 115.574 66.001 115.574 64.2189V59.3964C115.574 57.608 114.117 56.158 112.335 56.158H76.2528Z" fill="#350605"/>
<path d="M86.9005 68.0961C86.7217 68.0961 86.5812 67.9555 86.5812 67.7767V55.8387C86.5812 55.6598 86.7217 55.5193 86.9005 55.5193C87.0794 55.5193 87.2199 55.6598 87.2199 55.8387V67.7767C87.2199 67.9555 87.0794 68.0961 86.9005 68.0961Z" fill="#350605"/>
<path d="M89.8962 68.0961C89.7174 68.0961 89.5768 67.9555 89.5768 67.7767V55.8387C89.5768 55.6598 89.7174 55.5193 89.8962 55.5193C90.0751 55.5193 90.2156 55.6598 90.2156 55.8387V67.7767C90.2156 67.9555 90.0751 68.0961 89.8962 68.0961Z" fill="#350605"/>
<path d="M98.8833 68.0961C98.7044 68.0961 98.5639 67.9555 98.5639 67.7767V55.8387C98.5639 55.6598 98.7044 55.5193 98.8833 55.5193C99.0621 55.5193 99.2026 55.6598 99.2026 55.8387V67.7767C99.2026 67.9555 99.0621 68.0961 98.8833 68.0961Z" fill="#350605"/>
<path d="M101.809 68.0961C101.63 68.0961 101.489 67.9555 101.489 67.7767V55.8387C101.489 55.6598 101.63 55.5193 101.809 55.5193C101.988 55.5193 102.128 55.6598 102.128 55.8387V67.7767C102.128 67.9555 101.988 68.0961 101.809 68.0961Z" fill="#350605"/>
<path d="M83.7771 59.3644H75.8759C75.697 59.3644 75.5565 59.2239 75.5565 59.0451C75.5565 58.8662 75.697 58.7257 75.8759 58.7257H83.7771C83.9559 58.7257 84.0965 58.8662 84.0965 59.0451C84.0965 59.2239 83.9559 59.3644 83.7771 59.3644Z" fill="#350605"/>
<path d="M82.4805 64.8449H78.0796C77.9007 64.8449 77.7602 64.7044 77.7602 64.5255C77.7602 64.3467 77.9007 64.2062 78.0796 64.2062H82.4805C82.6593 64.2062 82.7999 64.3467 82.7999 64.5255C82.7999 64.7044 82.6593 64.8449 82.4805 64.8449Z" fill="#350605"/>
<path d="M86.9005 62.6157H75.8759C75.697 62.6157 75.5565 62.4751 75.5565 62.2963C75.5565 62.1175 75.697 61.9769 75.8759 61.9769H86.9005C87.0794 61.9769 87.2199 62.1175 87.2199 62.2963C87.2199 62.4751 87.0794 62.6157 86.9005 62.6157Z" fill="#350605"/>
<path d="M113.197 59.3644H105.296C105.117 59.3644 104.977 59.2239 104.977 59.0451C104.977 58.8662 105.117 58.7257 105.296 58.7257H113.197C113.376 58.7257 113.517 58.8662 113.517 59.0451C113.517 59.2239 113.376 59.3644 113.197 59.3644Z" fill="#350605"/>
<path d="M110.994 64.8449H106.593C106.414 64.8449 106.273 64.7044 106.273 64.5255C106.273 64.3467 106.414 64.2062 106.593 64.2062H110.994C111.173 64.2062 111.313 64.3467 111.313 64.5255C111.313 64.7044 111.173 64.8449 110.994 64.8449Z" fill="#350605"/>
<path d="M113.197 62.6157H102.173C101.994 62.6157 101.853 62.4751 101.853 62.2963C101.853 62.1175 101.994 61.9769 102.173 61.9769H113.197C113.376 61.9769 113.517 62.1175 113.517 62.2963C113.517 62.4751 113.376 62.6157 113.197 62.6157Z" fill="#350605"/>
<path d="M108.592 67.7766H72.5097C70.5448 67.7766 68.952 69.3695 68.952 71.3344V76.1569C68.952 78.1218 70.5448 79.7147 72.5097 79.7147H108.592C110.557 79.7147 112.15 78.1218 112.15 76.1569V71.3344C112.15 69.3695 110.557 67.7766 108.592 67.7766Z" fill="#57BD63"/>
<path d="M110.259 67.7767H109.429C109.448 67.8789 109.454 67.981 109.454 68.0896V76.24C109.454 77.2811 108.605 78.137 107.557 78.137H68.9775C69.1308 79.0312 69.91 79.7147 70.8426 79.7147H110.253C111.294 79.7147 112.15 78.8652 112.15 77.8176V69.6673C112.15 68.6262 111.3 67.7703 110.253 67.7703L110.259 67.7767Z" fill="#438559"/>
<path d="M98.0721 67.7766H83.1639V79.7147H98.0721V67.7766Z" fill="#CCAF9F"/>
<path d="M98.0721 67.7766H83.1639V78.137H98.0721V67.7766Z" fill="#F5F2C6"/>
<path d="M108.592 80.0341H72.5097C70.3699 80.0341 68.6326 78.2967 68.6326 76.1569V71.3344C68.6326 69.1946 70.3699 67.4573 72.5097 67.4573H108.592C110.732 67.4573 112.469 69.1946 112.469 71.3344V76.1569C112.469 78.2967 110.732 80.0341 108.592 80.0341ZM72.5097 68.096C70.7212 68.096 69.2713 69.5523 69.2713 71.3344V76.1569C69.2713 77.9454 70.7276 79.3953 72.5097 79.3953H108.592C110.381 79.3953 111.831 77.939 111.831 76.1569V71.3344C111.831 69.546 110.374 68.096 108.592 68.096H72.5097Z" fill="#350605"/>
<path d="M83.1639 80.0341C82.9851 80.0341 82.8445 79.8935 82.8445 79.7147V67.7766C82.8445 67.5978 82.9851 67.4573 83.1639 67.4573C83.3428 67.4573 83.4833 67.5978 83.4833 67.7766V79.7147C83.4833 79.8935 83.3428 80.0341 83.1639 80.0341Z" fill="#350605"/>
<path d="M86.1596 80.0341C85.9807 80.0341 85.8402 79.8935 85.8402 79.7147V67.7766C85.8402 67.5978 85.9807 67.4573 86.1596 67.4573C86.3384 67.4573 86.4789 67.5978 86.4789 67.7766V79.7147C86.4789 79.8935 86.3384 80.0341 86.1596 80.0341Z" fill="#350605"/>
<path d="M95.1403 80.0341C94.9614 80.0341 94.8209 79.8935 94.8209 79.7147V67.7766C94.8209 67.5978 94.9614 67.4573 95.1403 67.4573C95.3191 67.4573 95.4597 67.5978 95.4597 67.7766V79.7147C95.4597 79.8935 95.3191 80.0341 95.1403 80.0341Z" fill="#350605"/>
<path d="M98.0721 80.0341C97.8932 80.0341 97.7527 79.8935 97.7527 79.7147V67.7766C97.7527 67.5978 97.8932 67.4573 98.0721 67.4573C98.2509 67.4573 98.3914 67.5978 98.3914 67.7766V79.7147C98.3914 79.8935 98.2509 80.0341 98.0721 80.0341Z" fill="#350605"/>
<path d="M80.0405 71.3089H72.1393C71.9604 71.3089 71.8199 71.1684 71.8199 70.9895C71.8199 70.8107 71.9604 70.6702 72.1393 70.6702H80.0405C80.2193 70.6702 80.3598 70.8107 80.3598 70.9895C80.3598 71.1684 80.2193 71.3089 80.0405 71.3089Z" fill="#350605"/>
<path d="M78.7438 76.7893H74.3429C74.1641 76.7893 74.0236 76.6487 74.0236 76.4699C74.0236 76.291 74.1641 76.1505 74.3429 76.1505H78.7438C78.9227 76.1505 79.0632 76.291 79.0632 76.4699C79.0632 76.6487 78.9227 76.7893 78.7438 76.7893Z" fill="#350605"/>
<path d="M83.1639 74.5537H72.1393C71.9604 74.5537 71.8199 74.4131 71.8199 74.2343C71.8199 74.0554 71.9604 73.9149 72.1393 73.9149H83.1639C83.3427 73.9149 83.4833 74.0554 83.4833 74.2343C83.4833 74.4131 83.3427 74.5537 83.1639 74.5537Z" fill="#350605"/>
<path d="M109.454 71.3089H101.553C101.374 71.3089 101.234 71.1684 101.234 70.9895C101.234 70.8107 101.374 70.6702 101.553 70.6702H109.454C109.633 70.6702 109.774 70.8107 109.774 70.9895C109.774 71.1684 109.633 71.3089 109.454 71.3089Z" fill="#350605"/>
<path d="M107.257 76.7893H102.856C102.677 76.7893 102.537 76.6487 102.537 76.4699C102.537 76.291 102.677 76.1505 102.856 76.1505H107.257C107.436 76.1505 107.577 76.291 107.577 76.4699C107.577 76.6487 107.436 76.7893 107.257 76.7893Z" fill="#350605"/>
<path d="M109.454 74.5537H98.4298C98.2509 74.5537 98.1104 74.4131 98.1104 74.2343C98.1104 74.0554 98.2509 73.9149 98.4298 73.9149H109.454C109.633 73.9149 109.774 74.0554 109.774 74.2343C109.774 74.4131 109.633 74.5537 109.454 74.5537Z" fill="#350605"/>
<path d="M113.185 79.7147H77.1023C75.1374 79.7147 73.5445 81.3076 73.5445 83.2725V88.095C73.5445 90.0599 75.1374 91.6528 77.1023 91.6528H113.185C115.15 91.6528 116.742 90.0599 116.742 88.095V83.2725C116.742 81.3076 115.15 79.7147 113.185 79.7147Z" fill="#57BD63"/>
<path d="M114.845 79.7148H114.015C114.034 79.817 114.041 79.9192 114.041 80.0277V88.1781C114.041 89.2192 113.191 90.0751 112.144 90.0751H73.5637C73.717 90.9694 74.4962 91.6528 75.4288 91.6528H114.839C115.88 91.6528 116.736 90.8033 116.736 89.7557V81.6054C116.736 80.5643 115.887 79.7084 114.839 79.7084L114.845 79.7148Z" fill="#438559"/>
<path d="M102.658 79.7147H87.7501V91.6528H102.658V79.7147Z" fill="#CCAF9F"/>
<path d="M102.658 79.7147H87.7501V90.0751H102.658V79.7147Z" fill="#F5F2C6"/>
<path d="M113.185 91.9785H77.1022C74.9625 91.9785 73.2251 90.2411 73.2251 88.1014V83.2789C73.2251 81.1391 74.9625 79.4017 77.1022 79.4017H113.185C115.324 79.4017 117.062 81.1391 117.062 83.2789V88.1014C117.062 90.2411 115.324 91.9785 113.185 91.9785ZM77.1022 80.0405C75.3138 80.0405 73.8638 81.4968 73.8638 83.2789V88.1014C73.8638 89.8898 75.3202 91.3398 77.1022 91.3398H113.185C114.973 91.3398 116.423 89.8834 116.423 88.1014V83.2789C116.423 81.4904 114.967 80.0405 113.185 80.0405H77.1022Z" fill="#350605"/>
<path d="M87.75 91.9785C87.5712 91.9785 87.4307 91.838 87.4307 91.6591V79.7211C87.4307 79.5423 87.5712 79.4017 87.75 79.4017C87.9289 79.4017 88.0694 79.5423 88.0694 79.7211V91.6591C88.0694 91.838 87.9289 91.9785 87.75 91.9785Z" fill="#350605"/>
<path d="M90.7458 91.9785C90.5669 91.9785 90.4264 91.838 90.4264 91.6591V79.7211C90.4264 79.5423 90.5669 79.4017 90.7458 79.4017C90.9246 79.4017 91.0651 79.5423 91.0651 79.7211V91.6591C91.0651 91.838 90.9246 91.9785 90.7458 91.9785Z" fill="#350605"/>
<path d="M99.7328 91.9785C99.554 91.9785 99.4135 91.838 99.4135 91.6591V79.7211C99.4135 79.5423 99.554 79.4017 99.7328 79.4017C99.9117 79.4017 100.052 79.5423 100.052 79.7211V91.6591C100.052 91.838 99.9117 91.9785 99.7328 91.9785Z" fill="#350605"/>
<path d="M102.658 91.9785C102.479 91.9785 102.339 91.838 102.339 91.6591V79.7211C102.339 79.5423 102.479 79.4017 102.658 79.4017C102.837 79.4017 102.978 79.5423 102.978 79.7211V91.6591C102.978 91.838 102.837 91.9785 102.658 91.9785Z" fill="#350605"/>
<path d="M84.6266 83.2469H76.7254C76.5465 83.2469 76.406 83.1064 76.406 82.9275C76.406 82.7487 76.5465 82.6082 76.7254 82.6082H84.6266C84.8054 82.6082 84.946 82.7487 84.946 82.9275C84.946 83.1064 84.8054 83.2469 84.6266 83.2469Z" fill="#350605"/>
<path d="M83.33 88.7274H78.929C78.7502 88.7274 78.6097 88.5868 78.6097 88.408C78.6097 88.2291 78.7502 88.0886 78.929 88.0886H83.33C83.5088 88.0886 83.6493 88.2291 83.6493 88.408C83.6493 88.5868 83.5088 88.7274 83.33 88.7274Z" fill="#350605"/>
<path d="M87.75 86.4981H76.7254C76.5465 86.4981 76.406 86.3576 76.406 86.1787C76.406 85.9999 76.5465 85.8594 76.7254 85.8594H87.75C87.9289 85.8594 88.0694 85.9999 88.0694 86.1787C88.0694 86.3576 87.9289 86.4981 87.75 86.4981Z" fill="#350605"/>
<path d="M114.047 83.2469H106.146C105.967 83.2469 105.826 83.1064 105.826 82.9275C105.826 82.7487 105.967 82.6082 106.146 82.6082H114.047C114.226 82.6082 114.366 82.7487 114.366 82.9275C114.366 83.1064 114.226 83.2469 114.047 83.2469Z" fill="#350605"/>
<path d="M111.843 88.7274H107.442C107.264 88.7274 107.123 88.5868 107.123 88.408C107.123 88.2291 107.264 88.0886 107.442 88.0886H111.843C112.022 88.0886 112.163 88.2291 112.163 88.408C112.163 88.5868 112.022 88.7274 111.843 88.7274Z" fill="#350605"/>
<path d="M114.047 86.4981H103.022C102.843 86.4981 102.703 86.3576 102.703 86.1787C102.703 85.9999 102.843 85.8594 103.022 85.8594H114.047C114.226 85.8594 114.366 85.9999 114.366 86.1787C114.366 86.3576 114.226 86.4981 114.047 86.4981Z" fill="#350605"/>
<path d="M106.535 91.6591H70.453C68.4881 91.6591 66.8952 93.2519 66.8952 95.2168V100.039C66.8952 102.004 68.4881 103.597 70.453 103.597H106.535C108.5 103.597 110.093 102.004 110.093 100.039V95.2168C110.093 93.2519 108.5 91.6591 106.535 91.6591Z" fill="#57BD63"/>
<path d="M108.203 91.6591H107.372C107.391 91.7613 107.398 91.8635 107.398 91.9721V100.122C107.398 101.164 106.548 102.019 105.501 102.019H66.9208C67.0741 102.914 67.8533 103.597 68.7859 103.597H108.196C109.237 103.597 110.093 102.748 110.093 101.7V93.5498C110.093 92.5086 109.244 91.6527 108.196 91.6527L108.203 91.6591Z" fill="#438559"/>
<path d="M96.009 91.6591H81.1008V103.597H96.009V91.6591Z" fill="#CCAF9F"/>
<path d="M96.009 91.6591H81.1008V102.019H96.009V91.6591Z" fill="#F5F2C6"/>
<path d="M106.535 103.917H70.453C68.3132 103.917 66.5759 102.179 66.5759 100.039V95.2169C66.5759 93.0771 68.3132 91.3397 70.453 91.3397H106.535C108.675 91.3397 110.413 93.0771 110.413 95.2169V100.039C110.413 102.179 108.675 103.917 106.535 103.917ZM70.453 91.9785C68.6645 91.9785 67.2146 93.4348 67.2146 95.2169V100.039C67.2146 101.828 68.6709 103.278 70.453 103.278H106.535C108.324 103.278 109.774 101.821 109.774 100.039V95.2169C109.774 93.4284 108.317 91.9785 106.535 91.9785H70.453Z" fill="#350605"/>
<path d="M81.1008 103.917C80.922 103.917 80.7814 103.776 80.7814 103.597V91.6591C80.7814 91.4802 80.922 91.3397 81.1008 91.3397C81.2796 91.3397 81.4202 91.4802 81.4202 91.6591V103.597C81.4202 103.776 81.2796 103.917 81.1008 103.917Z" fill="#350605"/>
<path d="M84.0965 103.917C83.9176 103.917 83.7771 103.776 83.7771 103.597V91.6591C83.7771 91.4802 83.9176 91.3397 84.0965 91.3397C84.2753 91.3397 84.4158 91.4802 84.4158 91.6591V103.597C84.4158 103.776 84.2753 103.917 84.0965 103.917Z" fill="#350605"/>
<path d="M93.0835 103.917C92.9047 103.917 92.7642 103.776 92.7642 103.597V91.6591C92.7642 91.4802 92.9047 91.3397 93.0835 91.3397C93.2624 91.3397 93.4029 91.4802 93.4029 91.6591V103.597C93.4029 103.776 93.2624 103.917 93.0835 103.917Z" fill="#350605"/>
<path d="M96.0154 103.917C95.8365 103.917 95.696 103.776 95.696 103.597V91.6591C95.696 91.4802 95.8365 91.3397 96.0154 91.3397C96.1942 91.3397 96.3347 91.4802 96.3347 91.6591V103.597C96.3347 103.776 96.1942 103.917 96.0154 103.917Z" fill="#350605"/>
<path d="M77.9838 95.1849H70.0826C69.9037 95.1849 69.7632 95.0444 69.7632 94.8655C69.7632 94.6867 69.9037 94.5461 70.0826 94.5461H77.9838C78.1626 94.5461 78.3031 94.6867 78.3031 94.8655C78.3031 95.0444 78.1626 95.1849 77.9838 95.1849Z" fill="#350605"/>
<path d="M76.6871 100.665H72.2862C72.1073 100.665 71.9668 100.525 71.9668 100.346C71.9668 100.167 72.1073 100.027 72.2862 100.027H76.6871C76.8659 100.027 77.0065 100.167 77.0065 100.346C77.0065 100.525 76.8659 100.665 76.6871 100.665Z" fill="#350605"/>
<path d="M81.1008 98.4361H70.0761C69.8973 98.4361 69.7568 98.2956 69.7568 98.1167C69.7568 97.9379 69.8973 97.7974 70.0761 97.7974H81.1008C81.2796 97.7974 81.4202 97.9379 81.4202 98.1167C81.4202 98.2956 81.2796 98.4361 81.1008 98.4361Z" fill="#350605"/>
<path d="M107.398 95.1849H99.4965C99.3176 95.1849 99.1771 95.0444 99.1771 94.8655C99.1771 94.6867 99.3176 94.5461 99.4965 94.5461H107.398C107.577 94.5461 107.717 94.6867 107.717 94.8655C107.717 95.0444 107.577 95.1849 107.398 95.1849Z" fill="#350605"/>
<path d="M105.194 100.665H100.793C100.614 100.665 100.474 100.525 100.474 100.346C100.474 100.167 100.614 100.027 100.793 100.027H105.194C105.373 100.027 105.513 100.167 105.513 100.346C105.513 100.525 105.373 100.665 105.194 100.665Z" fill="#350605"/>
<path d="M107.398 98.4361H96.3731C96.1942 98.4361 96.0537 98.2956 96.0537 98.1167C96.0537 97.9379 96.1942 97.7974 96.3731 97.7974H107.398C107.577 97.7974 107.717 97.9379 107.717 98.1167C107.717 98.2956 107.577 98.4361 107.398 98.4361Z" fill="#350605"/>
<path d="M66.7866 26.9995H49.2021C47.7946 26.9995 46.6536 28.1405 46.6536 29.5481C46.6536 30.9556 47.7946 32.0967 49.2021 32.0967H66.7866C68.1942 32.0967 69.3352 30.9556 69.3352 29.5481C69.3352 28.1405 68.1942 26.9995 66.7866 26.9995Z" fill="#F6AE42"/>
<path d="M59.1409 30.9469C59.1409 30.9469 50.9842 43.9452 54.0438 48.4675C57.1033 52.9898 59.7796 49.8664 60.2268 43.562C60.6739 37.2576 62.6476 31.394 62.6476 31.394L59.1409 30.9469Z" fill="#F6AE42"/>
<path d="M65.4836 30.9469C65.4836 30.9469 73.6403 43.9452 70.5808 48.4675C67.5212 52.9898 64.8449 49.8664 64.3978 43.562C63.9506 37.2576 61.9769 31.394 61.9769 31.394L65.4836 30.9469Z" fill="#F6AE42"/>
<path d="M56.8606 50.9331C56.0686 50.9331 55.0019 50.4541 53.7819 48.6528C50.6457 44.0092 58.5341 31.3175 58.8726 30.7809C58.9365 30.6723 59.0579 30.6212 59.1856 30.634L62.6923 31.0811C62.7881 31.0939 62.8711 31.145 62.9222 31.228C62.9733 31.3111 62.9861 31.4069 62.9542 31.4963C62.935 31.5538 60.9869 37.3983 60.5461 43.5876C60.2587 47.6883 59.0643 50.4094 57.3652 50.8629C57.2119 50.9012 57.0458 50.9268 56.8606 50.9268V50.9331ZM59.307 31.2919C58.368 32.8377 51.591 44.2647 54.312 48.2888C55.0274 49.3427 56.1069 50.5371 57.1991 50.2433C58.5852 49.8728 59.6455 47.2412 59.9074 43.5365C60.2906 38.1584 61.7917 33.0484 62.226 31.656L59.307 31.2855V31.2919Z" fill="#350605"/>
<path d="M67.7639 50.9331C67.5787 50.9331 67.4126 50.9075 67.2593 50.8692C65.5603 50.4157 64.3658 47.6947 64.0784 43.5939C63.6377 37.4046 61.6895 31.5601 61.6704 31.5026C61.6384 31.4132 61.6512 31.311 61.7023 31.2343C61.7534 31.1513 61.8364 31.1002 61.9322 31.0874L65.4389 30.6403C65.5667 30.6275 65.6817 30.685 65.7519 30.7872C66.0904 31.3238 73.9789 44.0155 70.8427 48.6592C69.6227 50.4604 68.556 50.9395 67.7639 50.9395V50.9331ZM62.3985 31.6623C62.8329 33.0547 64.3339 38.1647 64.7172 43.5428C64.979 47.2475 66.0393 49.8791 67.4254 50.2496C68.5177 50.5434 69.6035 49.349 70.3125 48.2951C73.0335 44.271 66.2565 32.844 65.3176 31.2982L62.3985 31.6687V31.6623Z" fill="#350605"/>
<path d="M66.7866 21.9023H49.2021C47.7946 21.9023 46.6536 23.0434 46.6536 24.4509C46.6536 25.8584 47.7946 26.9995 49.2021 26.9995H66.7866C68.1942 26.9995 69.3352 25.8584 69.3352 24.4509C69.3352 23.0434 68.1942 21.9023 66.7866 21.9023Z" fill="#F6AE42"/>
<path d="M66.7867 32.4161H49.2022C47.6181 32.4161 46.3342 31.1322 46.3342 29.5481C46.3342 27.964 47.6181 26.6802 49.2022 26.6802H66.7867C68.3707 26.6802 69.6546 27.964 69.6546 29.5481C69.6546 31.1322 68.3707 32.4161 66.7867 32.4161ZM49.2022 27.3189C47.9758 27.3189 46.973 28.3217 46.973 29.5481C46.973 30.7745 47.9758 31.7773 49.2022 31.7773H66.7867C68.013 31.7773 69.0159 30.7745 69.0159 29.5481C69.0159 28.3217 68.013 27.3189 66.7867 27.3189H49.2022Z" fill="#350605"/>
<path d="M66.7867 27.3189H49.2022C47.6181 27.3189 46.3342 26.035 46.3342 24.4509C46.3342 22.8669 47.6181 21.583 49.2022 21.583H66.7867C68.3707 21.583 69.6546 22.8669 69.6546 24.4509C69.6546 26.035 68.3707 27.3189 66.7867 27.3189ZM49.2022 22.2217C47.9758 22.2217 46.973 23.2246 46.973 24.4509C46.973 25.6773 47.9758 26.6801 49.2022 26.6801H66.7867C68.013 26.6801 69.0159 25.6773 69.0159 24.4509C69.0159 23.2246 68.013 22.2217 66.7867 22.2217H49.2022Z" fill="#350605"/>
<path d="M61.9769 33.0484C64.1746 33.0484 65.9563 31.2668 65.9563 29.0691C65.9563 26.8713 64.1746 25.0897 61.9769 25.0897C59.7792 25.0897 57.9976 26.8713 57.9976 29.0691C57.9976 31.2668 59.7792 33.0484 61.9769 33.0484Z" fill="#F07B74"/>
<path d="M61.9769 33.3678C59.6072 33.3678 57.6782 31.4388 57.6782 29.0691C57.6782 26.6994 59.6072 24.7704 61.9769 24.7704C64.3467 24.7704 66.2757 26.6994 66.2757 29.0691C66.2757 31.4388 64.3467 33.3678 61.9769 33.3678ZM61.9769 25.4027C59.9585 25.4027 58.317 27.0443 58.317 29.0627C58.317 31.0811 59.9585 32.7227 61.9769 32.7227C63.9954 32.7227 65.6369 31.0811 65.6369 29.0627C65.6369 27.0443 63.9954 25.4027 61.9769 25.4027Z" fill="#350605"/>
<path d="M61.2679 81.2988V85.0865H58.4958V81.3308C55.1808 81.1264 51.9679 80.0469 50.2114 78.5267L51.7316 75.1094C53.3859 76.4636 55.9217 77.4408 58.4958 77.6772V70.9129C54.74 69.9995 50.7224 68.7859 50.7224 64.0848C50.7224 60.6356 53.2262 57.6271 58.4958 57.1225V53.3029H61.2679V57.0586C63.7718 57.1928 66.3076 57.9401 68.1344 59.1218L66.7483 62.539C64.9599 61.4915 63.0628 60.9166 61.2743 60.7122V67.5404C65.0301 68.4538 69.1181 69.6354 69.1181 74.3366C69.1181 77.7857 66.5823 80.7623 61.2743 81.2988H61.2679ZM58.4958 66.825V60.808C56.0942 61.1785 55.0786 62.3985 55.0786 63.8868C55.0786 65.5092 56.5349 66.2565 58.4958 66.8314V66.825ZM64.7874 74.6368C64.7874 72.9824 63.2991 72.2032 61.2743 71.6283V77.6133C63.7399 77.2428 64.7874 76.0931 64.7874 74.6368Z" fill="#350605"/>
<path d="M44.7437 81.4202H22.7775C21.1018 81.4202 19.7435 82.7785 19.7435 84.4542V86.0319C19.7435 87.7075 21.1018 89.0659 22.7775 89.0659H44.7437C46.4194 89.0659 47.7778 87.7075 47.7778 86.0319V84.4542C47.7778 82.7785 46.4194 81.4202 44.7437 81.4202Z" fill="#F6AE42"/>
<path d="M46.8516 81.4202H40.5983V89.0659H46.8516V81.4202Z" fill="#D38F35"/>
<g opacity="0.3">
<path d="M28.6028 81.4202H24.7767V89.0659H28.6028V81.4202Z" fill="white"/>
</g>
<path d="M44.7437 89.3853H22.7775C20.9251 89.3853 19.4241 87.8779 19.4241 86.0319V84.4542C19.4241 82.6019 20.9315 81.1008 22.7775 81.1008H44.7437C46.5961 81.1008 48.0971 82.6083 48.0971 84.4542V86.0319C48.0971 87.8842 46.5897 89.3853 44.7437 89.3853ZM22.7775 81.7396C21.2828 81.7396 20.0628 82.9596 20.0628 84.4542V86.0319C20.0628 87.5266 21.2828 88.7465 22.7775 88.7465H44.7437C46.2384 88.7465 47.4584 87.5266 47.4584 86.0319V84.4542C47.4584 82.9596 46.2384 81.7396 44.7437 81.7396H22.7775Z" fill="#350605"/>
<path d="M45.7658 96.7115H23.7995C22.1239 96.7115 20.7655 98.0699 20.7655 99.7456V101.323C20.7655 102.999 22.1239 104.357 23.7995 104.357H45.7658C47.4414 104.357 48.7998 102.999 48.7998 101.323V99.7456C48.7998 98.0699 47.4414 96.7115 45.7658 96.7115Z" fill="#F6AE42"/>
<path d="M47.8672 96.7115H41.614V104.357H47.8672V96.7115Z" fill="#D38F35"/>
<g opacity="0.3">
<path d="M29.6248 96.7115H25.7988V104.357H29.6248V96.7115Z" fill="white"/>
</g>
<path d="M45.7657 104.677H23.7995C21.9471 104.677 20.4461 103.169 20.4461 101.323V99.7456C20.4461 97.8932 21.9535 96.3922 23.7995 96.3922H45.7657C47.6181 96.3922 49.1191 97.8996 49.1191 99.7456V101.323C49.1191 103.176 47.6117 104.677 45.7657 104.677ZM23.7995 97.031C22.3048 97.031 21.0848 98.2509 21.0848 99.7456V101.323C21.0848 102.818 22.3048 104.038 23.7995 104.038H45.7657C47.2604 104.038 48.4804 102.818 48.4804 101.323V99.7456C48.4804 98.2509 47.2604 97.031 45.7657 97.031H23.7995Z" fill="#350605"/>
<path d="M49.1447 89.0658H27.1784C25.5028 89.0658 24.1444 90.4242 24.1444 92.0998V93.6775C24.1444 95.3531 25.5028 96.7115 27.1784 96.7115H49.1447C50.8203 96.7115 52.1787 95.3531 52.1787 93.6775V92.0998C52.1787 90.4242 50.8203 89.0658 49.1447 89.0658Z" fill="#F6AE42"/>
<path d="M51.2461 89.0658H44.9929V96.7115H51.2461V89.0658Z" fill="#D38F35"/>
<g opacity="0.3">
<path d="M33.0037 89.0658H29.1777V96.7115H33.0037V89.0658Z" fill="white"/>
</g>
<path d="M49.1447 97.0309H27.1784C25.3261 97.0309 23.825 95.5235 23.825 93.6775V92.0998C23.825 90.2475 25.3324 88.7465 27.1784 88.7465H49.1447C50.997 88.7465 52.498 90.2539 52.498 92.0998V93.6775C52.498 95.5299 50.9906 97.0309 49.1447 97.0309ZM27.1784 89.3852C25.6837 89.3852 24.4638 90.6052 24.4638 92.0998V93.6775C24.4638 95.1722 25.6837 96.3922 27.1784 96.3922H49.1447C50.6393 96.3922 51.8593 95.1722 51.8593 93.6775V92.0998C51.8593 90.6052 50.6393 89.3852 49.1447 89.3852H27.1784Z" fill="#350605"/>
<path d="M15.3873 105.884C22.8553 105.884 28.9094 99.8298 28.9094 92.3617C28.9094 84.8937 22.8553 78.8396 15.3873 78.8396C7.91923 78.8396 1.86517 84.8937 1.86517 92.3617C1.86517 99.8298 7.91923 105.884 15.3873 105.884Z" fill="#F6AE42"/>
<path d="M15.3873 106.203C7.75433 106.203 1.54578 99.9947 1.54578 92.3618C1.54578 84.7288 7.75433 78.5203 15.3873 78.5203C23.0202 78.5203 29.2287 84.7288 29.2287 92.3618C29.2287 99.9947 23.0202 106.203 15.3873 106.203ZM15.3873 79.1526C8.10563 79.1526 2.18452 85.0737 2.18452 92.3554C2.18452 99.637 8.10563 105.558 15.3873 105.558C22.6689 105.558 28.59 99.637 28.59 92.3554C28.59 85.0737 22.6689 79.1526 15.3873 79.1526Z" fill="#350605"/>
<path d="M15.3873 101.853C20.647 101.853 24.9109 97.5895 24.9109 92.3298C24.9109 87.07 20.647 82.8062 15.3873 82.8062C10.1275 82.8062 5.86365 87.07 5.86365 92.3298C5.86365 97.5895 10.1275 101.853 15.3873 101.853Z" fill="#FADF88"/>
<path d="M15.3873 102.173C9.958 102.173 5.54431 97.7591 5.54431 92.3298C5.54431 86.9005 9.958 82.4868 15.3873 82.4868C20.8166 82.4868 25.2303 86.9005 25.2303 92.3298C25.2303 97.7591 20.8166 102.173 15.3873 102.173ZM15.3873 83.1256C10.3093 83.1256 6.18305 87.2518 6.18305 92.3298C6.18305 97.4078 10.3093 101.534 15.3873 101.534C20.4653 101.534 24.5915 97.4078 24.5915 92.3298C24.5915 87.2518 20.4653 83.1256 15.3873 83.1256Z" fill="#350605"/>
<path d="M15.9813 97.1906V98.7491H14.8379V97.2034C13.471 97.1203 12.1488 96.6732 11.4271 96.0472L12.053 94.642C12.7365 95.1977 13.7776 95.6001 14.8379 95.7023V92.9174C13.2922 92.5406 11.6315 92.0424 11.6315 90.107C11.6315 88.689 12.6598 87.4434 14.8379 87.239V85.6677H15.9813V87.2135C17.0096 87.271 18.0572 87.5776 18.8109 88.063L18.2424 89.4682C17.5015 89.0339 16.7222 88.7976 15.9877 88.7145V91.525C17.5334 91.9018 19.2197 92.3873 19.2197 94.3226C19.2197 95.7407 18.1722 96.967 15.9877 97.1906H15.9813ZM14.8379 91.2312V88.7528C13.8479 88.9061 13.4327 89.4043 13.4327 90.0175C13.4327 90.6882 14.0331 90.9948 14.8379 91.2312ZM17.4312 94.4504C17.4312 93.7669 16.818 93.4476 15.9813 93.2112V95.6768C16.9969 95.5235 17.4312 95.0508 17.4312 94.4504Z" fill="#350605"/>
</g>
<defs>
<clipPath id="clip0_636_2130">
<rect width="120" height="120" fill="white"/>
</clipPath>
</defs>
</svg>
