<svg width="44" height="47" viewBox="0 0 44 47" fill="none" xmlns="http://www.w3.org/2000/svg">
<path d="M35.8064 45.5537H5.02281C3.05627 45.5537 1.46275 43.9602 1.46275 41.9937V6.04028C1.46275 3.19791 4.73493 1.45032 9.00457 1.45032H40.299C41.5357 1.45032 42.5413 2.45589 42.5413 3.69259V38.9039L35.8064 45.5537Z" fill="#A3A3F5"/>
<path d="M36.2565 45.1077L42.5413 38.8999V3.68856C42.5413 2.45186 41.5357 1.44629 40.299 1.44629H9.00456C4.90928 1.44629 1.73441 3.06007 1.48708 5.70376C1.64927 7.3581 2.48049 7.69059 3.19412 8.23798C3.71313 8.63534 4.35378 8.82591 5.00659 8.82591H36.2565V45.1118V45.1077Z" fill="white"/>
<path d="M1.45869 5.33075C1.52357 7.31757 2.42778 7.65411 3.19007 8.238C3.70907 8.63536 4.34972 8.82593 5.00254 8.82593H36.2524V45.1118" stroke="#350605" stroke-linecap="round" stroke-linejoin="round"/>
<path d="M41.9372 2.16803L36.2565 8.82186" stroke="#350605" stroke-linecap="round" stroke-linejoin="round"/>
<path d="M29.631 8.82184V20.609L25.8155 16.7935L22 20.609V8.82184H29.631Z" fill="#FEE882"/>
<path d="M29.631 8.82184V20.609L25.8155 16.7935L22 20.609V8.82184H29.631Z" stroke="#350605" stroke-linecap="round" stroke-linejoin="round"/>
<path d="M38.4703 6.27954H6.47845" stroke="#350605" stroke-linecap="round" stroke-linejoin="round"/>
<path d="M38.4704 38.2755V6.27954" stroke="#350605" stroke-linecap="round" stroke-linejoin="round"/>
<path d="M40.737 35.9927V4.00079" stroke="#350605" stroke-linecap="round" stroke-linejoin="round"/>
<path d="M40.737 4.00079H8.74101" stroke="#350605" stroke-linecap="round" stroke-linejoin="round"/>
<path d="M35.8064 45.5537H5.02281C3.05627 45.5537 1.46275 43.9602 1.46275 41.9937V6.04028C1.46275 3.19791 4.73493 1.45032 9.00457 1.45032H40.299C41.5357 1.45032 42.5413 2.45589 42.5413 3.69259V38.9039L35.8064 45.5537Z" stroke="#350605" stroke-linecap="round" stroke-linejoin="round"/>
</svg>
