<svg width="50" height="42" viewBox="0 0 50 42" fill="none" xmlns="http://www.w3.org/2000/svg">
<path d="M36.1708 0.996826H6.90372C3.68799 0.996826 1.08112 3.6037 1.08112 6.81943V35.1012C1.08112 38.317 3.68799 40.9238 6.90372 40.9238H36.1708C39.3866 40.9238 41.9934 38.317 41.9934 35.1012V6.81943C41.9934 3.6037 39.3866 0.996826 36.1708 0.996826Z" fill="#FEE882"/>
<path d="M36.7993 0.996826H6.27524C3.40448 0.996826 1.08112 3.32425 1.08112 6.19095V11.0729H41.9934V6.19095C41.9934 3.32019 39.666 0.996826 36.7993 0.996826Z" fill="#F2A3D4"/>
<path d="M36.7993 0.996826H6.27524C3.40448 0.996826 1.08112 3.32425 1.08112 6.19095V11.0729H41.9934V6.19095C41.9934 3.32019 39.666 0.996826 36.7993 0.996826Z" stroke="#350605" stroke-linecap="round" stroke-linejoin="round"/>
<path d="M36.1708 0.996826H6.90372C3.68799 0.996826 1.08112 3.6037 1.08112 6.81943V35.1012C1.08112 38.317 3.68799 40.9238 6.90372 40.9238H36.1708C39.3866 40.9238 41.9934 38.317 41.9934 35.1012V6.81943C41.9934 3.6037 39.3866 0.996826 36.1708 0.996826Z" stroke="#350605" stroke-linecap="round" stroke-linejoin="round"/>
<path d="M27.5262 7.75605C28.4756 7.75605 29.2454 6.98633 29.2454 6.03684C29.2454 5.08734 28.4756 4.31763 27.5262 4.31763C26.5767 4.31763 25.8069 5.08734 25.8069 6.03684C25.8069 6.98633 26.5767 7.75605 27.5262 7.75605Z" fill="#79E9B3"/>
<path d="M27.5262 7.75605C28.4756 7.75605 29.2454 6.98633 29.2454 6.03684C29.2454 5.08734 28.4756 4.31763 27.5262 4.31763C26.5767 4.31763 25.8069 5.08734 25.8069 6.03684C25.8069 6.98633 26.5767 7.75605 27.5262 7.75605Z" stroke="#350605" stroke-linecap="round" stroke-linejoin="round"/>
<path d="M32.2621 7.75605C33.2116 7.75605 33.9813 6.98633 33.9813 6.03684C33.9813 5.08734 33.2116 4.31763 32.2621 4.31763C31.3126 4.31763 30.5428 5.08734 30.5428 6.03684C30.5428 6.98633 31.3126 7.75605 32.2621 7.75605Z" fill="#FEE882"/>
<path d="M32.2621 7.75605C33.2116 7.75605 33.9813 6.98633 33.9813 6.03684C33.9813 5.08734 33.2116 4.31763 32.2621 4.31763C31.3126 4.31763 30.5428 5.08734 30.5428 6.03684C30.5428 6.98633 31.3126 7.75605 32.2621 7.75605Z" stroke="#350605" stroke-linecap="round" stroke-linejoin="round"/>
<path d="M36.9777 7.75605C37.9272 7.75605 38.6969 6.98633 38.6969 6.03684C38.6969 5.08734 37.9272 4.31763 36.9777 4.31763C36.0282 4.31763 35.2585 5.08734 35.2585 6.03684C35.2585 6.98633 36.0282 7.75605 36.9777 7.75605Z" fill="#F07B74"/>
<path d="M36.9777 7.75605C37.9272 7.75605 38.6969 6.98633 38.6969 6.03684C38.6969 5.08734 37.9272 4.31763 36.9777 4.31763C36.0282 4.31763 35.2585 5.08734 35.2585 6.03684C35.2585 6.98633 36.0282 7.75605 36.9777 7.75605Z" stroke="#350605" stroke-linecap="round" stroke-linejoin="round"/>
<path d="M19.0436 36.715C19.0436 36.715 18.3665 17.7915 36.6169 17.7915V13.4651L48.919 22.2517L37.1602 30.3612V26.3064C37.1602 26.3064 23.1024 23.4681 19.0477 36.715H19.0436Z" fill="#A3A3F5"/>
<path d="M19.0436 36.715C19.0436 36.715 18.3665 17.7915 36.6169 17.7915V13.4651L48.919 22.2517L37.1602 30.3612V26.3064C37.1602 26.3064 23.1024 23.4681 19.0477 36.715H19.0436Z" stroke="#350605" stroke-linecap="round" stroke-linejoin="round"/>
</svg>
