<svg width="112" height="41" viewBox="0 0 112 41" fill="none" xmlns="http://www.w3.org/2000/svg">
<path d="M23.633 40.4624H33.0641V12.2466H23.633V40.4624Z" fill="white"/>
<path d="M23.7207 5.17979C23.7207 2.5731 25.833 0.462208 28.4369 0.462208C31.0409 0.462208 33.1518 2.5731 33.1518 5.17979C33.1518 7.7824 31.0409 9.89465 28.4369 9.89465C25.833 9.89465 23.7207 7.7824 23.7207 5.17979Z" fill="white"/>
<path d="M37.779 40.4624H47.2101V12.2466H37.779V40.4624Z" fill="white"/>
<path d="M37.7787 5.17979C37.7787 2.5731 39.8909 0.462208 42.4935 0.462208C45.0975 0.462208 47.2097 2.5731 47.2097 5.17979C47.2097 7.7824 45.0975 9.89465 42.4935 9.89465C39.8909 9.89465 37.7787 7.7824 37.7787 5.17979Z" fill="white"/>
<path d="M9.57805 0.463112H19.0078V9.89148H9.57805V0.463112Z" fill="white"/>
<path d="M1.46839 9.89216H9.57779C9.57779 9.89216 9.35773 10.5645 9.35773 11.514C9.35773 12.6945 9.75845 13.9754 10.9402 15.168C14.1405 18.3968 15.5654 19.4278 17.8013 22.2464C19.0401 23.8113 19.8035 26.0729 19.8035 28.7503C19.8035 32.5333 18.077 35.6005 16.0938 37.3894C14.0903 39.2001 11.2703 40.3778 8.68671 40.3778C6.58668 40.3778 4.19325 39.916 2.72894 39.1621C0.88565 38.2153 0 37.6095 0 37.6095V29.5666C0 29.5666 0.851691 30.2988 2.42603 31.1885C3.56841 31.8337 4.76784 32.3404 6.51876 32.4572C8.02926 32.5591 9.51938 32.2643 10.4811 31.1939C11.2934 30.2852 11.3993 29.189 11.3993 28.3441C11.3993 27.4625 11.125 26.7304 10.7229 26.0132C8.81983 22.6091 4.03297 20.2741 2.20869 16.9529C0.71178 14.2308 1.46839 9.89216 1.46839 9.89216Z" fill="white"/>
<path d="M62.0978 10.4858V11.9855C61.0804 11.5291 60.2681 11.2981 59.665 11.2981C59.3227 11.2981 59.0469 11.3566 58.8432 11.472C58.6394 11.5875 58.5402 11.7396 58.5402 11.9298C58.5402 12.0778 58.6122 12.2164 58.7589 12.3482C58.9056 12.4799 59.2642 12.6511 59.8307 12.8589C60.3958 13.0681 60.8522 13.2623 61.1918 13.4403C61.5327 13.6196 61.8261 13.8722 62.0733 14.201C62.3233 14.527 62.4442 14.9358 62.4442 15.4357C62.4442 16.1461 62.1752 16.7126 61.6346 17.1323C61.0953 17.5534 60.3808 17.7626 59.5006 17.7626C58.547 17.7626 57.6261 17.5167 56.7323 17.0236V15.3691C57.2444 15.7142 57.6981 15.9641 58.0933 16.1203C58.49 16.2806 58.9097 16.358 59.3525 16.358C60.1024 16.358 60.4786 16.1203 60.4786 15.6517C60.4786 15.4887 60.4025 15.3379 60.2504 15.1939C60.1023 15.0526 59.7397 14.8788 59.1692 14.6723C58.5946 14.4699 58.1409 14.2784 57.8054 14.1018C57.4712 13.9252 57.1805 13.6753 56.936 13.3479C56.6942 13.0233 56.5733 12.6062 56.5733 12.0969C56.5733 11.4353 56.8369 10.9056 57.368 10.4994C57.9005 10.0946 58.6109 9.8936 59.5006 9.8936C60.321 9.8936 61.1877 10.0906 62.0978 10.4858Z" fill="white"/>
<path d="M64.9047 14.4732H67.1569C67.07 13.7193 66.6937 13.3431 66.0322 13.3431C65.3611 13.3431 64.9862 13.7193 64.9047 14.4732ZM68.503 16.0557V17.0826C67.8795 17.5391 67.1107 17.7632 66.1897 17.7632C65.2796 17.7632 64.5502 17.5187 64.0041 17.031C63.4581 16.5407 63.1837 15.8927 63.1837 15.0872C63.1837 14.2939 63.4404 13.6446 63.9539 13.1353C64.4687 12.6259 65.1207 12.3691 65.9153 12.3691C66.7154 12.3691 67.3674 12.6381 67.8795 13.1746C68.3889 13.7112 68.6307 14.4298 68.5967 15.3317H64.8708C64.9047 15.8031 65.0718 16.163 65.372 16.4184C65.6708 16.6711 66.077 16.7987 66.5809 16.7987C67.1936 16.7987 67.8347 16.5502 68.503 16.0557Z" fill="white"/>
<path d="M71.197 12.4799V13.9646H71.2188C71.6915 12.9024 72.2416 12.3699 72.8719 12.3699C73.1721 12.3699 73.532 12.5275 73.9545 12.844L73.5049 14.2865C73.1014 14.0312 72.7781 13.9048 72.5377 13.9048C72.1615 13.9048 71.8422 14.1371 71.5842 14.603C71.3261 15.073 71.197 15.3447 71.197 15.4221V17.6661H69.5629V12.4799H71.197Z" fill="white"/>
<path d="M76.527 17.7632L74.1295 12.4792H75.8791L76.9766 15.3372L78.0959 12.4792H79.8264L77.4398 17.7632H76.527Z" fill="white"/>
<path d="M82.0397 17.6669H80.4056V12.4807H82.0397V17.6669ZM80.3187 10.7936C80.3187 10.545 80.4056 10.3345 80.5822 10.1565C80.7588 9.98128 80.9693 9.89434 81.2139 9.89434C81.4624 9.89434 81.6757 9.98128 81.8523 10.1565C82.0289 10.3345 82.1158 10.545 82.1158 10.7936C82.1158 11.0381 82.0289 11.2513 81.8523 11.4293C81.6757 11.6072 81.4624 11.6969 81.2139 11.6969C80.9693 11.6969 80.7588 11.6072 80.5822 11.4293C80.4056 11.2513 80.3187 11.0381 80.3187 10.7936Z" fill="white"/>
<path d="M87.715 16.2486V17.4195C87.0793 17.6491 86.4952 17.7632 85.9627 17.7632C85.0526 17.7632 84.3245 17.52 83.7771 17.031C83.231 16.542 82.958 15.8927 82.958 15.0886C82.958 14.298 83.2351 13.6501 83.7852 13.138C84.3381 12.6286 85.039 12.3705 85.8907 12.3705C86.4408 12.3705 87.0236 12.4832 87.6389 12.7114V13.9245C87.1893 13.6949 86.7465 13.5794 86.3091 13.5794C85.8228 13.5794 85.4329 13.7153 85.1395 13.9869C84.8461 14.2559 84.7008 14.6213 84.7008 15.0763C84.7008 15.5355 84.8434 15.9036 85.1273 16.1848C85.4153 16.4646 85.7902 16.6072 86.2547 16.6072C86.5984 16.6072 87.0861 16.4877 87.715 16.2486Z" fill="white"/>
<path d="M90.3203 17.6669H88.6876V12.4807H90.3203V17.6669ZM88.5993 10.7936C88.5993 10.545 88.6889 10.3345 88.8628 10.1565C89.0394 9.98128 89.2499 9.89434 89.4958 9.89434C89.7444 9.89434 89.9563 9.98128 90.1329 10.1565C90.3095 10.3345 90.3964 10.545 90.3964 10.7936C90.3964 11.0381 90.3095 11.2513 90.1329 11.4293C89.9563 11.6072 89.7444 11.6969 89.4958 11.6969C89.2499 11.6969 89.0394 11.6072 88.8628 11.4293C88.6889 11.2513 88.5993 11.0381 88.5993 10.7936Z" fill="white"/>
<path d="M94.1571 16.7987C94.9368 16.7987 95.3267 16.2079 95.3267 15.0315C95.3267 13.9054 94.9368 13.3431 94.1571 13.3431C93.7836 13.3431 93.4915 13.4898 93.281 13.7886C93.0691 14.0847 92.9672 14.5086 92.9672 15.0668C92.9672 16.2201 93.3638 16.7987 94.1571 16.7987ZM94.1571 12.3691C94.9721 12.3691 95.6581 12.6082 96.2245 13.085C96.7896 13.5604 97.0749 14.2247 97.0749 15.075C97.0749 15.9294 96.7869 16.5923 96.2137 17.0596C95.6364 17.5323 94.9504 17.7632 94.1571 17.7632C93.2973 17.7632 92.5923 17.516 92.0449 17.0134C91.5002 16.5121 91.2231 15.8628 91.2231 15.0668C91.2231 14.2491 91.5029 13.5998 92.0612 13.1067C92.6195 12.6164 93.3177 12.3691 94.1571 12.3691Z" fill="white"/>
<path d="M103.81 16.2791V13.8639C103.522 13.6656 103.225 13.5692 102.922 13.5692C102.521 13.5692 102.21 13.7077 101.986 13.9862C101.766 14.266 101.653 14.6572 101.653 15.1598C101.653 15.623 101.763 15.9966 101.985 16.2764C102.205 16.5562 102.501 16.6975 102.869 16.6975C103.192 16.6975 103.507 16.5576 103.81 16.2791ZM105.402 10.1828V17.666H103.81V17.2585C103.403 17.594 102.935 17.7638 102.407 17.7638C101.733 17.7638 101.171 17.5111 100.717 17.0113C100.266 16.5114 100.041 15.8825 100.041 15.1286C100.041 14.357 100.27 13.7281 100.728 13.2377C101.187 12.7487 101.774 12.5029 102.494 12.5029C102.938 12.5029 103.38 12.6102 103.81 12.8221V10.1828H105.402Z" fill="white"/>
<path d="M107.798 14.5534H109.992C109.908 13.8172 109.543 13.4518 108.896 13.4518C108.244 13.4518 107.879 13.8172 107.798 14.5534ZM111.307 16.0978V17.0989C110.7 17.5404 109.949 17.7632 109.052 17.7632C108.162 17.7632 107.452 17.5241 106.921 17.046C106.387 16.5692 106.121 15.9389 106.121 15.1511C106.121 14.3795 106.374 13.7465 106.871 13.2466C107.372 12.7508 108.009 12.5023 108.785 12.5023C109.563 12.5023 110.201 12.7631 110.699 13.2874C111.197 13.8104 111.431 14.5099 111.397 15.3888H107.766C107.798 15.8479 107.961 16.2024 108.255 16.4497C108.546 16.6969 108.939 16.8205 109.433 16.8205C110.027 16.8205 110.655 16.5801 111.307 16.0978Z" fill="white"/>
<path d="M58.5306 27.6583H56.5732V19.8002H58.5306V27.6583Z" fill="white"/>
<path d="M61.8829 22.3492V23.0284C62.4494 22.5 63.0661 22.2365 63.7289 22.2365C64.6431 22.2365 65.2788 22.6114 65.6442 23.3667C66.2854 22.6114 66.9849 22.2365 67.7388 22.2365C68.3501 22.2365 68.8486 22.4226 69.2357 22.7948C69.6215 23.1643 69.8144 23.6492 69.8144 24.2469V27.6577H68.145V24.543C68.145 24.1708 68.0594 23.8774 67.8855 23.6696C67.713 23.459 67.4712 23.3572 67.1629 23.3572C66.6739 23.3572 66.2351 23.6573 65.8439 24.2577V27.6577H64.1786V24.5118C64.1786 24.1382 64.0848 23.853 63.9001 23.6546C63.7154 23.455 63.4681 23.3572 63.1611 23.3572C62.721 23.3572 62.2945 23.6003 61.8829 24.0934V27.6577H60.2108V22.3492H61.8829Z" fill="white"/>
<path d="M72.8572 23.851V26.292C73.171 26.5257 73.4929 26.6425 73.8244 26.6425C74.2291 26.6425 74.5511 26.4958 74.7888 26.2051C75.0251 25.9158 75.146 25.5218 75.146 25.026C75.146 24.5207 75.036 24.1268 74.8173 23.847C74.5986 23.5631 74.2889 23.4245 73.8923 23.4245C73.5568 23.4245 73.2131 23.5671 72.8572 23.851ZM72.8572 22.3501V22.8105C73.3014 22.4288 73.808 22.2373 74.3745 22.2373C75.0659 22.2373 75.6486 22.4981 76.1254 23.0197C76.6022 23.54 76.8385 24.1825 76.8385 24.9391C76.8385 25.7921 76.5995 26.4754 76.1213 26.9902C75.6446 27.5037 75.0116 27.7618 74.2223 27.7618C73.7361 27.7618 73.281 27.6395 72.8572 27.395V30.3114H71.1851V22.3501H72.8572Z" fill="white"/>
<path d="M81.5757 27.658V26.8987C81.084 27.4733 80.5121 27.7612 79.8587 27.7612C79.2828 27.7612 78.8128 27.5819 78.4528 27.226C78.0929 26.8701 77.9136 26.3771 77.9136 25.7481V22.3495H79.5857V25.6313C79.5857 26.3037 79.8642 26.6419 80.4225 26.6419C80.739 26.6419 81.0066 26.5183 81.2293 26.2711C81.4535 26.0293 81.5648 25.8459 81.5648 25.7305V22.3495H83.2465V27.658H81.5757Z" fill="white"/>
<path d="M86.1132 24.3911H88.4184C88.3301 23.621 87.9443 23.2311 87.2665 23.2311C86.5791 23.2311 86.1947 23.621 86.1132 24.3911ZM89.7957 26.0117V27.0644C89.16 27.529 88.3695 27.7612 87.4308 27.7612C86.4963 27.7612 85.7492 27.5113 85.1895 27.0101C84.6312 26.5088 84.3528 25.8432 84.3528 25.0187C84.3528 24.2078 84.6136 23.5408 85.1393 23.0192C85.6636 22.4976 86.3333 22.2368 87.1496 22.2368C87.966 22.2368 88.6357 22.5112 89.1587 23.0613C89.683 23.6101 89.9261 24.3477 89.8922 25.2686H86.0793C86.1132 25.7509 86.283 26.1217 86.59 26.3825C86.8983 26.6419 87.3113 26.771 87.8275 26.771C88.4564 26.771 89.1125 26.517 89.7957 26.0117Z" fill="white"/>
<path d="M94.6705 22.6307V23.8179C94.0348 23.4281 93.4439 23.2297 92.9006 23.2297C92.4999 23.2297 92.2975 23.3697 92.2975 23.6427C92.2975 23.7147 92.341 23.784 92.4252 23.8532C92.5121 23.9239 92.8327 24.0706 93.3964 24.2947C93.9601 24.5188 94.3554 24.7756 94.5877 25.069C94.82 25.361 94.9381 25.6829 94.9381 26.0334C94.9381 26.5849 94.7507 27.0114 94.3744 27.3116C93.9982 27.6105 93.4643 27.7612 92.7716 27.7612C92.0598 27.7612 91.4241 27.6335 90.8699 27.3741V26.1978C91.5531 26.498 92.1236 26.6474 92.5855 26.6474C93.1247 26.6474 93.3964 26.5156 93.3964 26.2548C93.3964 26.1529 93.3461 26.0578 93.2456 25.9682C93.1451 25.8785 92.8096 25.721 92.2418 25.4996C91.6713 25.2754 91.2828 25.0323 91.0722 24.7647C90.8617 24.4998 90.7585 24.201 90.7585 23.8763C90.7585 23.3914 90.9595 22.9975 91.3616 22.6932C91.7637 22.3876 92.2961 22.2368 92.9563 22.2368C93.5893 22.2368 94.1625 22.3699 94.6705 22.6307Z" fill="white"/>
<path d="M99.7843 22.3495V23.4919H97.8513V25.6802C97.8513 25.9424 97.9219 26.1489 98.0659 26.301C98.2099 26.4531 98.4096 26.5278 98.6663 26.5278C99.01 26.5278 99.3849 26.4273 99.7843 26.2195V27.4298C99.2518 27.6498 98.737 27.7612 98.2398 27.7612C97.5864 27.7612 97.0798 27.5928 96.7184 27.2546C96.3598 26.9177 96.1792 26.4232 96.1792 25.7699V23.4919H95.4198V23.1645L97.6408 20.6801H97.8513V22.3495H99.7843Z" fill="white"/>
<path d="M103.386 26.771C104.185 26.771 104.586 26.1692 104.586 24.9617C104.586 23.8098 104.185 23.2311 103.386 23.2311C103.005 23.2311 102.706 23.386 102.489 23.6889C102.273 23.9945 102.165 24.4292 102.165 24.997C102.165 26.1801 102.573 26.771 103.386 26.771ZM103.386 22.2368C104.219 22.2368 104.926 22.4826 105.506 22.9703C106.084 23.4566 106.375 24.1371 106.375 25.0078C106.375 25.8826 106.08 26.5604 105.492 27.0413C104.901 27.5222 104.201 27.7612 103.386 27.7612C102.505 27.7612 101.784 27.5059 101.224 26.9938C100.664 26.4789 100.383 25.8161 100.383 24.997C100.383 24.1643 100.67 23.4946 101.24 22.9907C101.811 22.4894 102.528 22.2368 103.386 22.2368Z" fill="white"/>
<path d="M111.108 22.6307V23.8179C110.47 23.4281 109.881 23.2297 109.335 23.2297C108.935 23.2297 108.734 23.3697 108.734 23.6427C108.734 23.7147 108.776 23.784 108.86 23.8532C108.946 23.9239 109.269 24.0706 109.831 24.2947C110.395 24.5188 110.793 24.7756 111.024 25.069C111.257 25.361 111.372 25.6829 111.372 26.0334C111.372 26.5849 111.187 27.0114 110.811 27.3116C110.436 27.6105 109.902 27.7612 109.208 27.7612C108.495 27.7612 107.862 27.6335 107.305 27.3741V26.1978C107.988 26.498 108.558 26.6474 109.022 26.6474C109.561 26.6474 109.831 26.5156 109.831 26.2548C109.831 26.1529 109.781 26.0578 109.682 25.9682C109.581 25.8785 109.246 25.721 108.677 25.4996C108.109 25.2754 107.718 25.0323 107.508 24.7647C107.298 24.4998 107.193 24.201 107.193 23.8763C107.193 23.3914 107.394 22.9975 107.798 22.6932C108.201 22.3876 108.732 22.2368 109.392 22.2368C110.027 22.2368 110.599 22.3699 111.108 22.6307Z" fill="white"/>
<path d="M58.5306 37.6219H56.5732V29.7625H58.5306V37.6219Z" fill="white"/>
<path d="M61.8597 32.3114V33.0653C62.3528 32.4866 62.9274 32.1973 63.5862 32.1973C64.1404 32.1973 64.6009 32.3739 64.969 32.7284C65.3385 33.0802 65.5232 33.5855 65.5232 34.243V37.6212H63.8511V34.3842C63.8511 33.6725 63.5767 33.3179 63.0238 33.3179C62.6326 33.3179 62.2441 33.61 61.8597 34.1954V37.6212H60.1903V32.3114H61.8597Z" fill="white"/>
<path d="M70.6552 32.3111V33.4534H68.7209V35.6404C68.7209 35.9039 68.7915 36.1117 68.9382 36.2639C69.0808 36.4147 69.2805 36.4907 69.5359 36.4907C69.8809 36.4907 70.2544 36.3875 70.6552 36.1824V37.3913C70.124 37.6127 69.6079 37.7241 69.108 37.7241C68.4546 37.7241 67.9493 37.553 67.5907 37.2175C67.2307 36.8779 67.0487 36.3821 67.0487 35.7328V33.4534H66.2894V33.1261L68.5117 30.6416H68.7209V32.3111H70.6552Z" fill="white"/>
<path d="M73.0217 34.354H75.3282C75.2386 33.5811 74.8542 33.194 74.175 33.194C73.489 33.194 73.1046 33.5811 73.0217 34.354ZM76.707 35.9718V37.0246C76.0685 37.4918 75.2793 37.7241 74.338 37.7241C73.4034 37.7241 72.6577 37.4728 72.098 36.9716C71.5411 36.4704 71.2599 35.8061 71.2599 34.9802C71.2599 34.1693 71.5235 33.501 72.0478 32.9807C72.5748 32.4591 73.2431 32.197 74.0568 32.197C74.8745 32.197 75.5442 32.4741 76.0672 33.0228C76.5915 33.5716 76.836 34.3078 76.802 35.2315H72.9891C73.0217 35.7137 73.1915 36.0832 73.5012 36.344C73.8069 36.6035 74.2198 36.7325 74.7387 36.7325C75.3649 36.7325 76.021 36.4785 76.707 35.9718Z" fill="white"/>
<path d="M79.639 32.3114V33.83H79.6594C80.1443 32.742 80.708 32.1973 81.3532 32.1973C81.6616 32.1973 82.0297 32.3589 82.4603 32.6795L81.9998 34.1615C81.5869 33.9007 81.2582 33.7676 81.0109 33.7676C80.6225 33.7676 80.2992 34.008 80.0329 34.4875C79.7708 34.9656 79.639 35.2441 79.639 35.3242V37.6212H77.9655V32.3114H79.639Z" fill="white"/>
<path d="M84.8409 32.3114V33.0653C85.3312 32.4866 85.9072 32.1973 86.5673 32.1973C87.1188 32.1973 87.5807 32.3739 87.9502 32.7284C88.3196 33.0802 88.503 33.5855 88.503 34.243V37.6212H86.8322V34.3842C86.8322 33.6725 86.5578 33.3179 86.005 33.3179C85.6124 33.3179 85.2226 33.61 84.8409 34.1954V37.6212H83.1701V32.3114H84.8409Z" fill="white"/>
<path d="M92.5932 36.7325C93.3933 36.7325 93.7913 36.1321 93.7913 34.9245C93.7913 33.7699 93.3933 33.1954 92.5932 33.1954C92.2101 33.1954 91.9127 33.3461 91.6953 33.6504C91.4794 33.9547 91.3734 34.3907 91.3734 34.9571C91.3734 36.1403 91.7782 36.7325 92.5932 36.7325ZM92.5932 32.197C93.4259 32.197 94.1295 32.4415 94.7122 32.9305C95.2895 33.4181 95.5816 34.0987 95.5816 34.9694C95.5816 35.8442 95.2868 36.5233 94.6973 37.0028C94.1064 37.4837 93.4069 37.7241 92.5932 37.7241C91.7116 37.7241 90.9903 37.4674 90.4307 36.9539C89.8697 36.4418 89.5872 35.7776 89.5872 34.9571C89.5872 34.1245 89.8765 33.4562 90.4456 32.9549C91.0202 32.451 91.7361 32.197 92.5932 32.197Z" fill="white"/>
<path d="M100.314 32.5922V33.7794C99.6765 33.3896 99.0842 33.194 98.5409 33.194C98.1402 33.194 97.9392 33.3312 97.9392 33.6042C97.9392 33.6762 97.9813 33.7468 98.0668 33.8148C98.1511 33.884 98.4743 34.0335 99.0381 34.2549C99.5991 34.479 99.9971 34.7371 100.229 35.0305C100.463 35.3239 100.578 35.6445 100.578 35.9949C100.578 36.5451 100.39 36.9729 100.016 37.2731C99.6398 37.572 99.106 37.7241 98.4119 37.7241C97.7001 37.7241 97.0657 37.5951 96.5115 37.3343V36.1579C97.1948 36.4608 97.7653 36.6089 98.2271 36.6089C98.7664 36.6089 99.0367 36.4785 99.0367 36.2163C99.0367 36.1158 98.9864 36.0194 98.8873 35.9297C98.7881 35.8414 98.454 35.6839 97.8807 35.4597C97.3143 35.2383 96.9231 34.9938 96.7139 34.7276C96.5047 34.4613 96.3988 34.1639 96.3988 33.8379C96.3988 33.3529 96.5998 32.9604 97.0032 32.6547C97.4067 32.3505 97.9378 32.197 98.5993 32.197C99.2323 32.197 99.8042 32.3301 100.314 32.5922Z" fill="white"/>
</svg>
