<svg width="202" height="172" viewBox="0 0 202 172" fill="none" xmlns="http://www.w3.org/2000/svg">
<mask id="mask0_668_2887" style="mask-type:alpha" maskUnits="userSpaceOnUse" x="0" y="0" width="202" height="172">
<rect width="202" height="172" fill="#D9D9D9"/>
</mask>
<g mask="url(#mask0_668_2887)">
<path d="M77.8682 31.7375L65.5178 33.7091" stroke="black" stroke-miterlimit="10"/>
<path d="M65.0914 70.9486C65.0914 70.9486 74.061 70.3701 75.5078 71.7784C76.9545 73.1867 105.912 106.468 105.912 106.468L100.612 126.07L62.6852 99.1828L65.0914 70.9486Z" fill="#FEE882"/>
<path d="M105.912 106.468C105.912 106.468 122.336 81.2785 127.331 77.754C132.349 74.2143 140.268 73.316 140.268 73.316L149.983 84.9781C149.983 84.9781 149.085 90.7026 146.085 97.5233C143.085 104.344 114.402 130.561 111.112 131.086C107.823 131.611 100.612 126.069 100.612 126.069V108.165L105.912 106.468Z" fill="#FEE882"/>
<path d="M145.019 99.3807C133.932 110.114 109.917 123.801 109.917 123.801C97.1325 116.615 71.5103 87.5359 71.5103 87.5359L64.1472 100.233L100.605 126.077C100.605 126.077 107.815 131.619 111.105 131.094C114.15 130.606 138.943 108.508 145.011 99.3883L145.019 99.3807Z" fill="#F8C895"/>
<path d="M145.529 72.5929C145.529 72.5929 150.456 57.825 151.4 57.6042C152.344 57.3834 161.169 54.1939 161.169 54.1939L170.694 49.9005C170.694 49.9005 172.004 50.9206 171.007 52.1994L176.535 49.9005C176.535 49.9005 177.007 51.3849 176.535 52.641C176.062 53.897 173.375 55.9752 173.375 55.9752L173.451 54.5669L176.055 52.4202C176.055 52.4202 176.953 53.4555 176.74 54.9399C176.527 56.4243 163.971 71.2836 163.971 71.2836L153.387 79.0938L145.514 72.6005L145.529 72.5929Z" fill="#FFE0C4"/>
<path d="M153.402 79.0863C153.402 79.0863 161.298 78.5915 162.326 78.1728C163.354 77.7541 168.92 75.4856 171.014 74.7473C173.108 74.0089 176.786 73.3085 176.786 73.3085C176.786 73.3085 176.07 70.865 174.25 70.4158C172.43 69.9667 163.986 71.276 163.986 71.276H156.486L153.41 79.0863H153.402Z" fill="#FFE0C4"/>
<path d="M174.25 70.4158C172.43 69.9743 163.986 71.276 163.986 71.276C163.986 71.276 176.542 56.4167 176.755 54.9323C176.877 54.0797 176.634 53.3794 176.398 52.9303C176.458 52.8313 176.504 52.7247 176.542 52.6334C177.014 51.3773 176.542 49.8929 176.542 49.8929L171.014 52.1919C172.012 50.9206 170.702 49.8929 170.702 49.8929L161.176 54.1863C161.176 54.1863 152.351 57.3682 151.407 57.5966C150.463 57.8174 145.537 72.5853 145.537 72.5853L153.41 79.0786C153.41 79.0786 161.306 78.5838 162.334 78.1651C163.362 77.7465 168.928 75.478 171.022 74.7396C173.116 74.0088 176.793 73.3009 176.793 73.3009C176.793 73.3009 176.078 70.8573 174.258 70.4082L174.25 70.4158Z" stroke="#350605" stroke-linecap="round" stroke-linejoin="round"/>
<path d="M172.392 74.3209L171.639 71.7099C171.639 71.7099 174.692 71.5043 175.217 73.6282" stroke="#350605" stroke-linecap="round" stroke-linejoin="round"/>
<path d="M42.8499 16.3302C42.8499 16.3302 34.3828 2.35394 31.1772 2.01138C27.9715 1.66883 11.4332 9.13652 9.73524 14.0389C8.03725 18.9412 12.0424 28.4718 16.6567 30.9839C21.2633 33.496 37.4818 27.6649 37.4818 27.6649L42.8575 16.3302H42.8499Z" fill="#2C3B5D"/>
<path d="M15.3014 18.9336C15.1415 16.0485 16.6796 11.032 18.1415 6.98987C14.0678 9.25073 10.4663 11.8922 9.72768 14.0389C8.02968 18.9412 12.0348 28.4719 16.6491 30.9839C21.2634 33.496 37.4743 27.665 37.4743 27.665L40.5124 21.263C32.1519 22.0014 15.5298 22.9682 15.3014 18.9336Z" fill="#2C3B5D"/>
<path d="M41.9514 15.2035C41.9514 15.2035 37.9691 9.814 33.4158 8.99187C28.8624 8.16973 23.7608 21.0422 26.6467 25.3432C29.5325 29.6441 37.4742 24.856 37.4742 24.856L41.959 15.2111L41.9514 15.2035Z" fill="#FEE882"/>
<path d="M46.383 43.9858L46.6876 69.1979L63.6675 72.6539L59.4339 50.4106L46.383 43.9858Z" fill="#FFE0C4"/>
<path d="M59.4339 50.4106L58.3222 49.8625L46.6799 47.1449C46.6799 47.1449 50.1292 58.6852 54.9034 62.1793C57.6217 64.1661 60.2867 64.4477 62.0761 64.3259L59.4263 50.4106H59.4339Z" fill="#E8BC95"/>
<path d="M62.7157 16.6804C62.7157 16.6804 74.457 17.9821 75.7591 25.1529C77.0611 32.3237 73.1474 62.3163 68.5864 62.9633C64.0254 63.6104 49.0252 57.7489 43.8094 43.4073C38.5936 29.0656 41.8525 13.4147 62.7233 16.6804H62.7157Z" fill="#FFE0C4"/>
<path d="M75.7514 25.1605C74.4494 17.9896 62.7081 16.6879 62.7081 16.6879C41.8372 13.4299 38.5783 29.0732 43.7941 43.4148C44.5099 45.3788 45.4084 47.1753 46.4363 48.8196L46.68 69.1978L63.6599 72.6538L61.5355 61.4789C64.5203 62.7045 67.0939 63.1841 68.5787 62.9709C73.1397 62.3163 77.0535 32.3313 75.7514 25.1605Z" stroke="#350605" stroke-linecap="round" stroke-linejoin="round"/>
<path d="M54.043 31.7375H65.1066C65.1066 31.7375 68.0686 40.6668 59.5025 40.6668C50.9364 40.6668 54.043 31.7375 54.043 31.7375Z" stroke="#350605" stroke-linecap="round" stroke-linejoin="round"/>
<path d="M68.9899 31.7375H77.8682C77.8682 31.7375 80.2515 40.6668 73.3681 40.6668C66.4848 40.6668 68.9899 31.7375 68.9899 31.7375Z" stroke="#350605" stroke-linecap="round" stroke-linejoin="round"/>
<path d="M42.0352 41.763C42.0352 41.763 45.7662 38.17 47.1368 36.2745C48.5074 34.3791 47.1368 21.0042 47.1368 21.0042C47.1368 21.0042 59.8908 16.8479 73.3757 21.0042C73.3757 21.0042 69.1117 15.3102 58.2613 11.268C46.9845 7.06602 32.6391 11.74 29.2584 22.854C25.87 33.9604 46.3906 53.5317 46.3906 53.5317L46.6876 47.1525L42.0352 41.7706" fill="#2C3B5D"/>
<path d="M73.3758 21.0041C73.3758 21.0041 69.1118 15.3101 58.2614 11.268C52.2993 9.04518 45.4693 9.31161 39.8652 11.6943C37.1088 7.59122 33.1493 2.22453 31.1696 2.01138C27.964 1.66883 11.4257 9.13652 9.72768 14.0389C8.02968 18.9412 12.0348 28.4718 16.6491 30.9839C19.1009 32.3161 24.8269 31.296 29.662 30.0476C33.0503 40.8038 46.3906 53.5316 46.3906 53.5316L46.6876 47.1525L42.0352 41.7706C42.0352 41.7706 45.7663 38.1776 47.1368 36.2821C48.5074 34.3866 47.1368 21.0118 47.1368 21.0118C47.1368 21.0118 59.8908 16.8554 73.3758 21.0118V21.0041Z" stroke="#350605" stroke-linecap="round" stroke-linejoin="round"/>
<path d="M41.0149 30.1008C37.1544 28.5936 32.1975 24.5515 29.4868 22.1764C29.4107 22.3972 29.3269 22.6255 29.2584 22.8539C25.87 33.9603 46.3906 53.5316 46.3906 53.5316L46.6876 47.1525L42.0352 41.7705C42.0352 41.7705 45.7662 38.1775 47.1368 36.2821C48.5074 34.3866 47.1368 21.0117 47.1368 21.0117C47.1368 21.0117 46.619 32.2932 41.0149 30.1085V30.1008Z" fill="#2C3B5D"/>
<path d="M44.7306 63.0166L65.7005 65.3917L65.0914 70.9486L70.1396 73.9555L93.7973 100.271C93.7973 100.271 92.5105 111.279 84.1272 112.116L87.1043 136.993C87.1043 136.993 67.0787 144.864 37.6646 137.823L42.7585 119.599L29.4716 75.341L45.1875 70.9486L44.723 63.0166H44.7306Z" fill="#FEE882"/>
<path d="M54.043 31.7375L40.5123 37.3022" stroke="#350605" stroke-linecap="round" stroke-linejoin="round"/>
<path d="M33.0732 87.3304L42.7586 119.599L38.4869 134.892L46.6419 137.823C46.6419 137.823 50.4643 118.084 48.515 112.581C46.5734 107.077 33.0656 87.3381 33.0656 87.3381L33.0732 87.3304Z" fill="#F8C895"/>
<path d="M45.1951 70.9486C45.1951 70.9486 28.8853 71.6261 26.639 73.9555C24.3928 76.2849 3.3316 128.939 3.3316 128.939L18.5374 136.993L41.9514 100.271L45.1951 70.9486Z" fill="#FEE882"/>
<path d="M45.5074 41.7629C45.5074 41.7629 38.0072 29.9486 35.228 37.8882C32.4412 45.8279 47.8906 47.7614 47.8906 47.7614L45.515 41.7553L45.5074 41.7629Z" fill="#FFE0C4"/>
<path d="M45.0124 41.0322C43.2992 38.581 37.5808 31.1742 35.2204 37.8883C32.761 44.8917 44.4794 47.221 47.2891 47.6778" stroke="#350605" stroke-linecap="round" stroke-linejoin="round"/>
<path d="M45.1952 70.9486C45.1952 70.9486 34.7179 71.3825 29.4031 72.7603L50.7917 75.3485L48.0658 63.4048L44.7307 63.0242L45.1952 70.9562V70.9486Z" fill="#F8C895"/>
<path d="M38.1671 41.7629C38.1671 41.7629 36.1417 36.617 39.0047 37.3782C41.8677 38.1395 44.883 43.3158 44.883 43.3158C44.883 43.3158 43.8246 45.5539 42.5682 44.785C41.3119 44.0162 40.0936 43.2473 40.0936 43.2473L43.5505 44.1608C43.5505 44.1608 40.124 38.3602 39.1494 38.5658C38.1748 38.7713 38.1748 41.7629 38.1748 41.7629H38.1671Z" fill="#E8BC95"/>
<path d="M43.8931 45.3484C43.8931 45.3484 42.7205 51.9635 42.8423 52.7171C42.9641 53.4707 46.0632 53.5697 46.4439 52.2147C46.8246 50.8597 44.586 45.3484 44.586 45.3484H43.8931Z" fill="#FFCC2A"/>
<path d="M44.6622 47.7691C43.954 47.4799 43.3144 51.8417 44.883 52.032C46.4515 52.2224 45.2942 48.028 44.6622 47.7691Z" fill="#D9F0F7"/>
<path d="M61.8705 49.3069C61.8705 49.3069 67.0102 47.419 68.4189 49.7027C68.4189 49.7027 69.9493 48.1422 71.5179 49.8017L70.9392 50.3345C70.9392 50.3345 70.6727 53.3186 67.8935 53.2653C65.1142 53.212 61.8705 49.3069 61.8705 49.3069Z" fill="#EDA1A1"/>
<path d="M43.6114 52.2984C43.0936 51.3317 44.0987 45.3484 44.0987 45.3484H43.8855C43.8855 45.3484 42.7129 51.9635 42.8347 52.7171C42.9566 53.4784 46.0556 53.5697 46.4363 52.2147C46.4363 52.2147 44.1216 53.2576 43.6038 52.2984H43.6114Z" fill="#DEAA26"/>
<path d="M72.0585 49.8016C72.0585 49.8016 64.5431 49.756 60.5228 48.8501C60.5228 48.8501 66.8427 54.8182 72.0585 49.8016Z" fill="white"/>
<path d="M67.231 31.6386C67.231 31.6386 60.7055 25.8989 53.1597 31.9964C53.1597 31.9964 58.8096 19.8471 67.231 31.6386Z" fill="#2C3B5D"/>
<path d="M76.0027 28.7155C75.0128 28.1369 73.7488 28.6013 72.325 31.9964C72.325 31.9964 73.8021 30.5653 75.9646 31.0753C75.9951 30.2379 76.0027 29.4463 75.995 28.7155H76.0027Z" fill="#2C3B5D"/>
<path d="M58.8096 33.5112C58.2994 33.5112 57.8806 34.242 57.8806 35.1403C57.8806 36.0385 58.2918 36.7693 58.8096 36.7693C59.3273 36.7693 59.7385 36.0385 59.7385 35.1403C59.7385 34.242 59.3273 33.5112 58.8096 33.5112Z" fill="#350605"/>
<path d="M72.4468 34.3866C71.9366 34.3866 71.5178 35.1174 71.5178 36.0156C71.5178 36.9139 71.929 37.6447 72.4468 37.6447C72.9645 37.6447 73.3757 36.9139 73.3757 36.0156C73.3757 35.1174 72.9645 34.3866 72.4468 34.3866Z" fill="#350605"/>
<path d="M67.6878 44.5948L72.7666 43.9097C72.7666 43.9097 71.6168 45.6986 70.2234 45.965C68.83 46.2314 67.6802 44.5948 67.6802 44.5948H67.6878Z" fill="#E8BC95"/>
<path d="M140.268 73.316L146.092 68.9618L155.336 80.228L149.983 84.9781L140.268 73.316Z" fill="#FEE882"/>
<path d="M38.5631 105.592L42.7662 119.599L37.6722 137.823C67.0863 144.872 87.112 136.993 87.112 136.993L84.4317 114.598L100.612 126.07C100.612 126.07 107.823 131.611 111.112 131.086C114.402 130.561 143.092 104.344 146.085 97.5233C149.085 90.7026 149.983 84.9782 149.983 84.9782L155.329 80.2281L146.085 68.9618L140.26 73.3161C140.26 73.3161 132.341 74.2143 127.323 77.7541C122.328 81.2786 105.904 106.468 105.904 106.468C105.904 106.468 76.9468 73.1791 75.5001 71.7784C74.0534 70.3777 65.0837 70.9487 65.0837 70.9487L65.6929 65.3917L44.723 63.0166L45.1875 70.9487" stroke="#350605" stroke-linecap="round" stroke-linejoin="round"/>
<path d="M33.0732 117.833C33.0732 117.833 31.9006 123.375 33.0732 127.074C34.2458 130.774 38.7078 132.647 38.7078 132.647L45.1952 131.634C45.1952 131.634 47.2967 120.102 40.6723 116.493L33.0732 117.841V117.833Z" fill="#F5F991"/>
<path d="M44.5023 71.1465C44.5023 71.1465 55.2917 78.3554 61.1243 78.1575C66.9569 77.9596 66.6828 70.9486 66.6828 70.9486" stroke="#350605" stroke-linecap="round" stroke-linejoin="round"/>
<path d="M105.912 106.468C105.912 106.468 104.838 117.62 105.912 124.509C105.912 124.509 97.1324 115.443 104.176 107.023" stroke="#1A1A1A" stroke-miterlimit="10"/>
<path d="M149.983 84.9782C142.887 81.7201 140.062 72.4788 140.062 72.4788" stroke="#350605" stroke-linecap="round" stroke-linejoin="round"/>
<path d="M76.1093 80.5858L93.8125 100.271C93.8125 100.271 92.5257 111.279 84.1424 112.116L85.8328 125.186" stroke="#350605" stroke-linecap="round" stroke-linejoin="round"/>
<path d="M30.7812 74.2144C30.7812 74.2144 38.7839 78.5001 40.6723 86.6301C42.5606 94.7524 39.0352 105.615 39.0352 105.615" stroke="#350605" stroke-linecap="round" stroke-linejoin="round"/>
<path d="M93.805 162.624C93.409 155.08 87.112 139.049 87.112 139.049L86.7236 133.773C70.0026 135.387 48.6064 132.068 39.7204 130.469L37.6646 137.815C37.6646 137.815 25.4436 150.673 22.9232 160.942C20.4029 171.211 24.0426 227.23 24.0426 227.23C25.3979 227.839 26.837 228.372 28.3218 228.844L32.365 197.024L35.959 230.633C59.0989 234.454 89.5409 227.237 89.5409 227.237C89.5409 227.237 94.1857 170.168 93.7973 162.624H93.805Z" fill="#A3A3F5"/>
<path d="M39.7281 130.477L37.6722 137.823C37.6722 137.823 25.4512 150.68 22.9309 160.949C20.4105 171.218 24.0502 227.237 24.0502 227.237C25.4055 227.846 26.8446 228.379 28.3294 228.851L32.3726 197.032L35.9666 230.64C37.6341 230.914 39.3321 231.135 41.0606 231.295C38.6011 210.84 33.2254 165.981 33.0731 163.18C32.898 159.975 40.8626 136.46 42.7281 130.995C41.6164 130.812 40.6037 130.629 39.7205 130.477H39.7281Z" fill="#9193EC"/>
<path d="M93.805 162.624C93.409 155.08 87.112 139.049 87.112 139.049L86.7236 133.773C71.6625 135.227 52.8171 132.677 42.7281 130.995C42.4997 130.957 42.2789 130.919 42.058 130.881C41.9819 130.865 41.8981 130.85 41.822 130.842C41.6316 130.812 41.4413 130.774 41.2585 130.743C41.1367 130.721 41.0073 130.698 40.8854 130.683C40.756 130.66 40.6189 130.637 40.4895 130.614C40.223 130.568 39.9641 130.523 39.7204 130.477L37.6646 137.823C37.6646 137.823 25.4436 150.68 22.9232 160.949C20.4029 171.218 24.0426 227.237 24.0426 227.237C25.3979 227.846 26.837 228.379 28.3218 228.851L32.365 197.032L35.959 230.64C36.7813 230.777 37.6113 230.899 38.4412 231.005C38.4717 231.005 38.5021 231.013 38.5326 231.021C61.2918 233.944 89.5333 227.245 89.5333 227.245C89.5333 227.245 94.178 170.175 93.7897 162.632L93.805 162.624Z" stroke="#350605" stroke-linecap="round" stroke-linejoin="round"/>
<path d="M44.7612 131.695L41.2281 141.979C41.2281 141.979 32.761 155.75 30.7813 161.985C28.8016 168.219 32.4412 205.375 32.4412 205.375" stroke="#350605" stroke-linecap="round" stroke-linejoin="round"/>
<path d="M87.1119 139.049C87.1119 139.049 76.1017 149.059 37.6722 137.815" stroke="#350605" stroke-linecap="round" stroke-linejoin="round"/>
<path d="M3.33925 128.939C3.33925 128.939 19.0933 117.148 24.0578 115.892C29.0147 114.636 33.0808 117.825 33.0808 117.825L38.7154 132.639C38.7154 132.639 35.5631 146.798 28.9386 146.326C22.3141 145.854 3.59814 145.298 2.18949 140.746C1.42045 138.257 3.33925 128.932 3.33925 128.932V128.939Z" fill="#FEE882"/>
<path d="M5.3418 143.228C11.281 145.542 23.7684 145.961 28.931 146.326C35.5554 146.798 38.7077 132.639 38.7077 132.639L38.4489 131.954C36.2483 134.397 31.4741 139.155 26.4487 140.746C22.1314 142.109 12.1642 142.855 5.3418 143.22V143.228Z" fill="#F8C895"/>
<path d="M45.1951 70.9486C45.1951 70.9486 28.8853 71.6261 26.6391 73.9555C24.4004 76.2849 3.33162 128.939 3.33162 128.939C3.33162 128.939 1.41282 138.264 2.18186 140.754C3.5829 145.306 22.3065 145.862 28.931 146.334C35.5554 146.805 38.7078 132.647 38.7078 132.647L45.1951 131.634C45.1951 131.634 47.2967 120.101 40.6722 116.493L33.0731 117.841C33.0731 117.841 32.4488 117.353 31.398 116.836L39.0352 104.862" stroke="#350605" stroke-linecap="round" stroke-linejoin="round"/>
<path d="M40.6722 116.486H40.6418C40.0783 117.513 38.9286 120.124 39.0428 124.273C39.157 128.49 42.987 130.835 44.7611 131.695L45.1951 131.627C45.1951 131.627 47.2967 120.094 40.6722 116.486Z" fill="#290046"/>
<path d="M52.1394 127.6C52.1394 127.6 48.1419 130.431 41.8144 128.985L40.6722 120.315C40.6722 120.315 50.8907 110.167 51.5455 109.711L60.3705 108.165L70.094 108.873C70.094 108.873 69.9721 110.837 68.9975 111.309C68.0229 111.781 60.3629 112.436 60.3629 112.436L56.1141 114.08L72.9036 116.097C72.9036 116.097 72.6219 118.13 71.1219 118.754C69.6219 119.378 56.1141 119.051 56.1141 119.051L70.5584 122.164C70.5584 122.164 69.995 124.677 68.4036 125.027C66.8122 125.377 55.2765 124.441 55.2765 124.441L65.7919 126.473C65.7919 126.473 65.8985 128.14 63.302 128.544C60.7131 128.939 52.1318 127.6 52.1318 127.6H52.1394Z" fill="#FFE0C4"/>
<path d="M52.1394 127.6C52.1394 127.6 48.1419 130.431 41.8144 128.985L40.6722 120.315C40.6722 120.315 50.8907 110.167 51.5455 109.711L60.3705 108.165L70.094 108.873C70.094 108.873 69.9721 110.837 68.9975 111.309C68.0229 111.781 60.3629 112.436 60.3629 112.436L56.1141 114.08L72.9036 116.097C72.9036 116.097 72.6219 118.13 71.1219 118.754C69.6219 119.378 56.1141 119.051 56.1141 119.051L70.5584 122.164C70.5584 122.164 69.995 124.677 68.4036 125.027C66.8122 125.377 55.2765 124.441 55.2765 124.441L65.7919 126.473C65.7919 126.473 65.8985 128.14 63.302 128.544C60.7131 128.939 52.1318 127.6 52.1318 127.6H52.1394Z" stroke="#350605" stroke-linecap="round" stroke-linejoin="round"/>
<path d="M33.0731 117.833C33.0731 117.833 29.6467 129.069 38.7077 132.647" stroke="#350605" stroke-linecap="round" stroke-linejoin="round"/>
<path d="M171.014 52.1919L158.9 58.5634" stroke="#350605" stroke-linecap="round" stroke-linejoin="round"/>
<path d="M176.07 52.4126L162.768 62.1183" stroke="#350605" stroke-linecap="round" stroke-linejoin="round"/>
<path d="M161.169 54.1863L155.74 57.2617" stroke="#350605" stroke-linecap="round" stroke-linejoin="round"/>
<path d="M33.0731 117.833C33.0731 117.833 27.7127 113.745 22.9156 116.288C18.1262 118.823 7.19208 126.138 7.19208 126.138" stroke="#350605" stroke-linecap="round" stroke-linejoin="round"/>
<path d="M22.9232 116.28L10.3596 120.787" stroke="#350605" stroke-linecap="round" stroke-linejoin="round"/>
<path d="M27.6822 27.1321C27.6822 27.1321 26.6543 11.6106 36.0123 8.95386" stroke="#2C3B5D" stroke-miterlimit="10"/>
<path d="M72.0585 19.9537C72.0585 19.9537 70.5356 8.2916 50.0378 10.1414" stroke="#2C3B5D" stroke-miterlimit="10"/>
<path d="M73.3758 21.0042C73.3758 21.0042 77.3048 11.1615 66.3325 16.551" stroke="#2C3B5D" stroke-miterlimit="10"/>
<path d="M151.4 57.5967C151.4 57.5967 161.732 58.023 164.001 64.4858" stroke="#350605" stroke-linecap="round" stroke-linejoin="round"/>
<path d="M82.5205 153.352C82.5205 153.352 71.5026 184.159 55.6039 193.819C39.7052 203.479 72.2793 207.697 80.2058 187.044" stroke="#350605" stroke-linecap="round" stroke-linejoin="round"/>
<rect x="2.5" y="164.5" width="194" height="7" rx="3.5" fill="#FFE984" stroke="#320F0F"/>
<path d="M137.265 13H89.9874C87.231 13 85 15.2304 85 17.9861V39.5594C85 42.3151 87.231 44.5455 89.9874 44.5455H93.6118C95.1042 46.3953 96.3986 49.1129 95.287 52.3938L105.673 44.5455H137.272C140.029 44.5455 142.26 42.3151 142.26 39.5594V17.9861C142.26 15.2304 140.029 13 137.272 13H137.265Z" fill="#EAECEF"/>
<path d="M137.265 13H89.9874C87.231 13 85 15.2304 85 17.9861V39.5594C85 42.3151 87.231 44.5455 89.9874 44.5455H93.6118C95.1042 46.3953 96.3986 49.1129 95.287 52.3938L105.673 44.5455H137.272C140.029 44.5455 142.26 42.3151 142.26 39.5594V17.9861C142.26 15.2304 140.029 13 137.272 13H137.265Z" stroke="#2C3B5D" stroke-miterlimit="10" stroke-linecap="round"/>
<path d="M91.9976 20.1404C91.9976 20.1404 94.4265 20.285 95.2793 21.5639C96.1321 22.8428 100.274 23.132 102.277 21.5639C104.279 19.9957 107.272 21.2822 108.269 21.9902C109.267 22.6981 112.549 22.6372 114.551 21.3812C116.554 20.1252 118.693 20.3459 119.836 21.3812C120.978 22.4165 123.407 22.9189 125.546 21.3812C127.686 19.8435 128.683 20.4905 130.26 21.3812C131.836 22.2718 133.831 22.6296 133.831 22.6296" stroke="#2C3B5D" stroke-miterlimit="10" stroke-linecap="round"/>
<path d="M91.9976 25.9867C91.9976 25.9867 94.4265 26.1313 95.2793 27.4102C96.1321 28.6891 100.274 28.9783 102.277 27.4102C104.279 25.8421 107.272 27.1285 108.269 27.8365C109.267 28.5444 112.549 28.4835 114.551 27.2275C116.554 25.9715 118.693 26.1922 119.836 27.2275C120.978 28.2628 123.407 28.7652 125.546 27.2275C127.686 25.6898 128.683 26.3369 130.26 27.2275C131.836 28.1181 133.831 28.4759 133.831 28.4759" stroke="#2C3B5D" stroke-miterlimit="10" stroke-linecap="round"/>
</g>
</svg>
