<svg width="1301" height="665" viewBox="0 0 1301 665" fill="none" xmlns="http://www.w3.org/2000/svg">
<circle cx="797.106" cy="39.1064" r="7.10644" fill="#417CD4"/>
<circle cx="644.896" cy="299.292" r="7.89604" fill="#882FB1"/>
<circle cx="277.106" cy="657.106" r="7.10644" fill="#D45252"/>
<circle cx="48.1064" cy="25.1064" r="7.10644" fill="#417CD4"/>
<circle cx="714.634" cy="126.634" r="12.6337" fill="#EC732F"/>
<circle cx="1289" cy="599" r="12" fill="#ED4883"/>
<circle cx="8.5" cy="580.5" r="8.5" fill="#ED4883"/>
<circle cx="646.772" cy="645.807" r="11.0545" fill="#417CD4"/>
<path d="M1036.47 623.959L1053.85 636.876L1033.98 645.465L1036.47 623.959Z" fill="#FFE984"/>
<g clip-path="url(#clip0_0_1)">
<path d="M327.53 61.81C325.97 61.81 324.41 61.21 323.24 60L311.71 48.19C309.39 45.82 309.44 42.02 311.81 39.71C314.18 37.39 317.98 37.44 320.29 39.81L331.82 51.62C334.14 53.99 334.09 57.79 331.72 60.1C330.55 61.24 329.04 61.81 327.53 61.81Z" fill="#FFE984"/>
</g>
<path d="M1070.77 14.9425C1069.79 14.9336 1068.81 14.5507 1068.08 13.7897L1060.87 6.36166C1059.42 4.87099 1059.47 2.50236 1060.98 1.07582C1062.49 -0.356952 1064.88 -0.304123 1066.33 1.18649L1073.53 8.61453C1074.98 10.1052 1074.93 12.4738 1073.42 13.9004C1072.68 14.6044 1071.72 14.9511 1070.77 14.9425Z" fill="#ED4883"/>
<g clip-path="url(#clip1_0_1)">
<path d="M199.282 138C194.778 138 189.994 136.375 186.311 131.973C184.717 130.069 181.895 129.532 177.923 130.381C174.486 131.116 171.579 132.648 171.551 132.663L169 127.307C169.142 127.232 172.519 125.439 176.675 124.528C184.341 122.852 188.451 125.487 190.549 127.994C195.56 133.982 203.591 132.105 206.776 129.766L210 134.696C207.421 136.588 203.475 137.997 199.282 137.997V138Z" fill="#882FB1"/>
</g>
<circle cx="550.5" cy="118.5" r="5.5" fill="#D45252"/>
<defs>
<clipPath id="clip0_0_1">
<rect width="23.53" height="23.81" fill="white" transform="translate(310 38)"/>
</clipPath>
<clipPath id="clip1_0_1">
<rect width="41" height="14" fill="white" transform="translate(169 124)"/>
</clipPath>
</defs>
</svg>
