<svg width="18" height="20" viewBox="0 0 18 20" fill="none" xmlns="http://www.w3.org/2000/svg">
<path d="M4 0C2.90575 0 2 0.905745 2 2V7C0.895 7 0 7.895 0 9V14C0 15.105 0.895 16 2 16V18C2 19.0943 2.90575 20 4 20H16C17.0943 20 18 19.0943 18 18V5.41406C17.9999 5.14886 17.8946 4.89454 17.707 4.70703L13.293 0.292969C13.1055 0.105433 12.8511 5.1125e-05 12.5859 0H4ZM4 2H12V5C12 5.552 12.448 6 13 6H16V7H4V2ZM2 9H3.5C4.328 9 5 9.672 5 10.5C5 11.328 4.328 12 3.5 12H3V14H2V9ZM11 9H14V10H12V11H13.5996V12H12V14H11V9ZM6 9.02344H7.62891C9.21091 9.02344 10 9.97491 10 11.1289V11.9004C10 13.0684 9.20923 14 7.61523 14H6V9.02344ZM3 10V11H3.5C3.776 11 4 10.776 4 10.5C4 10.224 3.776 10 3.5 10H3ZM7 10.0234V13H7.61523C8.24723 13 9 12.8084 9 11.9004V11.1289C9 10.2149 8.25491 10.0234 7.62891 10.0234H7ZM4 16H16V18H4V16Z" fill="black"/>
</svg>
