<svg width="23" height="16" viewBox="0 0 23 16" fill="none" xmlns="http://www.w3.org/2000/svg">
<path d="M11.9999 0C5.14188 0 1.88558 5.87864 1.09558 7.55664C0.963582 7.83664 0.963582 8.16141 1.09558 8.44141C1.88558 10.1204 5.14188 16 11.9999 16C18.8339 16 22.0924 10.1629 22.8964 8.46094C23.0344 8.16794 23.0344 7.83206 22.8964 7.53906C22.0924 5.83706 18.8339 0 11.9999 0ZM11.9999 3C14.7609 3 16.9999 5.239 16.9999 8C16.9999 10.761 14.7609 13 11.9999 13C9.23888 13 6.99988 10.761 6.99988 8C6.99988 5.239 9.23888 3 11.9999 3ZM11.9999 5C11.2042 5 10.4412 5.31607 9.87856 5.87868C9.31595 6.44129 8.99988 7.20435 8.99988 8C8.99988 8.79565 9.31595 9.55871 9.87856 10.1213C10.4412 10.6839 11.2042 11 11.9999 11C12.7955 11 13.5586 10.6839 14.1212 10.1213C14.6838 9.55871 14.9999 8.79565 14.9999 8C14.9999 7.20435 14.6838 6.44129 14.1212 5.87868C13.5586 5.31607 12.7955 5 11.9999 5Z" fill="#009AFF"/>
</svg>
