<svg width="46" height="44" viewBox="0 0 46 44" fill="none" xmlns="http://www.w3.org/2000/svg">
<path d="M38.9067 0.8302H7.09324C3.8775 0.8302 1.27063 3.43707 1.27063 6.65281V37.4202C1.27063 40.6359 3.8775 43.2428 7.09324 43.2428H38.9067C42.1225 43.2428 44.7293 40.6359 44.7293 37.4202V6.65281C44.7293 3.43707 42.1225 0.8302 38.9067 0.8302Z" fill="#FEE882"/>
<path d="M39.2108 0.8302H6.78913C3.73997 0.8302 1.27063 3.29954 1.27063 6.3487V11.5347H44.7293V6.3487C44.7293 3.29954 42.26 0.8302 39.2108 0.8302Z" fill="#F07B74"/>
<path d="M39.2108 0.8302H6.78913C3.73997 0.8302 1.27063 3.29954 1.27063 6.3487V11.5347H44.7293V6.3487C44.7293 3.29954 42.26 0.8302 39.2108 0.8302Z" stroke="#350605" stroke-linecap="round" stroke-linejoin="round"/>
<path d="M5.45514 1.0451L14.1526 11.5347" stroke="#350605" stroke-linecap="round" stroke-linejoin="round"/>
<path d="M14.1769 0.8302L22.9148 11.5347" stroke="#350605" stroke-linecap="round" stroke-linejoin="round"/>
<path d="M22.9391 0.8302L31.6771 11.5347" stroke="#350605" stroke-linecap="round" stroke-linejoin="round"/>
<path d="M31.6406 0.761276L40.4394 11.5347" stroke="#350605" stroke-linecap="round" stroke-linejoin="round"/>
<path d="M27.8738 24.4531L21.2564 20.6335C20.04 19.9321 18.5195 20.8079 18.5195 22.2149V29.8581C18.5195 31.261 20.04 32.1409 21.2564 31.4394L27.8738 27.6199C29.0902 26.9184 29.0902 25.1627 27.8738 24.4572V24.4531Z" fill="#F07B74"/>
<path d="M27.8738 24.4531L21.2564 20.6335C20.04 19.9321 18.5195 20.8079 18.5195 22.2149V29.8581C18.5195 31.261 20.04 32.1409 21.2564 31.4394L27.8738 27.6199C29.0902 26.9184 29.0902 25.1627 27.8738 24.4572V24.4531Z" stroke="#350605" stroke-linecap="round" stroke-linejoin="round"/>
<path d="M38.9067 0.8302H7.09324C3.8775 0.8302 1.27063 3.43707 1.27063 6.65281V37.4202C1.27063 40.6359 3.8775 43.2428 7.09324 43.2428H38.9067C42.1225 43.2428 44.7293 40.6359 44.7293 37.4202V6.65281C44.7293 3.43707 42.1225 0.8302 38.9067 0.8302Z" stroke="#350605" stroke-linecap="round" stroke-linejoin="round"/>
</svg>
