<svg width="510" height="380" viewBox="0 0 510 380" fill="none" xmlns="http://www.w3.org/2000/svg">
<g clip-path="url(#clip0_636_1846)">
<path d="M87.7931 40.7718L455.085 17.3334C471.022 16.3133 484.659 28.6529 485.23 44.6084L495.905 344.047C496.492 360.543 482.915 374.047 466.415 373.377L80.7575 357.666C65.2319 357.034 53.1099 344.032 53.5744 328.51L61.2648 68.2218C61.6989 53.5985 73.1965 41.7005 87.8007 40.7718H87.7931Z" fill="#A4DFFB"/>
<path d="M375.698 176.401L378.957 200.646C378.957 200.646 357.751 197.411 356.426 204.399H408.409L403.955 177.04L375.698 176.393V176.401Z" stroke="white" stroke-miterlimit="10"/>
<path d="M400.666 176.964L404.16 202.557C404.16 202.557 383.815 197.761 381.378 204.475" stroke="white" stroke-miterlimit="10"/>
<path d="M337.581 102.645L329.86 169.945C329.525 172.838 331.756 175.388 334.665 175.457L437.74 177.809C440.367 177.87 442.582 175.868 442.788 173.249L448.385 102.196C448.613 99.2877 446.298 96.8213 443.382 96.8593L342.431 98.26C339.941 98.2981 337.863 100.171 337.581 102.645Z" stroke="white" stroke-miterlimit="10"/>
<path d="M341.853 103.52L334.718 170.981L438.212 172.518L443.641 101.442L341.853 103.52Z" stroke="white" stroke-miterlimit="10"/>
<path d="M345.5 108.088L402.995 108.27V113.614H345.5V108.088Z" fill="white"/>
<path d="M345.873 117.04L403.064 117.671" stroke="white" stroke-miterlimit="10"/>
<path d="M344.822 122.833L435.752 123.563" stroke="white" stroke-miterlimit="10"/>
<path d="M343.893 129.044H378.028" stroke="white" stroke-miterlimit="10"/>
<path d="M343.893 134.396L359.952 135.378" stroke="white" stroke-miterlimit="10"/>
<path d="M343.893 141.186L415.3 140.272" stroke="white" stroke-miterlimit="10"/>
<path d="M343.893 145.616L404.161 147.527" stroke="white" stroke-miterlimit="10"/>
<path d="M342.401 151.6L382.414 153.236" stroke="white" stroke-miterlimit="10"/>
<path d="M342.401 158.26H392.77" stroke="white" stroke-miterlimit="10"/>
<path d="M341.837 163.056L407.1 165.157" stroke="white" stroke-miterlimit="10"/>
<path d="M125.994 187.218L126.482 204.947H187.663L189.163 186.327L125.994 187.218Z" stroke="white" stroke-miterlimit="10"/>
<path d="M189.163 189.517L129.847 190.248V201.719L189.163 201.757" stroke="white" stroke-miterlimit="10"/>
<path d="M122.004 174.338L122.499 187.233H183.673L185.18 173.691L122.004 174.338Z" stroke="white" stroke-miterlimit="10"/>
<path d="M185.18 173.691L122.004 174.338L122.499 187.233H183.673" stroke="white" stroke-miterlimit="10"/>
<path d="M185.18 176.005L125.857 176.538V184.881L185.18 184.911" stroke="white" stroke-miterlimit="10"/>
<path d="M443.938 219.319H93.7247V354.986H443.938V219.319Z" stroke="white" stroke-miterlimit="10"/>
<path d="M462.067 204.475H75.595V219.319H462.067V204.475Z" stroke="white" stroke-miterlimit="10"/>
<path d="M119.339 354.994H102.953V379.619H114.299L119.339 354.994Z" stroke="white" stroke-miterlimit="10"/>
<path d="M418.323 354.994H434.702V379.619H423.364L418.323 354.994Z" stroke="white" stroke-miterlimit="10"/>
<path d="M75.595 209.529L462.067 211.897" stroke="white" stroke-miterlimit="10"/>
<path d="M370.764 202.496L396.843 379.619H386.914L355.155 202.305L370.764 202.496Z" fill="#E59A86"/>
<path d="M343.809 202.496L347.228 379.619H337.299L328.192 202.305L343.809 202.496Z" fill="#E59A86"/>
<path d="M294.727 202.496L268.656 379.619H278.577L310.344 202.305L294.727 202.496Z" fill="#E59A86"/>
<path d="M370.764 202.496L355.155 202.305L362.48 243.199L376.505 241.517L370.764 202.496Z" fill="#290046"/>
<path d="M343.809 202.496L328.192 202.305L330.492 247.043L344.632 245.346L343.809 202.496Z" fill="#290046"/>
<path d="M301.71 250.499L310.344 202.305L294.727 202.496L287.41 252.219L301.71 250.499Z" fill="#290046"/>
<path d="M275.364 379.619L304.519 202.496" stroke="#1A1A1A" stroke-miterlimit="10"/>
<path d="M365.259 202.496L394.604 379.619" stroke="#1A1A1A" stroke-miterlimit="10"/>
<path d="M258.856 22.365L261.255 235.723L408.189 237.726L414.166 20.0737L258.856 22.365Z" fill="#52C2F9"/>
<path d="M268.831 30.221V228.758H400.658L405.013 28.4397L268.831 30.221Z" fill="white"/>
<path d="M367.635 54.1922C368.015 54.4358 368.899 54.8164 369.835 54.8164C371.564 54.8164 372.097 53.7202 372.081 52.8905C372.066 51.5051 370.817 50.9037 369.515 50.9037H368.769V49.8989H369.515C370.49 49.8989 371.731 49.3964 371.731 48.2165C371.731 47.4248 371.229 46.7245 369.987 46.7245C369.196 46.7245 368.427 47.0747 368 47.3792L367.65 46.4048C368.168 46.0242 369.173 45.6436 370.246 45.6436C372.203 45.6436 373.087 46.8006 373.087 48.011C373.087 49.031 372.477 49.9065 371.251 50.348V50.3784C372.47 50.622 373.467 51.5355 373.467 52.9286C373.467 54.5119 372.234 55.905 369.85 55.905C368.739 55.905 367.756 55.5548 367.269 55.2351L367.635 54.1998V54.1922Z" fill="#290046"/>
<path d="M375.927 54.7935C376.216 54.824 376.551 54.7935 377.008 54.7479C377.785 54.6413 378.523 54.3216 379.087 53.7887C379.741 53.1949 380.213 52.3271 380.396 51.1472H380.351C379.802 51.8171 379.01 52.2129 378.013 52.2129C376.224 52.2129 375.081 50.8732 375.081 49.1756C375.081 47.2954 376.437 45.6511 378.47 45.6511C380.503 45.6511 381.752 47.303 381.752 49.8303C381.752 52.015 381.021 53.5375 380.038 54.489C379.277 55.235 378.219 55.6918 377.153 55.8136C376.665 55.8897 376.239 55.9049 375.919 55.8897V54.7935H375.927ZM376.414 49.0843C376.414 50.3175 377.16 51.1929 378.325 51.1929C379.224 51.1929 379.924 50.7514 380.282 50.1576C380.358 50.0358 380.404 49.8836 380.404 49.6704C380.404 47.9729 379.779 46.6788 378.371 46.6788C377.229 46.6788 376.414 47.6836 376.414 49.0919V49.0843Z" fill="#290046"/>
<path d="M389.579 50.6677C389.579 54.04 388.33 55.905 386.13 55.905C384.188 55.905 382.878 54.0856 382.848 50.8047C382.848 47.4781 384.28 45.6436 386.297 45.6436C388.315 45.6436 389.579 47.5086 389.579 50.6677ZM384.188 50.8199C384.188 53.4005 384.98 54.8621 386.206 54.8621C387.577 54.8621 388.239 53.2635 388.239 50.7286C388.239 48.1937 387.615 46.6864 386.221 46.6864C385.049 46.6864 384.188 48.1176 384.188 50.8199Z" fill="#290046"/>
<path d="M363.637 74.0603V71.358H359.023V70.4749L363.447 64.1415H364.893V70.3075H366.279V71.358H364.893V74.0603H363.629H363.637ZM363.637 70.3075V66.9961C363.637 66.4785 363.652 65.9608 363.683 65.4432H363.637C363.333 66.0217 363.089 66.448 362.815 66.9048L360.386 70.277V70.3075H363.637Z" fill="#290046"/>
<path d="M373.239 65.2681H369.454L369.074 67.8183C369.302 67.7878 369.515 67.7574 369.881 67.7574C370.642 67.7574 371.411 67.9249 372.02 68.2902C372.797 68.7318 373.437 69.5843 373.437 70.8404C373.437 72.7815 371.899 74.2279 369.744 74.2279C368.663 74.2279 367.741 73.9234 367.269 73.6189L367.604 72.5988C368.015 72.8424 368.822 73.1469 369.729 73.1469C370.993 73.1469 372.081 72.3248 372.081 70.9926C372.066 69.7138 371.213 68.7927 369.226 68.7927C368.663 68.7927 368.221 68.8536 367.855 68.8992L368.495 64.1339H373.246V65.2605L373.239 65.2681Z" fill="#290046"/>
<path d="M380.815 65.0855C380.541 65.0703 380.191 65.0855 379.81 65.1464C377.701 65.4966 376.589 67.0419 376.361 68.6709H376.406C376.878 68.0467 377.701 67.5291 378.805 67.5291C380.564 67.5291 381.797 68.7927 381.797 70.7339C381.797 72.5532 380.564 74.2279 378.5 74.2279C376.437 74.2279 374.99 72.576 374.99 70.0031C374.99 68.0467 375.691 66.509 376.673 65.5346C377.495 64.7277 378.599 64.2253 379.848 64.0731C380.244 64.0122 380.579 63.9969 380.823 63.9969V65.0931L380.815 65.0855ZM380.434 70.81C380.434 69.3941 379.627 68.5339 378.386 68.5339C377.579 68.5339 376.833 69.0363 376.46 69.7519C376.368 69.9041 376.307 70.102 376.307 70.3456C376.338 71.9823 377.084 73.185 378.493 73.185C379.65 73.185 380.434 72.2259 380.434 70.8024V70.81Z" fill="#290046"/>
<path d="M389.579 68.9906C389.579 72.3628 388.33 74.2279 386.13 74.2279C384.188 74.2279 382.878 72.4085 382.848 69.1276C382.848 65.801 384.28 63.9664 386.297 63.9664C388.315 63.9664 389.579 65.8315 389.579 68.9906ZM384.188 69.1428C384.188 71.7234 384.98 73.185 386.206 73.185C387.577 73.185 388.239 71.5864 388.239 69.0515C388.239 66.5166 387.615 65.0093 386.221 65.0093C385.049 65.0093 384.188 66.4404 384.188 69.1428Z" fill="#290046"/>
<path d="M354.561 83.7128H354.53L352.802 84.6415L352.543 83.6214L354.713 82.4644H355.855V92.3832H354.561V83.7128Z" fill="#290046"/>
<path d="M359.48 92.3832V91.5611L360.53 90.541C363.066 88.1279 364.208 86.8491 364.223 85.3494C364.223 84.3446 363.736 83.4083 362.251 83.4083C361.353 83.4083 360.599 83.865 360.142 84.2456L359.716 83.3017C360.401 82.7232 361.383 82.2969 362.525 82.2969C364.665 82.2969 365.564 83.7584 365.564 85.1819C365.564 87.0165 364.239 88.4933 362.145 90.5106L361.353 91.2414V91.2718H365.807V92.3832H359.472H359.48Z" fill="#290046"/>
<path d="M373.757 82.4568V83.3398L369.439 92.3757H368.053L372.355 83.5986V83.5682H367.498V82.4568H373.757Z" fill="#290046"/>
<path d="M381.592 82.4568V83.3398L377.274 92.3757H375.888L380.191 83.5986V83.5682H375.333V82.4568H381.592Z" fill="#290046"/>
<path d="M389.427 82.4568V83.3398L385.109 92.3757H383.724L388.026 83.5986V83.5682H383.168V82.4568H389.427Z" fill="#290046"/>
<path d="M359.48 110.699V109.876L360.53 108.856C363.066 106.443 364.208 105.164 364.223 103.665C364.223 102.66 363.736 101.724 362.251 101.724C361.353 101.724 360.599 102.18 360.142 102.561L359.716 101.617C360.401 101.038 361.383 100.612 362.525 100.612C364.665 100.612 365.564 102.074 365.564 103.497C365.564 105.332 364.239 106.809 362.145 108.826L361.353 109.557V109.587H365.807V110.699H359.472H359.48Z" fill="#290046"/>
<path d="M367.635 109.161C368.015 109.404 368.899 109.785 369.835 109.785C371.564 109.785 372.097 108.689 372.081 107.859C372.066 106.474 370.817 105.872 369.515 105.872H368.769V104.867H369.515C370.49 104.867 371.731 104.365 371.731 103.185C371.731 102.393 371.229 101.693 369.987 101.693C369.196 101.693 368.427 102.043 368 102.348L367.65 101.373C368.168 100.993 369.173 100.612 370.246 100.612C372.203 100.612 373.087 101.769 373.087 102.98C373.087 104 372.477 104.875 371.251 105.317V105.347C372.47 105.591 373.467 106.504 373.467 107.897C373.467 109.488 372.234 110.874 369.85 110.874C368.739 110.874 367.756 110.523 367.269 110.204L367.635 109.168V109.161Z" fill="#290046"/>
<path d="M379.3 110.699V107.996H374.685V107.113L379.109 100.78H380.556V106.946H381.942V107.996H380.556V110.699H379.292H379.3ZM379.3 106.946V103.634C379.3 103.117 379.315 102.599 379.345 102.081H379.3C378.995 102.66 378.751 103.086 378.477 103.543L376.048 106.915V106.946H379.3Z" fill="#290046"/>
<path d="M389.579 105.636C389.579 109.009 388.33 110.874 386.13 110.874C384.188 110.874 382.878 109.054 382.848 105.773C382.848 102.447 384.28 100.612 386.297 100.612C388.315 100.612 389.579 102.477 389.579 105.636ZM384.188 105.789C384.188 108.369 384.98 109.831 386.206 109.831C387.577 109.831 388.239 108.232 388.239 105.697C388.239 103.162 387.615 101.655 386.221 101.655C385.049 101.655 384.188 103.086 384.188 105.789Z" fill="#290046"/>
<path d="M359.48 129.021V128.199L360.53 127.179C363.066 124.766 364.208 123.487 364.223 121.988C364.223 120.983 363.736 120.046 362.251 120.046C361.353 120.046 360.599 120.503 360.142 120.884L359.716 119.94C360.401 119.361 361.383 118.935 362.525 118.935C364.665 118.935 365.564 120.397 365.564 121.82C365.564 123.655 364.239 125.131 362.145 127.149L361.353 127.88V127.91H365.807V129.021H359.472H359.48Z" fill="#290046"/>
<path d="M367.315 129.021V128.199L368.366 127.179C370.901 124.766 372.043 123.487 372.059 121.988C372.059 120.983 371.571 120.046 370.086 120.046C369.188 120.046 368.434 120.503 367.977 120.884L367.551 119.94C368.236 119.361 369.218 118.935 370.361 118.935C372.5 118.935 373.399 120.397 373.399 121.82C373.399 123.655 372.074 125.131 369.98 127.149L369.188 127.88V127.91H373.642V129.021H367.307H367.315Z" fill="#290046"/>
<path d="M381.744 123.952C381.744 127.324 380.495 129.189 378.295 129.189C376.353 129.189 375.043 127.37 375.013 124.089C375.013 120.762 376.444 118.927 378.462 118.927C380.48 118.927 381.744 120.793 381.744 123.952ZM376.353 124.104C376.353 126.684 377.145 128.146 378.371 128.146C379.741 128.146 380.404 126.547 380.404 124.013C380.404 121.478 379.779 119.97 378.386 119.97C377.213 119.97 376.353 121.402 376.353 124.104Z" fill="#290046"/>
<path d="M389.579 123.952C389.579 127.324 388.33 129.189 386.13 129.189C384.188 129.189 382.878 127.37 382.848 124.089C382.848 120.762 384.28 118.927 386.297 118.927C388.315 118.927 389.579 120.793 389.579 123.952ZM384.188 124.104C384.188 126.684 384.98 128.146 386.206 128.146C387.577 128.146 388.239 126.547 388.239 124.013C388.239 121.478 387.615 119.97 386.221 119.97C385.049 119.97 384.188 121.402 384.188 124.104Z" fill="#290046"/>
<path d="M370.231 138.674H370.201L368.472 139.603L368.213 138.582L370.383 137.425H371.525V147.344H370.231V138.674Z" fill="#290046"/>
<path d="M375.15 147.344V146.522L376.201 145.502C378.736 143.089 379.878 141.81 379.894 140.31C379.894 139.306 379.406 138.369 377.922 138.369C377.023 138.369 376.269 138.826 375.812 139.207L375.386 138.263C376.071 137.684 377.054 137.258 378.196 137.258C380.335 137.258 381.234 138.72 381.234 140.143C381.234 141.978 379.909 143.454 377.815 145.472L377.023 146.202V146.233H381.477V147.344H375.142H375.15Z" fill="#290046"/>
<path d="M389.579 142.274C389.579 145.647 388.33 147.512 386.13 147.512C384.188 147.512 382.878 145.692 382.848 142.412C382.848 139.085 384.28 137.25 386.297 137.25C388.315 137.25 389.579 139.115 389.579 142.274ZM384.188 142.427C384.188 145.007 384.98 146.469 386.206 146.469C387.577 146.469 388.239 144.87 388.239 142.335C388.239 139.8 387.615 138.293 386.221 138.293C385.049 138.293 384.188 139.724 384.188 142.427Z" fill="#290046"/>
<path d="M351.652 165.667V164.845L352.703 163.825C355.238 161.412 356.381 160.133 356.396 158.633C356.396 157.629 355.909 156.692 354.424 156.692C353.525 156.692 352.771 157.149 352.315 157.53L351.888 156.586C352.573 156.007 353.556 155.581 354.698 155.581C356.837 155.581 357.736 157.042 357.736 158.466C357.736 160.3 356.411 161.777 354.317 163.795L353.525 164.525V164.556H357.98V165.667H351.645H351.652Z" fill="#290046"/>
<path d="M359.48 165.667V164.845L360.53 163.825C363.066 161.412 364.208 160.133 364.223 158.633C364.223 157.629 363.736 156.692 362.251 156.692C361.353 156.692 360.599 157.149 360.142 157.53L359.716 156.586C360.401 156.007 361.383 155.581 362.525 155.581C364.665 155.581 365.564 157.042 365.564 158.466C365.564 160.3 364.239 161.777 362.145 163.795L361.353 164.525V164.556H365.807V165.667H359.472H359.48Z" fill="#290046"/>
<path d="M367.635 164.122C368.015 164.365 368.899 164.746 369.835 164.746C371.564 164.746 372.097 163.65 372.081 162.82C372.066 161.435 370.817 160.833 369.515 160.833H368.769V159.829H369.515C370.49 159.829 371.731 159.326 371.731 158.146C371.731 157.355 371.229 156.654 369.987 156.654C369.196 156.654 368.427 157.004 368 157.309L367.65 156.334C368.168 155.954 369.173 155.573 370.246 155.573C372.203 155.573 373.087 156.73 373.087 157.941C373.087 158.961 372.477 159.836 371.251 160.278V160.308C372.47 160.552 373.467 161.465 373.467 162.858C373.467 164.449 372.234 165.835 369.85 165.835C368.739 165.835 367.756 165.485 367.269 165.165L367.635 164.13V164.122Z" fill="#290046"/>
<path d="M375.028 163.148C375.028 161.899 375.774 161.008 377 160.491L376.985 160.445C375.888 159.928 375.416 159.075 375.416 158.215C375.416 156.639 376.741 155.573 378.485 155.573C380.411 155.573 381.371 156.776 381.371 158.017C381.371 158.854 380.96 159.76 379.734 160.339V160.384C380.967 160.871 381.736 161.739 381.736 162.95C381.736 164.678 380.259 165.835 378.363 165.835C376.284 165.835 375.036 164.601 375.036 163.148H375.028ZM380.373 163.087C380.373 161.884 379.536 161.298 378.188 160.917C377.031 161.252 376.399 162.013 376.399 162.965C376.353 163.97 377.114 164.86 378.386 164.86C379.658 164.86 380.373 164.114 380.373 163.087ZM376.68 158.123C376.68 159.113 377.427 159.646 378.576 159.958C379.429 159.669 380.084 159.06 380.084 158.154C380.084 157.362 379.612 156.54 378.401 156.54C377.29 156.54 376.673 157.271 376.673 158.123H376.68Z" fill="#290046"/>
<path d="M389.427 155.741V156.624L385.109 165.66H383.724L388.026 156.883V156.852H383.168V155.741H389.427Z" fill="#290046"/>
<path d="M337.71 149.788L394.742 150.42" stroke="#290046" stroke-miterlimit="10"/>
<path d="M277.816 110.371L336.941 108.757L337.71 142.823L277.816 143.683V110.371Z" stroke="#290046" stroke-miterlimit="10"/>
<path d="M282.506 116.651H331.17" stroke="#290046" stroke-miterlimit="10"/>
<path d="M282.506 122.285L331.17 122.033" stroke="#290046" stroke-miterlimit="10"/>
<path d="M283.542 129.798L331.17 130.361" stroke="#290046" stroke-miterlimit="10"/>
<path d="M283.542 135.796H310.345" stroke="#290046" stroke-miterlimit="10"/>
<path d="M265.07 27.4196V231.042L405.059 232.717L408.386 24.7324L265.07 27.4196Z" stroke="white" stroke-miterlimit="10"/>
<path d="M211.427 40.2236L199.076 42.1952" stroke="black" stroke-miterlimit="10"/>
<path d="M198.65 79.4347C198.65 79.4347 207.62 78.8562 209.066 80.2645C210.513 81.6727 239.47 114.954 239.47 114.954L234.171 134.556L196.244 107.669L198.65 79.4347Z" fill="#FEE882"/>
<path d="M239.47 114.954C239.47 114.954 255.894 89.7646 260.889 86.2401C265.907 82.7004 273.826 81.8021 273.826 81.8021L283.542 93.4642C283.542 93.4642 282.644 99.1887 279.643 106.009C276.643 112.83 247.96 139.047 244.671 139.572C241.382 140.097 234.171 134.556 234.171 134.556V116.651L239.47 114.954Z" fill="#FEE882"/>
<path d="M278.577 107.867C267.491 118.6 243.475 132.287 243.475 132.287C230.691 125.101 205.069 96.022 205.069 96.022L197.706 108.719L234.163 134.563C234.163 134.563 241.374 140.105 244.663 139.58C247.709 139.093 272.501 116.994 278.57 107.874L278.577 107.867Z" fill="#F8C895"/>
<path d="M279.088 81.079C279.088 81.079 284.014 66.311 284.958 66.0903C285.903 65.8695 294.728 62.68 294.728 62.68L304.253 58.3866C304.253 58.3866 305.563 59.4067 304.565 60.6855L310.093 58.3866C310.093 58.3866 310.565 59.871 310.093 61.127C309.621 62.3831 306.933 64.4612 306.933 64.4612L307.009 63.053L309.614 60.9063C309.614 60.9063 310.512 61.9416 310.299 63.426C310.086 64.9104 297.53 79.7696 297.53 79.7696L286.946 87.5799L279.073 81.0866L279.088 81.079Z" fill="#FFE0C4"/>
<path d="M286.961 87.5724C286.961 87.5724 294.857 87.0776 295.885 86.6589C296.913 86.2402 302.479 83.9717 304.573 83.2333C306.667 82.4949 310.345 81.7946 310.345 81.7946C310.345 81.7946 309.629 79.351 307.809 78.9019C305.989 78.4528 297.545 79.7621 297.545 79.7621H290.045L286.969 87.5724H286.961Z" fill="#FFE0C4"/>
<path d="M307.809 78.9019C305.989 78.4604 297.545 79.7621 297.545 79.7621C297.545 79.7621 310.101 64.9028 310.314 63.4184C310.436 62.5658 310.192 61.8655 309.956 61.4163C310.017 61.3174 310.063 61.2108 310.101 61.1195C310.573 59.8634 310.101 58.379 310.101 58.379L304.573 60.6779C305.57 59.4067 304.261 58.379 304.261 58.379L294.735 62.6724C294.735 62.6724 285.91 65.8543 284.966 66.0827C284.022 66.3035 279.095 81.0714 279.095 81.0714L286.969 87.5647C286.969 87.5647 294.865 87.0699 295.893 86.6512C296.92 86.2325 302.487 83.9641 304.58 83.2257C306.674 82.4949 310.352 81.7869 310.352 81.7869C310.352 81.7869 309.636 79.3434 307.817 78.8943L307.809 78.9019Z" stroke="#350605" stroke-linecap="round" stroke-linejoin="round"/>
<path d="M305.951 82.807L305.197 80.196C305.197 80.196 308.251 79.9904 308.776 82.1143" stroke="#350605" stroke-linecap="round" stroke-linejoin="round"/>
<path d="M171.231 146.309C171.231 146.309 165.391 160.156 163.038 178.669C160.685 197.182 157.609 345.463 157.609 345.463H171.193C171.193 345.463 202.038 196.353 202.952 146.317H171.231V146.309Z" fill="#FAD9B4"/>
<path d="M199.153 146.309H220.671C220.671 146.309 225.254 162.554 225.742 177.192C226.229 191.831 209.866 345.455 209.866 345.455H197.028C197.028 345.455 186.17 194.784 187.647 178.662C189.117 162.539 199.153 146.302 199.153 146.302V146.309Z" fill="#FAD9B4"/>
<path d="M190.427 243.602C196.883 205.959 202.564 167.357 202.952 146.309H171.231C171.231 146.309 165.391 160.156 163.038 178.669C162.063 186.342 160.967 216.312 160.007 248.779L190.427 243.61V243.602Z" fill="#EDA1A1"/>
<path d="M176.409 24.8163C176.409 24.8163 167.941 10.84 164.736 10.4975C161.53 10.1549 144.992 17.6226 143.294 22.5249C141.596 27.4273 145.601 36.9579 150.215 39.47C154.822 41.9821 171.04 36.151 171.04 36.151L176.416 24.8163H176.409Z" fill="#2C3B5D"/>
<path d="M225.742 177.185C225.254 162.546 220.671 146.302 220.671 146.302H199.153C199.153 146.302 189.117 162.539 187.647 178.662C187.023 185.482 188.607 216.403 190.647 249.806L220.998 236.203C223.77 207.337 225.925 182.635 225.742 177.185Z" fill="#EDA1A1"/>
<path d="M148.86 27.4197C148.7 24.5346 150.238 19.5181 151.7 15.476C147.626 17.7368 144.025 20.3783 143.286 22.525C141.588 27.4273 145.593 36.958 150.208 39.47C154.822 41.9821 171.033 36.151 171.033 36.151L174.071 29.7491C165.711 30.4875 149.088 31.4542 148.86 27.4197Z" fill="#2C3B5D"/>
<path d="M175.51 23.6896C175.51 23.6896 171.528 18.3001 166.974 17.4779C162.421 16.6558 157.319 29.5283 160.205 33.8292C163.091 38.1302 171.033 33.342 171.033 33.342L175.518 23.6972L175.51 23.6896Z" fill="#FEE882"/>
<path d="M179.942 52.4719L180.246 77.684L197.226 81.14L192.993 58.8967L179.942 52.4719Z" fill="#FFE0C4"/>
<path d="M192.993 58.8967L191.881 58.3486L180.239 55.631C180.239 55.631 183.688 67.1713 188.462 70.6653C191.18 72.6522 193.845 72.9338 195.635 72.812L192.985 58.8967H192.993Z" fill="#E8BC95"/>
<path d="M196.274 25.1664C196.274 25.1664 208.016 26.4682 209.318 33.639C210.62 40.8098 206.706 70.8024 202.145 71.4494C197.584 72.0965 182.584 66.235 177.368 51.8933C172.152 37.5517 175.411 21.9008 196.282 25.1664H196.274Z" fill="#FFE0C4"/>
<path d="M209.31 33.6465C208.008 26.4757 196.267 25.174 196.267 25.174C175.396 21.9159 172.137 37.5593 177.353 51.9009C178.069 53.8649 178.967 55.6614 179.995 57.3057L180.239 77.6839L197.219 81.1399L195.094 69.965C198.079 71.1906 200.653 71.6701 202.137 71.457C206.698 70.8023 210.612 40.8174 209.31 33.6465Z" stroke="#350605" stroke-linecap="round" stroke-linejoin="round"/>
<path d="M187.602 40.2236H198.665C198.665 40.2236 201.627 49.1529 193.061 49.1529C184.495 49.1529 187.602 40.2236 187.602 40.2236Z" stroke="#350605" stroke-linecap="round" stroke-linejoin="round"/>
<path d="M202.549 40.2236H211.427C211.427 40.2236 213.81 49.1529 206.927 49.1529C200.043 49.1529 202.549 40.2236 202.549 40.2236Z" stroke="#350605" stroke-linecap="round" stroke-linejoin="round"/>
<path d="M175.594 50.2491C175.594 50.2491 179.325 46.6561 180.695 44.7606C182.066 42.8651 180.695 29.4903 180.695 29.4903C180.695 29.4903 193.449 25.3339 206.934 29.4903C206.934 29.4903 202.67 23.7963 191.82 19.7541C180.543 15.5521 166.198 20.2261 162.817 31.3401C159.429 42.4465 179.949 62.0178 179.949 62.0178L180.246 55.6386L175.594 50.2567" fill="#2C3B5D"/>
<path d="M206.934 29.4902C206.934 29.4902 202.67 23.7962 191.82 19.7541C185.858 17.5313 179.028 17.7977 173.424 20.1804C170.667 16.0773 166.708 10.7106 164.728 10.4975C161.523 10.1549 144.984 17.6226 143.286 22.5249C141.588 27.4273 145.593 36.9579 150.208 39.47C152.66 40.8022 158.386 39.7821 163.221 38.5337C166.609 49.2899 179.949 62.0177 179.949 62.0177L180.246 55.6386L175.594 50.2567C175.594 50.2567 179.325 46.6637 180.695 44.7682C182.066 42.8727 180.695 29.4978 180.695 29.4978C180.695 29.4978 193.449 25.3415 206.934 29.4978V29.4902Z" stroke="#350605" stroke-linecap="round" stroke-linejoin="round"/>
<path d="M174.574 38.5869C170.713 37.0797 165.756 33.0375 163.045 30.6625C162.969 30.8832 162.886 31.1116 162.817 31.34C159.429 42.4464 179.949 62.0177 179.949 62.0177L180.246 55.6385L175.594 50.2566C175.594 50.2566 179.325 46.6636 180.695 44.7681C182.066 42.8727 180.695 29.4978 180.695 29.4978C180.695 29.4978 180.178 40.7793 174.574 38.5945V38.5869Z" fill="#2C3B5D"/>
<path d="M178.289 71.5027L199.259 73.8777L198.65 79.4347L203.698 82.4416L227.356 108.757C227.356 108.757 226.069 119.765 217.686 120.602L220.663 145.479C220.663 145.479 200.637 153.35 171.223 146.309L176.317 128.085L163.03 83.8271L178.746 79.4347L178.282 71.5027H178.289Z" fill="#FEE882"/>
<path d="M187.602 40.2236L174.071 45.7882" stroke="#350605" stroke-linecap="round" stroke-linejoin="round"/>
<path d="M166.632 95.8165L176.317 128.085L172.046 143.378L180.201 146.309C180.201 146.309 184.023 126.57 182.074 121.067C180.132 115.563 166.624 95.8241 166.624 95.8241L166.632 95.8165Z" fill="#F8C895"/>
<path d="M178.754 79.4347C178.754 79.4347 162.444 80.1122 160.198 82.4416C157.951 84.7709 136.89 137.425 136.89 137.425L152.096 145.479L175.51 108.757L178.754 79.4347Z" fill="#FEE882"/>
<path d="M179.066 50.249C179.066 50.249 171.566 38.4347 168.787 46.3743C166 54.314 181.449 56.2475 181.449 56.2475L179.074 50.2414L179.066 50.249Z" fill="#FFE0C4"/>
<path d="M178.571 49.5183C176.858 47.0671 171.139 39.6603 168.779 46.3744C166.32 53.3777 178.038 55.7071 180.848 56.1639" stroke="#350605" stroke-linecap="round" stroke-linejoin="round"/>
<path d="M178.754 79.4347C178.754 79.4347 168.277 79.8686 162.962 81.2464L184.35 83.8346L181.624 71.8909L178.289 71.5103L178.754 79.4423V79.4347Z" fill="#F8C895"/>
<path d="M171.726 50.249C171.726 50.249 169.7 45.1031 172.563 45.8643C175.426 46.6255 178.442 51.8019 178.442 51.8019C178.442 51.8019 177.383 54.04 176.127 53.2711C174.871 52.5023 173.652 51.7334 173.652 51.7334L177.109 52.6469C177.109 52.6469 173.683 46.8463 172.708 47.0518C171.733 47.2574 171.733 50.249 171.733 50.249H171.726Z" fill="#E8BC95"/>
<path d="M177.452 53.8345C177.452 53.8345 176.279 60.4496 176.401 61.2032C176.523 61.9568 179.622 62.0558 180.003 60.7008C180.383 59.3458 178.145 53.8345 178.145 53.8345H177.452Z" fill="#FFCC2A"/>
<path d="M178.221 56.2552C177.513 55.966 176.873 60.3278 178.442 60.5181C180.01 60.7084 178.853 56.514 178.221 56.2552Z" fill="#D9F0F7"/>
<path d="M195.429 57.7929C195.429 57.7929 200.569 55.9051 201.978 58.1888C201.978 58.1888 203.508 56.6283 205.077 58.2877L204.498 58.8206C204.498 58.8206 204.231 61.8046 201.452 61.7514C198.673 61.6981 195.429 57.7929 195.429 57.7929Z" fill="#EDA1A1"/>
<path d="M177.17 60.7845C176.652 59.8178 177.657 53.8345 177.657 53.8345H177.444C177.444 53.8345 176.272 60.4496 176.393 61.2032C176.515 61.9644 179.614 62.0558 179.995 60.7008C179.995 60.7008 177.68 61.7437 177.162 60.7845H177.17Z" fill="#DEAA26"/>
<path d="M205.617 58.2877C205.617 58.2877 198.102 58.242 194.081 57.3362C194.081 57.3362 200.401 63.3043 205.617 58.2877Z" fill="white"/>
<path d="M200.79 40.1247C200.79 40.1247 194.264 34.385 186.718 40.4825C186.718 40.4825 192.368 28.3332 200.79 40.1247Z" fill="#2C3B5D"/>
<path d="M209.561 37.2016C208.572 36.623 207.308 37.0874 205.884 40.4825C205.884 40.4825 207.361 39.0514 209.523 39.5614C209.554 38.724 209.561 37.9323 209.554 37.2016H209.561Z" fill="#2C3B5D"/>
<path d="M192.368 41.9973C191.858 41.9973 191.439 42.7281 191.439 43.6264C191.439 44.5246 191.85 45.2554 192.368 45.2554C192.886 45.2554 193.297 44.5246 193.297 43.6264C193.297 42.7281 192.886 41.9973 192.368 41.9973Z" fill="#350605"/>
<path d="M206.005 42.8727C205.495 42.8727 205.077 43.6035 205.077 44.5017C205.077 45.4 205.488 46.1308 206.005 46.1308C206.523 46.1308 206.934 45.4 206.934 44.5017C206.934 43.6035 206.523 42.8727 206.005 42.8727Z" fill="#350605"/>
<path d="M201.246 53.0809L206.325 52.3958C206.325 52.3958 205.175 54.1846 203.782 54.4511C202.389 54.7175 201.239 53.0809 201.239 53.0809H201.246Z" fill="#E8BC95"/>
<path d="M273.826 81.8021L279.651 77.4479L288.895 88.7141L283.542 93.4642L273.826 81.8021Z" fill="#FEE882"/>
<path d="M172.122 114.078L176.325 128.085L171.231 146.309C200.645 153.358 220.671 145.479 220.671 145.479L217.99 123.084L234.171 134.556C234.171 134.556 241.382 140.097 244.671 139.572C247.96 139.047 276.651 112.83 279.644 106.009C282.644 99.1887 283.542 93.4643 283.542 93.4643L288.887 88.7142L279.644 77.4479L273.819 81.8022C273.819 81.8022 265.9 82.7004 260.882 86.2402C255.887 89.7647 239.463 114.954 239.463 114.954C239.463 114.954 210.505 81.6652 209.059 80.2645C207.612 78.8638 198.642 79.4347 198.642 79.4347L199.252 73.8777L178.282 71.5027L178.746 79.4347" stroke="#350605" stroke-linecap="round" stroke-linejoin="round"/>
<path d="M166.632 126.319C166.632 126.319 165.459 131.861 166.632 135.561C167.804 139.26 172.266 141.133 172.266 141.133L178.754 140.12C178.754 140.12 180.855 128.588 174.231 124.979L166.632 126.327V126.319Z" fill="#F5F991"/>
<path d="M157.609 345.455C157.609 345.455 149.576 370.926 149.363 373.02C149.149 375.113 156.421 379.399 157.609 379.612C158.797 379.825 173.667 374.489 173.15 371.345C172.632 368.201 171.193 345.455 171.193 345.455H157.609Z" fill="#FAD9B4"/>
<path d="M171.368 344.595C173.865 332.431 202.077 194.13 202.945 146.309H171.223C171.223 146.309 165.383 160.156 163.03 178.669C160.784 196.36 157.875 332.507 157.624 344.595C157.624 344.595 149.568 370.926 149.363 373.027C149.149 375.121 156.421 379.406 157.609 379.619C158.797 379.833 173.667 374.496 173.15 371.352C172.632 368.209 171.368 344.603 171.368 344.603V344.595Z" stroke="#350605" stroke-linecap="round" stroke-linejoin="round"/>
<path d="M197.028 345.455C197.028 345.455 193.328 354.887 193.328 356.143C193.328 357.399 199.038 379.619 201.764 379.619H227.996C230.067 379.619 219.163 368.505 216.232 365.78C213.3 363.055 209.874 345.455 209.874 345.455H197.036H197.028Z" fill="#FAD9B4"/>
<path d="M216.231 365.78C213.3 363.055 209.874 345.455 209.874 345.455C209.874 345.455 226.229 191.831 225.749 177.192C225.262 162.554 220.678 146.309 220.678 146.309H199.16C199.16 146.309 189.124 162.546 187.655 178.669C186.185 194.792 197.036 345.463 197.036 345.463C197.036 345.463 193.335 354.895 193.335 356.151C193.335 357.407 199.046 379.627 201.772 379.627H228.003C230.074 379.627 219.171 368.513 216.239 365.788L216.231 365.78Z" stroke="#350605" stroke-linecap="round" stroke-linejoin="round"/>
<path d="M204.071 376.255C204.071 376.255 201.764 359.911 198.993 351.735C198.14 349.216 197.356 347.495 196.686 346.323C195.772 348.691 193.328 355.115 193.328 356.135C193.328 357.391 199.038 379.612 201.764 379.612H227.996C229.709 379.612 222.498 371.961 218.318 367.798C216.216 366.96 214.374 366.404 213.171 366.404C208.077 366.404 204.071 376.255 204.071 376.255Z" fill="#290046"/>
<path d="M204.071 376.255C204.071 376.255 201.764 359.911 198.993 351.735C198.14 349.216 197.356 347.495 196.686 346.323C195.772 348.691 193.328 355.115 193.328 356.135C193.328 357.391 199.038 379.612 201.764 379.612H227.996C229.709 379.612 222.498 371.961 218.318 367.798C216.216 366.96 214.374 366.404 213.171 366.404C208.077 366.404 204.071 376.255 204.071 376.255Z" stroke="#350605" stroke-linecap="round" stroke-linejoin="round"/>
<path d="M170.119 371.345C170.119 371.345 163.411 366.412 158.804 366.412C154.198 366.412 151.472 373.324 151.472 373.324L150.208 369.708C149.728 371.413 149.408 372.624 149.37 373.02C149.157 375.113 156.429 379.399 157.616 379.612C158.804 379.825 173.675 374.489 173.157 371.345C172.799 369.175 172 357.658 171.543 350.738L170.127 371.345H170.119Z" fill="#290046"/>
<path d="M170.119 371.345C170.119 371.345 163.411 366.412 158.804 366.412C154.198 366.412 151.472 373.324 151.472 373.324L150.208 369.708C149.728 371.413 149.408 372.624 149.37 373.02C149.157 375.113 156.429 379.399 157.616 379.612C158.804 379.825 173.675 374.489 173.157 371.345C172.799 369.175 172 357.658 171.543 350.738L170.127 371.345H170.119Z" stroke="#350605" stroke-linecap="round" stroke-linejoin="round"/>
<path d="M178.061 79.6326C178.061 79.6326 188.85 86.8415 194.683 86.6436C200.516 86.4457 200.241 79.4347 200.241 79.4347" stroke="#350605" stroke-linecap="round" stroke-linejoin="round"/>
<path d="M239.47 114.954C239.47 114.954 238.397 126.106 239.47 132.995C239.47 132.995 230.691 123.929 237.734 115.51" stroke="#1A1A1A" stroke-miterlimit="10"/>
<path d="M283.542 93.4643C276.446 90.2062 273.621 80.9648 273.621 80.9648" stroke="#350605" stroke-linecap="round" stroke-linejoin="round"/>
<path d="M209.668 89.0719L227.371 108.757C227.371 108.757 226.084 119.765 217.701 120.602L219.391 133.673" stroke="#350605" stroke-linecap="round" stroke-linejoin="round"/>
<path d="M164.34 82.7004C164.34 82.7004 172.343 86.9862 174.231 95.1161C176.119 103.239 172.594 114.101 172.594 114.101" stroke="#350605" stroke-linecap="round" stroke-linejoin="round"/>
<path d="M227.364 171.11C226.968 163.566 220.671 147.535 220.671 147.535L220.282 142.259C203.561 143.873 182.165 140.554 173.279 138.956L171.223 146.301C171.223 146.301 159.002 159.159 156.482 169.428C153.962 179.697 157.601 235.716 157.601 235.716C158.957 236.325 160.396 236.858 161.88 237.33L165.924 205.51L169.518 239.119C192.658 242.94 223.1 235.724 223.1 235.724C223.1 235.724 227.744 178.654 227.356 171.11H227.364Z" fill="#A3A3F5"/>
<path d="M173.287 138.963L171.231 146.309C171.231 146.309 159.01 159.166 156.49 169.435C153.969 179.704 157.609 235.723 157.609 235.723C158.964 236.332 160.403 236.865 161.888 237.337L165.931 205.518L169.525 239.126C171.193 239.4 172.891 239.621 174.619 239.781C172.16 219.327 166.784 174.467 166.632 171.666C166.457 168.461 174.421 144.946 176.287 139.481C175.175 139.298 174.162 139.115 173.279 138.963H173.287Z" fill="#9193EC"/>
<path d="M227.364 171.11C226.968 163.566 220.671 147.535 220.671 147.535L220.282 142.259C205.221 143.713 186.376 141.163 176.287 139.481C176.058 139.443 175.838 139.405 175.617 139.367C175.541 139.351 175.457 139.336 175.381 139.329C175.19 139.298 175 139.26 174.817 139.23C174.695 139.207 174.566 139.184 174.444 139.169C174.315 139.146 174.178 139.123 174.048 139.1C173.782 139.054 173.523 139.009 173.279 138.963L171.223 146.309C171.223 146.309 159.002 159.166 156.482 169.435C153.962 179.704 157.601 235.723 157.601 235.723C158.957 236.332 160.396 236.865 161.88 237.337L165.924 205.518L169.518 239.126C170.34 239.263 171.17 239.385 172 239.492C172.03 239.492 172.061 239.499 172.091 239.507C194.85 242.43 223.092 235.731 223.092 235.731C223.092 235.731 227.737 178.661 227.348 171.118L227.364 171.11Z" stroke="#350605" stroke-linecap="round" stroke-linejoin="round"/>
<path d="M178.32 140.181L174.787 150.465C174.787 150.465 166.32 164.236 164.34 170.471C162.36 176.705 166 213.861 166 213.861" stroke="#350605" stroke-linecap="round" stroke-linejoin="round"/>
<path d="M220.671 147.535C220.671 147.535 209.66 157.545 171.231 146.302" stroke="#350605" stroke-linecap="round" stroke-linejoin="round"/>
<path d="M136.898 137.425C136.898 137.425 152.652 125.634 157.616 124.378C162.573 123.122 166.639 126.311 166.639 126.311L172.274 141.125C172.274 141.125 169.122 155.284 162.497 154.812C155.873 154.34 137.157 153.784 135.748 149.232C134.979 146.743 136.898 137.418 136.898 137.418V137.425Z" fill="#FEE882"/>
<path d="M138.9 151.714C144.84 154.028 157.327 154.447 162.49 154.812C169.114 155.284 172.266 141.125 172.266 141.125L172.008 140.44C169.807 142.884 165.033 147.641 160.007 149.232C155.69 150.595 145.723 151.341 138.9 151.706V151.714Z" fill="#F8C895"/>
<path d="M178.754 79.4347C178.754 79.4347 162.444 80.1122 160.198 82.4416C157.959 84.7709 136.89 137.425 136.89 137.425C136.89 137.425 134.971 146.751 135.741 149.24C137.142 153.792 155.865 154.348 162.49 154.82C169.114 155.292 172.266 141.133 172.266 141.133L178.754 140.12C178.754 140.12 180.855 128.588 174.231 124.979L166.632 126.327C166.632 126.327 166.007 125.839 164.957 125.322L172.594 113.348" stroke="#350605" stroke-linecap="round" stroke-linejoin="round"/>
<path d="M174.231 124.972H174.2C173.637 125.999 172.487 128.61 172.601 132.759C172.716 136.976 176.546 139.321 178.32 140.181L178.754 140.113C178.754 140.113 180.855 128.58 174.231 124.972Z" fill="#290046"/>
<path d="M185.698 136.086C185.698 136.086 181.701 138.918 175.373 137.471L174.231 128.801C174.231 128.801 184.449 118.654 185.104 118.197L193.929 116.651L203.653 117.359C203.653 117.359 203.531 119.323 202.556 119.795C201.582 120.267 193.922 120.922 193.922 120.922L189.673 122.566L206.462 124.584C206.462 124.584 206.181 126.616 204.681 127.24C203.181 127.864 189.673 127.537 189.673 127.537L204.117 130.651C204.117 130.651 203.554 133.163 201.962 133.513C200.371 133.863 188.835 132.927 188.835 132.927L199.351 134.959C199.351 134.959 199.457 136.626 196.861 137.03C194.272 137.426 185.69 136.086 185.69 136.086H185.698Z" fill="#FFE0C4"/>
<path d="M185.698 136.086C185.698 136.086 181.701 138.918 175.373 137.471L174.231 128.801C174.231 128.801 184.449 118.654 185.104 118.197L193.929 116.651L203.653 117.359C203.653 117.359 203.531 119.323 202.556 119.795C201.582 120.267 193.922 120.922 193.922 120.922L189.673 122.566L206.462 124.584C206.462 124.584 206.181 126.616 204.681 127.24C203.181 127.864 189.673 127.537 189.673 127.537L204.117 130.651C204.117 130.651 203.554 133.163 201.962 133.513C200.371 133.863 188.835 132.927 188.835 132.927L199.351 134.959C199.351 134.959 199.457 136.626 196.861 137.03C194.272 137.426 185.69 136.086 185.69 136.086H185.698Z" stroke="#350605" stroke-linecap="round" stroke-linejoin="round"/>
<path d="M166.632 126.319C166.632 126.319 163.205 137.555 172.266 141.133" stroke="#350605" stroke-linecap="round" stroke-linejoin="round"/>
<path d="M304.573 60.678L292.458 67.0495" stroke="#350605" stroke-linecap="round" stroke-linejoin="round"/>
<path d="M309.629 60.8987L296.327 70.6044" stroke="#350605" stroke-linecap="round" stroke-linejoin="round"/>
<path d="M294.727 62.6724L289.298 65.7477" stroke="#350605" stroke-linecap="round" stroke-linejoin="round"/>
<path d="M166.632 126.319C166.632 126.319 161.271 122.231 156.474 124.774C151.685 127.309 140.751 134.624 140.751 134.624" stroke="#350605" stroke-linecap="round" stroke-linejoin="round"/>
<path d="M156.482 124.766L143.918 129.273" stroke="#350605" stroke-linecap="round" stroke-linejoin="round"/>
<path d="M161.241 35.6182C161.241 35.6182 160.213 20.0966 169.571 17.4399" stroke="#2C3B5D" stroke-miterlimit="10"/>
<path d="M205.617 28.4398C205.617 28.4398 204.094 16.7777 183.596 18.6275" stroke="#2C3B5D" stroke-miterlimit="10"/>
<path d="M206.934 29.4903C206.934 29.4903 210.863 19.6475 199.891 25.0371" stroke="#2C3B5D" stroke-miterlimit="10"/>
<path d="M284.958 66.0828C284.958 66.0828 295.291 66.5091 297.56 72.9719" stroke="#350605" stroke-linecap="round" stroke-linejoin="round"/>
<path d="M216.079 161.838C216.079 161.838 205.061 192.645 189.163 202.305C173.264 211.965 205.838 216.183 213.764 195.53" stroke="#350605" stroke-linecap="round" stroke-linejoin="round"/>
<path d="M77.8716 379.619H471.859" stroke="white" stroke-linecap="round" stroke-linejoin="round"/>
<path d="M268.344 0.380615H221.066C218.31 0.380615 216.079 2.61103 216.079 5.36669V26.94C216.079 29.6957 218.31 31.9261 221.066 31.9261H224.691C226.183 33.7759 227.478 36.4935 226.366 39.7744L236.752 31.9261H268.351C271.108 31.9261 273.339 29.6957 273.339 26.94V5.36669C273.339 2.61103 271.108 0.380615 268.351 0.380615H268.344Z" fill="#EAECEF"/>
<path d="M268.344 0.380615H221.066C218.31 0.380615 216.079 2.61103 216.079 5.36669V26.94C216.079 29.6957 218.31 31.9261 221.066 31.9261H224.691C226.183 33.7759 227.478 36.4935 226.366 39.7744L236.752 31.9261H268.351C271.108 31.9261 273.339 29.6957 273.339 26.94V5.36669C273.339 2.61103 271.108 0.380615 268.351 0.380615H268.344Z" stroke="#2C3B5D" stroke-miterlimit="10" stroke-linecap="round"/>
<path d="M223.077 7.521C223.077 7.521 225.506 7.66563 226.358 8.9445C227.211 10.2234 231.353 10.5126 233.356 8.9445C235.359 7.37636 238.351 8.66285 239.348 9.37079C240.346 10.0787 243.628 10.0178 245.63 8.76181C247.633 7.50577 249.772 7.72653 250.915 8.76181C252.057 9.79708 254.486 10.2995 256.625 8.76181C258.765 7.22412 259.762 7.87116 261.339 8.76181C262.915 9.65245 264.91 10.0102 264.91 10.0102" stroke="#2C3B5D" stroke-miterlimit="10" stroke-linecap="round"/>
<path d="M223.077 13.3673C223.077 13.3673 225.506 13.5119 226.358 14.7908C227.211 16.0697 231.353 16.359 233.356 14.7908C235.359 13.2227 238.351 14.5092 239.348 15.2171C240.346 15.9251 243.628 15.8642 245.63 14.6081C247.633 13.3521 249.772 13.5728 250.915 14.6081C252.057 15.6434 254.486 16.1458 256.625 14.6081C258.765 13.0704 259.762 13.7175 261.339 14.6081C262.915 15.4988 264.91 15.8565 264.91 15.8565" stroke="#2C3B5D" stroke-miterlimit="10" stroke-linecap="round"/>
<path d="M271.458 77.2728C276.105 77.2728 279.872 73.5068 279.872 68.8612C279.872 64.2156 276.105 60.4496 271.458 60.4496C266.811 60.4496 263.044 64.2156 263.044 68.8612C263.044 73.5068 266.811 77.2728 271.458 77.2728Z" fill="#D45252"/>
<path d="M242.029 354.286C245.019 354.286 247.443 351.862 247.443 348.873C247.443 345.884 245.019 343.461 242.029 343.461C239.039 343.461 236.615 345.884 236.615 348.873C236.615 351.862 239.039 354.286 242.029 354.286Z" fill="#D45252"/>
<path d="M5.41378 66.3111C8.40373 66.3111 10.8276 63.8879 10.8276 60.8987C10.8276 57.9095 8.40373 55.4863 5.41378 55.4863C2.42383 55.4863 0 57.9095 0 60.8987C0 63.8879 2.42383 66.3111 5.41378 66.3111Z" fill="#417CD4"/>
<path d="M491.497 86.8872C496.808 86.8872 501.114 82.5827 501.114 77.2728C501.114 71.963 496.808 67.6584 491.497 67.6584C486.186 67.6584 481.88 71.963 481.88 77.2728C481.88 82.5827 486.186 86.8872 491.497 86.8872Z" fill="#EC732F"/>
<path d="M505.157 159.722C507.39 159.722 509.2 157.912 509.2 155.68C509.2 153.447 507.39 151.638 505.157 151.638C502.924 151.638 501.114 153.447 501.114 155.68C501.114 157.912 502.924 159.722 505.157 159.722Z" fill="#882FB1"/>
<path d="M476.679 289.413C481.726 289.413 485.816 285.323 485.816 280.278C485.816 275.233 481.726 271.144 476.679 271.144C471.633 271.144 467.542 275.233 467.542 280.278C467.542 285.323 471.633 289.413 476.679 289.413Z" fill="#ED4883"/>
<path d="M25.6983 286.749C29.2728 286.749 32.1705 283.852 32.1705 280.278C32.1705 276.705 29.2728 273.808 25.6983 273.808C22.1238 273.808 19.2261 276.705 19.2261 280.278C19.2261 283.852 22.1238 286.749 25.6983 286.749Z" fill="#ED4883"/>
<path d="M315.256 351.872C319.902 351.872 323.669 348.106 323.669 343.461C323.669 338.815 319.902 335.049 315.256 335.049C310.609 335.049 306.842 338.815 306.842 343.461C306.842 348.106 310.609 351.872 315.256 351.872Z" fill="#417CD4"/>
<path d="M445.841 343.689L459.075 353.524L443.945 360.063L445.849 343.689H445.841Z" fill="#FFE984"/>
<mask id="mask0_636_1846" style="mask-type:luminance" maskUnits="userSpaceOnUse" x="102" y="43" width="19" height="19">
<path d="M120.101 43.3293H102.184V61.4543H120.101V43.3293Z" fill="white"/>
</mask>
<g mask="url(#mask0_636_1846)">
<path d="M115.532 61.4546C114.344 61.4546 113.157 60.9978 112.266 60.0767L103.486 51.0866C101.72 49.2824 101.758 46.3897 103.563 44.6313C105.367 42.8652 108.261 42.9033 110.02 44.7074L118.799 53.6976C120.565 55.5017 120.527 58.3944 118.723 60.1528C117.832 61.0206 116.682 61.4546 115.532 61.4546Z" fill="#FFE984"/>
</g>
<path d="M443.047 39.843C442.301 39.843 441.554 39.5841 440.999 39.0893L435.509 34.2403C434.405 33.2659 434.443 31.7206 435.592 30.7919C436.742 29.8556 438.562 29.8936 439.666 30.8604L445.148 35.7095C446.252 36.6838 446.214 38.2291 445.065 39.1579C444.501 39.6146 443.77 39.843 443.047 39.8354V39.843Z" fill="#ED4883"/>
<mask id="mask1_636_1846" style="mask-type:luminance" maskUnits="userSpaceOnUse" x="37" y="122" width="33" height="12">
<path d="M69.1609 122.825H37.9421V133.482H69.1609V122.825Z" fill="white"/>
</mask>
<g mask="url(#mask1_636_1846)">
<path d="M60.9983 133.482C57.5719 133.482 53.9246 132.249 51.1225 128.892C49.9118 127.446 47.757 127.035 44.7341 127.682C42.1148 128.237 39.9066 129.41 39.8838 129.417L37.9421 125.337C38.0487 125.284 40.6224 123.913 43.7899 123.221C49.6301 121.942 52.7596 123.952 54.351 125.862C58.1658 130.422 64.2801 128.991 66.709 127.21L69.1609 130.962C67.1964 132.401 64.1963 133.475 60.9983 133.475V133.482Z" fill="#882FB1"/>
</g>
</g>
<defs>
<clipPath id="clip0_636_1846">
<rect width="509.2" height="380" fill="white"/>
</clipPath>
</defs>
</svg>
